<svg xmlns="http://www.w3.org/2000/svg" viewBox="0 0 180.41 142.13"><defs><style>.cls-1{fill:#5ce9c9;}</style></defs><g id="Layer_2" data-name="Layer 2"><g id="Layer_1-2" data-name="Layer 1"><path class="cls-1" d="M2.56,1.09a1,1,0,0,1-.38.77,1.34,1.34,0,0,1-.9.32,1.39,1.39,0,0,1-.91-.32A1,1,0,0,1,0,1.09,1,1,0,0,1,.37.32,1.44,1.44,0,0,1,1.28,0a1.4,1.4,0,0,1,.9.32A1,1,0,0,1,2.56,1.09Zm16.17,0a1,1,0,0,1-.38.77,1.34,1.34,0,0,1-.9.32,1.39,1.39,0,0,1-.91-.32,1,1,0,0,1-.37-.77,1,1,0,0,1,.37-.77A1.44,1.44,0,0,1,17.45,0a1.4,1.4,0,0,1,.9.32A1,1,0,0,1,18.73,1.09Zm16.16,0a1,1,0,0,1-.37.77,1.43,1.43,0,0,1-1.81,0,1,1,0,0,1-.37-.77,1,1,0,0,1,.37-.77,1.43,1.43,0,0,1,1.81,0A1,1,0,0,1,34.89,1.09Zm16.17,0a1,1,0,0,1-.37.77,1.37,1.37,0,0,1-.91.32,1.34,1.34,0,0,1-.9-.32,1,1,0,0,1,0-1.54,1.4,1.4,0,0,1,.9-.32,1.44,1.44,0,0,1,.91.32A1,1,0,0,1,51.06,1.09Zm16.17,0a1,1,0,0,1-.37.77,1.37,1.37,0,0,1-.91.32,1.34,1.34,0,0,1-.9-.32,1,1,0,0,1,0-1.54,1.51,1.51,0,0,1,1.86,0A1,1,0,0,1,67.23,1.09Zm16.17,0a1,1,0,0,1-.38.77,1.42,1.42,0,0,1-1.8,0,1,1,0,0,1,0-1.54,1.44,1.44,0,0,1,1.8,0A1,1,0,0,1,83.4,1.09Zm16.17,0a1,1,0,0,1-.38.77,1.34,1.34,0,0,1-.9.32,1.39,1.39,0,0,1-.91-.32A1,1,0,0,1,97,1.09a1,1,0,0,1,.37-.77A1.47,1.47,0,0,1,98.29,0a1.4,1.4,0,0,1,.9.32A1,1,0,0,1,99.57,1.09Zm16.17,0a1,1,0,0,1-.38.77,1.34,1.34,0,0,1-.9.32,1.39,1.39,0,0,1-.91-.32,1,1,0,0,1-.37-.77,1,1,0,0,1,.37-.77,1.44,1.44,0,0,1,.91-.32,1.4,1.4,0,0,1,.9.32A1,1,0,0,1,115.74,1.09Zm16.16,0a1,1,0,0,1-.37.77,1.43,1.43,0,0,1-1.81,0,1,1,0,0,1-.37-.77,1,1,0,0,1,.37-.77,1.43,1.43,0,0,1,1.81,0A1,1,0,0,1,131.9,1.09Zm16.17,0a1,1,0,0,1-.37.78,1.44,1.44,0,0,1-.91.32,1.4,1.4,0,0,1-.9-.32,1,1,0,0,1,0-1.55,1.4,1.4,0,0,1,.9-.32,1.44,1.44,0,0,1,.91.32,1,1,0,0,1,.37.77Zm16.17,0a1,1,0,0,1-.37.77,1.37,1.37,0,0,1-.91.32,1.34,1.34,0,0,1-.9-.32,1,1,0,0,1,0-1.54A1.4,1.4,0,0,1,163,0a1.44,1.44,0,0,1,.91.32,1,1,0,0,1,.33.77Zm16.17,0a1,1,0,0,1-.37.77,1.39,1.39,0,0,1-.91.32,1.34,1.34,0,0,1-.9-.32,1,1,0,0,1,0-1.54,1.4,1.4,0,0,1,.9-.32,1.44,1.44,0,0,1,.91.32,1,1,0,0,1,.37.77ZM2.56,15.08a1,1,0,0,1-.38.78,1.4,1.4,0,0,1-.9.32,1.44,1.44,0,0,1-.91-.32,1,1,0,0,1-.14-1.41l.14-.14A1.49,1.49,0,0,1,1.28,14a1.4,1.4,0,0,1,.9.32A1,1,0,0,1,2.56,15.08Zm16.17,0a1,1,0,0,1-.1.42,1.09,1.09,0,0,1-.28.36,1.27,1.27,0,0,1-.41.23,1.38,1.38,0,0,1-1,0,1.32,1.32,0,0,1-.42-.23,1.22,1.22,0,0,1-.27-.36.87.87,0,0,1-.1-.42,1,1,0,0,1,.37-.77,1.44,1.44,0,0,1,.91-.32,1.4,1.4,0,0,1,.9.32A1,1,0,0,1,18.73,15.08Zm16.16,0a1,1,0,0,1-.09.42,1.09,1.09,0,0,1-.28.36,1.32,1.32,0,0,1-.42.23,1.37,1.37,0,0,1-.49.09,1.54,1.54,0,0,1-.9-.32,1.25,1.25,0,0,1-.28-.36,1,1,0,0,1-.09-.42,1,1,0,0,1,.37-.77,1.43,1.43,0,0,1,1.81,0A1,1,0,0,1,34.89,15.08Zm16.17,0a1,1,0,0,1-.37.78,1.44,1.44,0,0,1-.91.32,1.4,1.4,0,0,1-.9-.32,1,1,0,0,1,0-1.55,1.4,1.4,0,0,1,.9-.32,1.44,1.44,0,0,1,.91.32A1,1,0,0,1,51.06,15.08Zm16.17,0a.87.87,0,0,1-.1.42,1,1,0,0,1-.27.36,1.32,1.32,0,0,1-.42.23,1.38,1.38,0,0,1-1,0,1.27,1.27,0,0,1-.41-.23,1.09,1.09,0,0,1-.28-.36,1,1,0,0,1-.1-.42,1,1,0,0,1,.38-.77,1.53,1.53,0,0,1,1.86,0,1,1,0,0,1,.37.77Zm16.17,0a1,1,0,0,1-.38.78,1.42,1.42,0,0,1-1.8,0,1,1,0,0,1-.14-1.41l.14-.14a1.44,1.44,0,0,1,1.8,0A1,1,0,0,1,83.4,15.08Zm16.17,0a1,1,0,0,1-.38.78,1.4,1.4,0,0,1-.9.32,1.44,1.44,0,0,1-.91-.32,1,1,0,0,1-.14-1.41l.14-.14a1.44,1.44,0,0,1,.91-.32,1.4,1.4,0,0,1,.9.32A1,1,0,0,1,99.57,15.08Zm16.17,0a1,1,0,0,1-.38.78,1.4,1.4,0,0,1-.9.32,1.44,1.44,0,0,1-.91-.32,1,1,0,0,1-.37-.78,1,1,0,0,1,.37-.77,1.44,1.44,0,0,1,.91-.32,1.4,1.4,0,0,1,.9.32A1,1,0,0,1,115.74,15.08Zm16.16,0a1,1,0,0,1-.37.78,1.43,1.43,0,0,1-1.81,0,1,1,0,0,1-.37-.78,1,1,0,0,1,.37-.77,1.43,1.43,0,0,1,1.81,0A1,1,0,0,1,131.9,15.08Zm16.17,0a1,1,0,0,1-.37.78,1.44,1.44,0,0,1-.91.32,1.4,1.4,0,0,1-.9-.32,1,1,0,0,1,0-1.55,1.4,1.4,0,0,1,.9-.32,1.44,1.44,0,0,1,.91.32,1,1,0,0,1,.37.77Zm16.17,0a.87.87,0,0,1-.1.42,1,1,0,0,1-.27.36,1.32,1.32,0,0,1-.42.23,1.38,1.38,0,0,1-1,0,1.27,1.27,0,0,1-.41-.23,1.25,1.25,0,0,1-.28-.36,1,1,0,0,1-.1-.42,1,1,0,0,1,.38-.77A1.46,1.46,0,0,1,163,14a1.44,1.44,0,0,1,.91.32,1,1,0,0,1,.33.76Zm16.17,0a1,1,0,0,1-.38.78,1.43,1.43,0,0,1-1.8,0,1,1,0,0,1,0-1.55,1.4,1.4,0,0,1,.9-.32,1.44,1.44,0,0,1,.91.32,1.05,1.05,0,0,1,.37.77ZM2.56,29.08a1,1,0,0,1-.09.43,1,1,0,0,1-.27.36,1.12,1.12,0,0,1-.42.25,1.43,1.43,0,0,1-1,0,1.2,1.2,0,0,1-.42-.25,1,1,0,0,1-.27-.36A1,1,0,0,1,0,29.08a1,1,0,0,1,.39-.75A1.38,1.38,0,0,1,1.28,28a1.44,1.44,0,0,1,.89.31A1.09,1.09,0,0,1,2.56,29.08Zm16.17,0a1,1,0,0,1-.38.77,1.4,1.4,0,0,1-.9.32,1.44,1.44,0,0,1-.91-.32,1,1,0,0,1-.37-.77,1,1,0,0,1,.37-.78,1.44,1.44,0,0,1,.91-.32,1.4,1.4,0,0,1,.9.32A1,1,0,0,1,18.73,29.08Zm16.16,0a1,1,0,0,1-.37.77,1.43,1.43,0,0,1-1.81,0,1,1,0,0,1-.37-.77,1,1,0,0,1,.37-.78,1.43,1.43,0,0,1,1.81,0A1,1,0,0,1,34.89,29.08Zm16.17,0a1,1,0,0,1-.37.77,1.44,1.44,0,0,1-.91.32,1.4,1.4,0,0,1-.9-.32,1,1,0,0,1-.37-.77,1,1,0,0,1,.37-.78,1.4,1.4,0,0,1,.9-.32,1.44,1.44,0,0,1,.91.32A1,1,0,0,1,51.06,29.08Zm16.17,0a1,1,0,0,1-.37.77,1.44,1.44,0,0,1-.91.32,1.4,1.4,0,0,1-.9-.32,1,1,0,0,1-.38-.77,1,1,0,0,1,.38-.78,1.42,1.42,0,0,1,1-.3,1.44,1.44,0,0,1,.91.32A1,1,0,0,1,67.23,29.08Zm16.17,0a1.06,1.06,0,0,1-.08.43,1.09,1.09,0,0,1-.28.36,1.12,1.12,0,0,1-.42.25,1.43,1.43,0,0,1-1,0,1.2,1.2,0,0,1-.42-.25,1,1,0,0,1-.27-.36,1,1,0,0,1-.09-.43,1,1,0,0,1,.39-.75,1.44,1.44,0,0,1,1.78,0A1,1,0,0,1,83.4,29.08Zm16.17,0a1,1,0,0,1-.09.43,1,1,0,0,1-.27.36,1.12,1.12,0,0,1-.42.25,1.43,1.43,0,0,1-1,0,1.2,1.2,0,0,1-.42-.25,1,1,0,0,1-.27-.36,1,1,0,0,1-.09-.43,1,1,0,0,1,.39-.75,1.44,1.44,0,0,1,1.78,0A1.07,1.07,0,0,1,99.57,29.08Zm16.17,0a1,1,0,0,1-.38.77,1.4,1.4,0,0,1-.9.32,1.44,1.44,0,0,1-.91-.32,1,1,0,0,1-.37-.77,1,1,0,0,1,.37-.78,1.44,1.44,0,0,1,.91-.32,1.4,1.4,0,0,1,.9.32A1,1,0,0,1,115.74,29.08Zm16.16,0a1,1,0,0,1-.37.77,1.43,1.43,0,0,1-1.81,0,1,1,0,0,1-.37-.77,1,1,0,0,1,.37-.78,1.43,1.43,0,0,1,1.81,0A1,1,0,0,1,131.9,29.08Zm16.17,0a1,1,0,0,1-.37.77,1.43,1.43,0,0,1-1.81,0,1,1,0,0,1-.37-.77,1,1,0,0,1,.37-.78,1.43,1.43,0,0,1,1.81,0,1,1,0,0,1,.37.78Zm16.17,0a1,1,0,0,1-.37.77,1.44,1.44,0,0,1-.91.32,1.4,1.4,0,0,1-.9-.32,1,1,0,0,1-.38-.77,1,1,0,0,1,.38-.78A1.4,1.4,0,0,1,163,28a1.44,1.44,0,0,1,.91.32,1,1,0,0,1,.33.76Zm16.17,0a1,1,0,0,1-.37.77,1.44,1.44,0,0,1-.91.32,1.4,1.4,0,0,1-.9-.32,1,1,0,0,1-.38-.77,1,1,0,0,1,.38-.78,1.4,1.4,0,0,1,.9-.32,1.44,1.44,0,0,1,.91.32,1.07,1.07,0,0,1,.37.78ZM2.56,43.07a1,1,0,0,1-.09.43,1.11,1.11,0,0,1-.27.37,1.18,1.18,0,0,1-.42.24,1.43,1.43,0,0,1-1,0,1.18,1.18,0,0,1-.42-.24,1,1,0,0,1-.27-.37A1,1,0,0,1,0,43.07a1,1,0,0,1,.39-.75,1.51,1.51,0,0,1,.89-.3,1.49,1.49,0,0,1,.89.3A1,1,0,0,1,2.56,43.07Zm16.17,0a1,1,0,0,1-.38.77,1.4,1.4,0,0,1-.9.32,1.44,1.44,0,0,1-.91-.32,1,1,0,0,1-.13-1.41l.13-.13a1.44,1.44,0,0,1,1.81,0A1,1,0,0,1,18.73,43.07Zm16.16,0a1,1,0,0,1-.37.77,1.43,1.43,0,0,1-1.81,0,1,1,0,0,1-.13-1.41l.13-.13a1.43,1.43,0,0,1,1.81,0A1,1,0,0,1,34.89,43.07Zm16.17,0a1,1,0,0,1-.37.77,1.44,1.44,0,0,1-.91.32,1.4,1.4,0,0,1-.9-.32,1,1,0,0,1-.13-1.41l.13-.13a1.4,1.4,0,0,1,.9-.32,1.37,1.37,0,0,1,.91.32A1,1,0,0,1,51.06,43.07Zm16.17,0a1,1,0,0,1-.37.77,1.44,1.44,0,0,1-.91.32,1.4,1.4,0,0,1-.9-.32,1,1,0,0,1-.13-1.41l.13-.13a1.55,1.55,0,0,1,1.86,0A1,1,0,0,1,67.23,43.07Zm16.17,0a1.06,1.06,0,0,1-.08.43,1.44,1.44,0,0,1-.28.37,1.18,1.18,0,0,1-.42.24,1.43,1.43,0,0,1-1,0,1.18,1.18,0,0,1-.42-.24,1,1,0,0,1-.14-1.41.93.93,0,0,1,.14-.14,1.47,1.47,0,0,1,1.78,0A1,1,0,0,1,83.4,43.07Zm16.17,0a1,1,0,0,1-.09.43,1.11,1.11,0,0,1-.27.37,1.18,1.18,0,0,1-.42.24,1.43,1.43,0,0,1-1,0,1.18,1.18,0,0,1-.42-.24,1,1,0,0,1-.27-.37,1,1,0,0,1-.09-.43,1,1,0,0,1,.39-.75,1.47,1.47,0,0,1,1.78,0A1.15,1.15,0,0,1,99.57,43.07Zm16.17,0a1,1,0,0,1-.38.77,1.4,1.4,0,0,1-.9.32,1.44,1.44,0,0,1-.91-.32,1,1,0,0,1-.13-1.41l.13-.13a1.44,1.44,0,0,1,1.81,0A1,1,0,0,1,115.74,43.07Zm16.16,0a1,1,0,0,1-.37.77,1.43,1.43,0,0,1-1.81,0,1,1,0,0,1-.13-1.41,1.59,1.59,0,0,1,.13-.13,1.43,1.43,0,0,1,1.81,0A1,1,0,0,1,131.9,43.07Zm16.17,0a1,1,0,0,1-.37.77,1.43,1.43,0,0,1-1.81,0,1,1,0,0,1-.13-1.41l.13-.13a1.43,1.43,0,0,1,1.81,0,1,1,0,0,1,.37.77Zm16.17,0a1,1,0,0,1-.37.77,1.44,1.44,0,0,1-.91.32,1.4,1.4,0,0,1-.9-.32,1,1,0,0,1-.13-1.41,1.59,1.59,0,0,1,.13-.13A1.4,1.4,0,0,1,163,42a1.37,1.37,0,0,1,.91.32,1,1,0,0,1,.33.75Zm16.17,0a1,1,0,0,1-.37.77,1.44,1.44,0,0,1-.91.32,1.4,1.4,0,0,1-.9-.32,1,1,0,0,1-.13-1.41l.13-.13a1.4,1.4,0,0,1,.9-.32,1.44,1.44,0,0,1,.91.32,1,1,0,0,1,.37.77ZM2.56,57.06a.9.9,0,0,1-.09.43,1,1,0,0,1-.27.37,1.18,1.18,0,0,1-.42.24,1.43,1.43,0,0,1-1,0,1.18,1.18,0,0,1-.42-.24,1,1,0,0,1-.27-.37A1,1,0,0,1,0,57.06a1,1,0,0,1,.39-.75,1.51,1.51,0,0,1,.89-.3,1.49,1.49,0,0,1,.89.3A1,1,0,0,1,2.56,57.06Zm16.17,0a1,1,0,0,1-.38.77,1.34,1.34,0,0,1-.9.32,1.39,1.39,0,0,1-.91-.32,1,1,0,0,1-.13-1.41,1.59,1.59,0,0,1,.13-.13,1.44,1.44,0,0,1,1.81,0A1,1,0,0,1,18.73,57.06Zm16.16,0a1,1,0,0,1-.37.77,1.43,1.43,0,0,1-1.81,0,1,1,0,0,1-.13-1.41,1.59,1.59,0,0,1,.13-.13,1.43,1.43,0,0,1,1.81,0A1,1,0,0,1,34.89,57.06Zm16.17,0a1,1,0,0,1-.37.77,1.37,1.37,0,0,1-.91.32,1.34,1.34,0,0,1-.9-.32,1,1,0,0,1-.13-1.41,1.59,1.59,0,0,1,.13-.13,1.4,1.4,0,0,1,.9-.32,1.37,1.37,0,0,1,.91.32A1,1,0,0,1,51.06,57.06Zm16.17,0a1,1,0,0,1-.37.77,1.37,1.37,0,0,1-.91.32,1.34,1.34,0,0,1-.9-.32,1,1,0,0,1-.13-1.41l.13-.13a1.57,1.57,0,0,1,1.86,0A1,1,0,0,1,67.23,57.06Zm16.17,0a1.06,1.06,0,0,1-.08.43,1.18,1.18,0,0,1-.7.61,1.43,1.43,0,0,1-1,0,1.18,1.18,0,0,1-.42-.24,1,1,0,0,1-.14-1.41.93.93,0,0,1,.14-.14,1.47,1.47,0,0,1,1.78,0A1,1,0,0,1,83.4,57.06Zm16.17,0a1.05,1.05,0,0,1-.36.8,1.18,1.18,0,0,1-.42.24,1.43,1.43,0,0,1-1,0,1.18,1.18,0,0,1-.42-.24,1,1,0,0,1-.27-.37,1,1,0,0,1-.09-.43,1,1,0,0,1,.39-.75,1.47,1.47,0,0,1,1.78,0A1.15,1.15,0,0,1,99.57,57.06Zm16.17,0a1,1,0,0,1-.38.77,1.34,1.34,0,0,1-.9.32,1.39,1.39,0,0,1-.91-.32,1,1,0,0,1-.13-1.41l.13-.13a1.44,1.44,0,0,1,1.81,0A1,1,0,0,1,115.74,57.06Zm16.16,0a1,1,0,0,1-.37.77,1.43,1.43,0,0,1-1.81,0,1,1,0,0,1-.13-1.41,1.59,1.59,0,0,1,.13-.13,1.43,1.43,0,0,1,1.81,0A1,1,0,0,1,131.9,57.06Zm16.17,0a1,1,0,0,1-.37.77,1.43,1.43,0,0,1-1.81,0,1,1,0,0,1-.13-1.41l.13-.13a1.43,1.43,0,0,1,1.81,0,1,1,0,0,1,.37.77Zm16.17,0a1,1,0,0,1-.37.77,1.37,1.37,0,0,1-.91.32,1.34,1.34,0,0,1-.9-.32,1,1,0,0,1-.13-1.41,1.59,1.59,0,0,1,.13-.13A1.39,1.39,0,0,1,163,56a1.37,1.37,0,0,1,.91.32,1,1,0,0,1,.33.74Zm16.17,0a1,1,0,0,1-.37.77,1.39,1.39,0,0,1-.91.32,1.34,1.34,0,0,1-.9-.32,1,1,0,0,1-.13-1.41l.13-.13a1.4,1.4,0,0,1,.9-.32,1.44,1.44,0,0,1,.91.32,1,1,0,0,1,.37.77ZM2.56,71.05a.9.9,0,0,1-.09.43,1,1,0,0,1-.27.37,1.38,1.38,0,0,1-.42.25,1.69,1.69,0,0,1-.5.08,1.69,1.69,0,0,1-.5-.08,1.51,1.51,0,0,1-.42-.25,1,1,0,0,1-.27-.37.95.95,0,0,1,.3-1.17,1.43,1.43,0,0,1,1.78,0A1,1,0,0,1,2.56,71.05Zm16.17,0a1,1,0,0,1-.38.77,1.34,1.34,0,0,1-.9.32,1.39,1.39,0,0,1-.91-.32,1,1,0,0,1-.13-1.41.8.8,0,0,1,.13-.13,1.44,1.44,0,0,1,1.81,0A1,1,0,0,1,18.73,71.05Zm16.16,0a1,1,0,0,1-.37.77,1.43,1.43,0,0,1-1.81,0,1,1,0,0,1-.13-1.41.8.8,0,0,1,.13-.13,1.43,1.43,0,0,1,1.81,0A1,1,0,0,1,34.89,71.05Zm16.17,0a1,1,0,0,1-.37.77,1.37,1.37,0,0,1-.91.32,1.34,1.34,0,0,1-.9-.32,1,1,0,0,1-.13-1.41.8.8,0,0,1,.13-.13,1.4,1.4,0,0,1,.9-.32,1.37,1.37,0,0,1,.91.32A1,1,0,0,1,51.06,71.05Zm16.17,0a1,1,0,0,1-.37.77,1.37,1.37,0,0,1-.91.32,1.34,1.34,0,0,1-.9-.32,1,1,0,0,1-.13-1.41.8.8,0,0,1,.13-.13A1.35,1.35,0,0,1,66,70a1.37,1.37,0,0,1,.91.32A1,1,0,0,1,67.23,71.05Zm16.17,0a1.06,1.06,0,0,1-.08.43,1.13,1.13,0,0,1-.28.37,1.38,1.38,0,0,1-.42.25,1.56,1.56,0,0,1-1,0,1.51,1.51,0,0,1-.42-.25,1.05,1.05,0,0,1-.36-.8,1,1,0,0,1,.39-.74,1.44,1.44,0,0,1,1.78,0A1,1,0,0,1,83.4,71.05Zm16.17,0a1.05,1.05,0,0,1-.36.8,1.38,1.38,0,0,1-.42.25,1.56,1.56,0,0,1-1,0,1.51,1.51,0,0,1-.42-.25,1,1,0,0,1-.27-.37.95.95,0,0,1,.3-1.17,1.44,1.44,0,0,1,1.78,0A1,1,0,0,1,99.57,71.05Zm16.17,0a1,1,0,0,1-.38.77,1.34,1.34,0,0,1-.9.32,1.39,1.39,0,0,1-.91-.32,1,1,0,0,1-.13-1.41.8.8,0,0,1,.13-.13,1.44,1.44,0,0,1,1.81,0A1,1,0,0,1,115.74,71.05Zm16.16,0a1,1,0,0,1-.37.77,1.43,1.43,0,0,1-1.81,0,1,1,0,0,1-.13-1.41.8.8,0,0,1,.13-.13,1.43,1.43,0,0,1,1.81,0A1,1,0,0,1,131.9,71.05Zm16.17,0a1,1,0,0,1-.37.77,1.43,1.43,0,0,1-1.81,0,1,1,0,0,1-.13-1.41l.13-.13a1.43,1.43,0,0,1,1.81,0,1,1,0,0,1,.37.77Zm16.17,0a1,1,0,0,1-.37.77,1.37,1.37,0,0,1-.91.32,1.34,1.34,0,0,1-.9-.32,1,1,0,0,1-.13-1.41.8.8,0,0,1,.13-.13A1.33,1.33,0,0,1,163,70a1.37,1.37,0,0,1,.91.32,1,1,0,0,1,.33.73Zm16.17,0a1,1,0,0,1-.37.77,1.39,1.39,0,0,1-.91.32,1.34,1.34,0,0,1-.9-.32,1,1,0,0,1-.13-1.41.8.8,0,0,1,.13-.13,1.4,1.4,0,0,1,.9-.32,1.44,1.44,0,0,1,.91.32,1,1,0,0,1,.37.77ZM2.56,85a1,1,0,0,1-.38.78,1.4,1.4,0,0,1-.9.32,1.44,1.44,0,0,1-.91-.32A1,1,0,0,1,0,85a1,1,0,0,1,.37-.77A1.4,1.4,0,0,1,1.28,84a1.4,1.4,0,0,1,.9.32A1,1,0,0,1,2.56,85Zm16.17,0a1,1,0,0,1-.1.42,1.25,1.25,0,0,1-.28.36,1.27,1.27,0,0,1-.41.23,1.36,1.36,0,0,1-.49.08A1.18,1.18,0,0,1,17,86a1.1,1.1,0,0,1-.42-.24.94.94,0,0,1-.27-.35.87.87,0,0,1-.1-.42,1,1,0,0,1,.37-.77,1.44,1.44,0,0,1,.91-.32,1.4,1.4,0,0,1,.9.32A1,1,0,0,1,18.73,85Zm16.16,0a1,1,0,0,1-.09.42,1.25,1.25,0,0,1-.28.36,1.46,1.46,0,0,1-1.81,0,1,1,0,0,1-.13-1.41.8.8,0,0,1,.13-.13,1.43,1.43,0,0,1,1.81,0A1,1,0,0,1,34.89,85Zm16.17,0a.87.87,0,0,1-.1.42,1.07,1.07,0,0,1-.27.36,1.38,1.38,0,0,1-.91.31,1.34,1.34,0,0,1-.9-.32,1,1,0,0,1-.13-1.41.8.8,0,0,1,.13-.13,1.4,1.4,0,0,1,.9-.32,1.44,1.44,0,0,1,.91.32A1,1,0,0,1,51.06,85Zm16.17,0a.87.87,0,0,1-.1.42,1.22,1.22,0,0,1-.27.36,1.32,1.32,0,0,1-.42.23,1.18,1.18,0,0,1-.49.08,1.36,1.36,0,0,1-.49-.08,1.14,1.14,0,0,1-.41-.24,1,1,0,0,1-.28-.35,1,1,0,0,1-.1-.42,1,1,0,0,1,.38-.77A1.4,1.4,0,0,1,66,84a1.44,1.44,0,0,1,.91.32,1,1,0,0,1,.37.77ZM83.4,85a1,1,0,0,1-.38.78,1.42,1.42,0,0,1-1.8,0,1,1,0,0,1,0-1.55,1.44,1.44,0,0,1,1.8,0A1,1,0,0,1,83.4,85Zm16.17,0a1,1,0,0,1-.38.78,1.4,1.4,0,0,1-.9.32,1.44,1.44,0,0,1-.91-.32A1,1,0,0,1,97,85a1,1,0,0,1,.37-.77,1.44,1.44,0,0,1,.91-.32,1.4,1.4,0,0,1,.9.32A1,1,0,0,1,99.57,85Zm16.17,0a1,1,0,0,1-.1.42,1.25,1.25,0,0,1-.28.36A1.27,1.27,0,0,1,115,86a1.36,1.36,0,0,1-.49.08A1.18,1.18,0,0,1,114,86a1.1,1.1,0,0,1-.42-.24.94.94,0,0,1-.27-.35.87.87,0,0,1-.1-.42,1,1,0,0,1,.37-.77,1.44,1.44,0,0,1,.91-.32,1.4,1.4,0,0,1,.9.32A1,1,0,0,1,115.74,85Zm16.16,0a1,1,0,0,1-.09.42,1.25,1.25,0,0,1-.28.36,1.32,1.32,0,0,1-.42.23,1.18,1.18,0,0,1-.49.08,1.36,1.36,0,0,1-.49-.08,1.14,1.14,0,0,1-.41-.24,1.35,1.35,0,0,1-.28-.35,1,1,0,0,1-.09-.42,1,1,0,0,1,.37-.77,1.43,1.43,0,0,1,1.81,0,1,1,0,0,1,.37.77Zm16.17,0a1,1,0,0,1-.37.78,1.44,1.44,0,0,1-.91.32,1.35,1.35,0,0,1-.9-.33,1,1,0,0,1-.38-.77,1.23,1.23,0,0,1,.1-.42,1.35,1.35,0,0,1,.28-.35,1.52,1.52,0,0,1,.41-.24,1.54,1.54,0,0,1,1,0,1.58,1.58,0,0,1,.42.24,1.17,1.17,0,0,1,.28.35,1,1,0,0,1,.09.42Zm16.17,0a1,1,0,0,1-.37.78,1.38,1.38,0,0,1-.91.31,1.34,1.34,0,0,1-.9-.32,1,1,0,0,1-.13-1.41.8.8,0,0,1,.13-.13A1.43,1.43,0,0,1,163,84a1.44,1.44,0,0,1,.91.32,1,1,0,0,1,.33.68Zm16.17,0a.87.87,0,0,1-.1.42,1.09,1.09,0,0,1-.28.36,1.27,1.27,0,0,1-.41.23,1.36,1.36,0,0,1-.49.08,1.18,1.18,0,0,1-.49-.08,1.14,1.14,0,0,1-.41-.24,1,1,0,0,1-.28-.35.87.87,0,0,1-.1-.42.9.9,0,0,1,.1-.42,1.06,1.06,0,0,1,.28-.35,1.52,1.52,0,0,1,.41-.24,1.56,1.56,0,0,1,1,0,1.76,1.76,0,0,1,.42.24,1.31,1.31,0,0,1,.27.35.88.88,0,0,1,.08.42ZM2.56,99a1,1,0,0,1-.38.78,1.4,1.4,0,0,1-.9.32,1.44,1.44,0,0,1-.91-.32A1,1,0,0,1,0,99a1,1,0,0,1,.37-.77,1.44,1.44,0,0,1,.91-.32,1.4,1.4,0,0,1,.9.32A1,1,0,0,1,2.56,99Zm16.17,0a1,1,0,0,1-.38.78,1.4,1.4,0,0,1-.9.32,1.44,1.44,0,0,1-.91-.32,1,1,0,0,1-.37-.78,1,1,0,0,1,.37-.77,1.44,1.44,0,0,1,.91-.32,1.4,1.4,0,0,1,.9.32A1,1,0,0,1,18.73,99Zm16.16,0a1,1,0,0,1-.37.78,1.43,1.43,0,0,1-1.81,0,1,1,0,0,1-.37-.78,1,1,0,0,1,.37-.77,1.43,1.43,0,0,1,1.81,0A1,1,0,0,1,34.89,99Zm16.17,0a1,1,0,0,1-.37.78,1.44,1.44,0,0,1-.91.32,1.4,1.4,0,0,1-.9-.32,1,1,0,0,1,0-1.55,1.4,1.4,0,0,1,.9-.32,1.44,1.44,0,0,1,.91.32A1,1,0,0,1,51.06,99Zm16.17,0a1,1,0,0,1-.37.78,1.44,1.44,0,0,1-.91.32,1.4,1.4,0,0,1-.9-.32,1,1,0,0,1,0-1.55,1.4,1.4,0,0,1,.9-.32,1.44,1.44,0,0,1,.91.32A1,1,0,0,1,67.23,99ZM83.4,99a1,1,0,0,1-.38.78,1.42,1.42,0,0,1-1.8,0,1,1,0,0,1,0-1.55,1.44,1.44,0,0,1,1.8,0A1,1,0,0,1,83.4,99Zm16.17,0a1,1,0,0,1-.38.78,1.4,1.4,0,0,1-.9.32,1.44,1.44,0,0,1-.91-.32A1,1,0,0,1,97,99a1,1,0,0,1,.37-.77,1.44,1.44,0,0,1,.91-.32,1.4,1.4,0,0,1,.9.32A1,1,0,0,1,99.57,99Zm16.17,0a1,1,0,0,1-.38.78,1.4,1.4,0,0,1-.9.32,1.44,1.44,0,0,1-.91-.32,1,1,0,0,1-.37-.78,1,1,0,0,1,.37-.77,1.44,1.44,0,0,1,.91-.32,1.4,1.4,0,0,1,.9.32A1,1,0,0,1,115.74,99Zm16.16,0a1,1,0,0,1-.37.78,1.43,1.43,0,0,1-1.81,0,1,1,0,0,1-.37-.78,1,1,0,0,1,.37-.77,1.43,1.43,0,0,1,1.81,0A1,1,0,0,1,131.9,99Zm16.17,0a1,1,0,0,1-.37.78,1.44,1.44,0,0,1-.91.32,1.4,1.4,0,0,1-.9-.32,1,1,0,0,1,0-1.55,1.4,1.4,0,0,1,.9-.32,1.44,1.44,0,0,1,.91.32,1,1,0,0,1,.37.77Zm16.17,0a1,1,0,0,1-.37.78,1.44,1.44,0,0,1-.91.32,1.4,1.4,0,0,1-.9-.32,1,1,0,0,1,0-1.55,1.4,1.4,0,0,1,.9-.32,1.44,1.44,0,0,1,.91.32,1,1,0,0,1,.37.77Zm16.17,0a1.07,1.07,0,0,1-.37.78,1.44,1.44,0,0,1-.91.32,1.4,1.4,0,0,1-.9-.32,1,1,0,0,1,0-1.55,1.4,1.4,0,0,1,.9-.32,1.44,1.44,0,0,1,.91.32,1,1,0,0,1,.37.77ZM2.56,113a1,1,0,0,1-.09.43,1,1,0,0,1-.27.36,1.12,1.12,0,0,1-.42.25,1.43,1.43,0,0,1-1,0,1.2,1.2,0,0,1-.42-.25,1,1,0,0,1-.27-.36A1,1,0,0,1,0,113a1,1,0,0,1,.39-.75,1.43,1.43,0,0,1,1.78,0A1,1,0,0,1,2.56,113Zm16.17,0a1,1,0,0,1-.38.77,1.4,1.4,0,0,1-.9.32,1.44,1.44,0,0,1-.91-.32,1,1,0,0,1-.37-.77,1,1,0,0,1,.37-.78,1.44,1.44,0,0,1,.91-.32,1.4,1.4,0,0,1,.9.32A1,1,0,0,1,18.73,113Zm16.16,0a1,1,0,0,1-.37.77,1.43,1.43,0,0,1-1.81,0,1,1,0,0,1-.37-.77,1,1,0,0,1,.37-.78,1.43,1.43,0,0,1,1.81,0A1,1,0,0,1,34.89,113Zm16.17,0a1,1,0,0,1-.37.77,1.44,1.44,0,0,1-.91.32,1.4,1.4,0,0,1-.9-.32,1,1,0,0,1-.37-.77,1,1,0,0,1,.37-.78,1.4,1.4,0,0,1,.9-.32,1.44,1.44,0,0,1,.91.32A1,1,0,0,1,51.06,113Zm16.17,0a1,1,0,0,1-.37.77,1.44,1.44,0,0,1-.91.32,1.4,1.4,0,0,1-.9-.32,1,1,0,0,1-.38-.77,1,1,0,0,1,.38-.78,1.4,1.4,0,0,1,.9-.32,1.44,1.44,0,0,1,.91.32A1,1,0,0,1,67.23,113Zm16.17,0a1.06,1.06,0,0,1-.08.43,1.09,1.09,0,0,1-.28.36,1.12,1.12,0,0,1-.42.25,1.43,1.43,0,0,1-1,0,1.2,1.2,0,0,1-.42-.25,1,1,0,0,1-.27-.36,1,1,0,0,1-.09-.43,1.07,1.07,0,0,1,.39-.75,1.44,1.44,0,0,1,1.78,0A1,1,0,0,1,83.4,113Zm16.17,0a1,1,0,0,1-.09.43,1,1,0,0,1-.27.36,1.12,1.12,0,0,1-.42.25,1.43,1.43,0,0,1-1,0,1.2,1.2,0,0,1-.42-.25,1,1,0,0,1-.27-.36A1,1,0,0,1,97,113a1,1,0,0,1,.39-.75,1.44,1.44,0,0,1,1.78,0A1.12,1.12,0,0,1,99.57,113Zm16.17,0a1,1,0,0,1-.38.77,1.4,1.4,0,0,1-.9.32,1.44,1.44,0,0,1-.91-.32,1,1,0,0,1-.37-.77,1,1,0,0,1,.37-.78,1.44,1.44,0,0,1,.91-.32,1.4,1.4,0,0,1,.9.32A1,1,0,0,1,115.74,113Zm16.16,0a1,1,0,0,1-.37.77,1.43,1.43,0,0,1-1.81,0,1,1,0,0,1-.37-.77,1,1,0,0,1,.37-.78,1.43,1.43,0,0,1,1.81,0A1,1,0,0,1,131.9,113Zm16.17,0a1,1,0,0,1-.37.77,1.43,1.43,0,0,1-1.81,0,1,1,0,0,1-.37-.77,1,1,0,0,1,.37-.78,1.43,1.43,0,0,1,1.81,0,1,1,0,0,1,.37.78Zm16.17,0a1,1,0,0,1-.37.77,1.44,1.44,0,0,1-.91.32,1.4,1.4,0,0,1-.9-.32,1,1,0,0,1-.38-.77,1,1,0,0,1,.38-.78,1.4,1.4,0,0,1,.9-.32,1.44,1.44,0,0,1,.91.32,1,1,0,0,1,.37.78Zm16.17,0a1,1,0,0,1-.37.77,1.44,1.44,0,0,1-.91.32,1.4,1.4,0,0,1-.9-.32,1,1,0,0,1-.38-.77,1,1,0,0,1,.38-.78,1.4,1.4,0,0,1,.9-.32,1.44,1.44,0,0,1,.91.32,1.07,1.07,0,0,1,.37.78ZM2.56,127a1,1,0,0,1-.09.43,1.11,1.11,0,0,1-.27.37,1.18,1.18,0,0,1-.42.24,1.43,1.43,0,0,1-1,0,1.18,1.18,0,0,1-.42-.24,1,1,0,0,1-.27-.37A1,1,0,0,1,0,127a1,1,0,0,1,.39-.75,1.51,1.51,0,0,1,.89-.3,1.37,1.37,0,0,1,.89.3A1.15,1.15,0,0,1,2.56,127Zm16.17,0a1,1,0,0,1-.38.77,1.4,1.4,0,0,1-.9.32,1.44,1.44,0,0,1-.91-.32,1,1,0,0,1,0-1.54,1.44,1.44,0,0,1,1.81,0A1,1,0,0,1,18.73,127Zm16.16,0a1,1,0,0,1-.37.77,1.43,1.43,0,0,1-1.81,0,1,1,0,0,1,0-1.54,1.43,1.43,0,0,1,1.81,0A1,1,0,0,1,34.89,127Zm16.17,0a1,1,0,0,1-.37.77,1.44,1.44,0,0,1-.91.32,1.4,1.4,0,0,1-.9-.32,1,1,0,0,1,0-1.54,1.4,1.4,0,0,1,.9-.32,1.37,1.37,0,0,1,.91.32A1,1,0,0,1,51.06,127Zm16.17,0a1,1,0,0,1-.37.77,1.44,1.44,0,0,1-.91.32,1.4,1.4,0,0,1-.9-.32,1,1,0,0,1,0-1.54,1.4,1.4,0,0,1,.9-.32,1.37,1.37,0,0,1,.91.32A1,1,0,0,1,67.23,127Zm16.17,0a1.06,1.06,0,0,1-.08.43,1.44,1.44,0,0,1-.28.37,1.18,1.18,0,0,1-.42.24,1.43,1.43,0,0,1-1,0,1.18,1.18,0,0,1-.42-.24,1.05,1.05,0,0,1-.36-.8,1,1,0,0,1,.39-.75,1.51,1.51,0,0,1,.89-.3,1.37,1.37,0,0,1,.89.3A1,1,0,0,1,83.4,127Zm16.17,0a1,1,0,0,1-.09.43,1.11,1.11,0,0,1-.27.37,1.18,1.18,0,0,1-.42.24,1.43,1.43,0,0,1-1,0,1.18,1.18,0,0,1-.42-.24,1,1,0,0,1-.27-.37A.91.91,0,0,1,97,127a1,1,0,0,1,.39-.75,1.51,1.51,0,0,1,.89-.3,1.37,1.37,0,0,1,.89.3A1.12,1.12,0,0,1,99.57,127Zm16.17,0a1,1,0,0,1-.38.77,1.4,1.4,0,0,1-.9.32,1.44,1.44,0,0,1-.91-.32,1,1,0,0,1,0-1.54,1.44,1.44,0,0,1,1.81,0A1,1,0,0,1,115.74,127Zm16.16,0a1,1,0,0,1-.37.77,1.43,1.43,0,0,1-1.81,0,1,1,0,0,1,0-1.54,1.43,1.43,0,0,1,1.81,0A1,1,0,0,1,131.9,127Zm16.17,0a1,1,0,0,1-.37.77,1.43,1.43,0,0,1-1.81,0,1,1,0,0,1,0-1.54,1.43,1.43,0,0,1,1.81,0,1,1,0,0,1,.37.77Zm16.17,0a1,1,0,0,1-.37.77,1.44,1.44,0,0,1-.91.32,1.4,1.4,0,0,1-.9-.32,1,1,0,0,1,0-1.54,1.4,1.4,0,0,1,.9-.32,1.37,1.37,0,0,1,.91.32,1,1,0,0,1,.37.77Zm16.17,0a1,1,0,0,1-.37.77,1.44,1.44,0,0,1-.91.32,1.4,1.4,0,0,1-.9-.32,1,1,0,0,1,0-1.54,1.4,1.4,0,0,1,.9-.32,1.44,1.44,0,0,1,.91.32,1,1,0,0,1,.37.77ZM2.56,141a.9.9,0,0,1-.09.43,1,1,0,0,1-.27.37,1.18,1.18,0,0,1-.42.24,1.43,1.43,0,0,1-1,0,1.18,1.18,0,0,1-.42-.24,1,1,0,0,1-.27-.37A1,1,0,0,1,0,141a1,1,0,0,1,.39-.75,1.51,1.51,0,0,1,.89-.3,1.49,1.49,0,0,1,.89.3A1.15,1.15,0,0,1,2.56,141Zm16.17,0a1,1,0,0,1-.38.77,1.34,1.34,0,0,1-.9.32,1.39,1.39,0,0,1-.91-.32,1,1,0,0,1-.13-1.41l.13-.13a1.44,1.44,0,0,1,1.81,0A1,1,0,0,1,18.73,141Zm16.16,0a1,1,0,0,1-.37.77,1.43,1.43,0,0,1-1.81,0,1,1,0,0,1-.13-1.41l.13-.13a1.43,1.43,0,0,1,1.81,0A1,1,0,0,1,34.89,141Zm16.17,0a1,1,0,0,1-.37.77,1.37,1.37,0,0,1-.91.32,1.34,1.34,0,0,1-.9-.32,1,1,0,0,1-.13-1.41l.13-.13a1.4,1.4,0,0,1,.9-.32,1.37,1.37,0,0,1,.91.32A1,1,0,0,1,51.06,141Zm16.17,0a1,1,0,0,1-.37.77,1.37,1.37,0,0,1-.91.32,1.34,1.34,0,0,1-.9-.32,1,1,0,0,1-.13-1.41l.13-.13a1.4,1.4,0,0,1,.9-.32,1.37,1.37,0,0,1,.91.32A1,1,0,0,1,67.23,141Zm16.17,0a1.06,1.06,0,0,1-.08.43,1.18,1.18,0,0,1-.7.61,1.43,1.43,0,0,1-1,0,1.18,1.18,0,0,1-.42-.24,1.05,1.05,0,0,1-.36-.8,1,1,0,0,1,.39-.75,1.47,1.47,0,0,1,1.78,0A1,1,0,0,1,83.4,141Zm16.17,0a.9.9,0,0,1-.09.43,1,1,0,0,1-.27.37,1.18,1.18,0,0,1-.42.24,1.43,1.43,0,0,1-1,0,1.18,1.18,0,0,1-.42-.24,1,1,0,0,1-.27-.37A.91.91,0,0,1,97,141a1,1,0,0,1,.39-.75,1.47,1.47,0,0,1,1.78,0A1.12,1.12,0,0,1,99.57,141Zm16.17,0a1,1,0,0,1-.38.77,1.34,1.34,0,0,1-.9.32,1.39,1.39,0,0,1-.91-.32,1,1,0,0,1-.13-1.41l.13-.13a1.44,1.44,0,0,1,1.81,0A1,1,0,0,1,115.74,141Zm16.16,0a1,1,0,0,1-.37.77,1.43,1.43,0,0,1-1.81,0,1,1,0,0,1-.13-1.41l.13-.13a1.43,1.43,0,0,1,1.81,0A1,1,0,0,1,131.9,141Zm16.17,0a1,1,0,0,1-.37.77,1.43,1.43,0,0,1-1.81,0,1,1,0,0,1-.13-1.41l.13-.13a1.43,1.43,0,0,1,1.81,0,1,1,0,0,1,.37.77Zm16.17,0a1,1,0,0,1-.37.77,1.37,1.37,0,0,1-.91.32,1.34,1.34,0,0,1-.9-.32,1,1,0,0,1-.13-1.41l.13-.13a1.4,1.4,0,0,1,.9-.32,1.37,1.37,0,0,1,.91.32,1,1,0,0,1,.37.77Zm16.17,0a1,1,0,0,1-.37.77,1.39,1.39,0,0,1-.91.32,1.34,1.34,0,0,1-.9-.32,1,1,0,0,1-.13-1.41l.13-.13a1.4,1.4,0,0,1,.9-.32,1.44,1.44,0,0,1,.91.32,1,1,0,0,1,.37.77Z"/></g></g></svg>