<svg id="Layer_1" data-name="Layer 1" xmlns="http://www.w3.org/2000/svg" viewBox="0 0 613.38 454.45"><defs><style>.cls-1,.cls-4{fill:none;stroke-miterlimit:50;stroke-width:2px;}.cls-1{stroke:#5ce9c9;}.cls-2{fill:#5ce9c9;}.cls-3{fill:#3102a8;stroke-miterlimit:10;}.cls-3,.cls-4{stroke:#0a192f;}</style></defs><path class="cls-1" d="M45,215.63l9.6,8.47,9.4-8.63,9.6,8.47,9.4-8.63,9.59,8.47,9.41-8.62,9.59,8.46L121,215"/><path class="cls-2" d="M2.56,1.09a1,1,0,0,1-.38.77,1.36,1.36,0,0,1-.9.32,1.38,1.38,0,0,1-.91-.32A1,1,0,0,1,0,1.09,1,1,0,0,1,.37.32,1.44,1.44,0,0,1,1.28,0a1.41,1.41,0,0,1,.9.32A1,1,0,0,1,2.56,1.09Zm16.17,0a1,1,0,0,1-.38.77,1.36,1.36,0,0,1-.9.32,1.38,1.38,0,0,1-.91-.32,1,1,0,0,1-.37-.77,1,1,0,0,1,.37-.77A1.44,1.44,0,0,1,17.45,0a1.41,1.41,0,0,1,.9.32A1,1,0,0,1,18.73,1.09Zm16.16,0a1,1,0,0,1-.37.77,1.44,1.44,0,0,1-1.81,0,1,1,0,0,1-.37-.77,1,1,0,0,1,.37-.77,1.44,1.44,0,0,1,1.81,0A1,1,0,0,1,34.89,1.09Zm16.17,0a1,1,0,0,1-.37.77,1.38,1.38,0,0,1-.91.32,1.36,1.36,0,0,1-.9-.32,1,1,0,0,1-.38-.77,1,1,0,0,1,.38-.77,1.41,1.41,0,0,1,.9-.32,1.44,1.44,0,0,1,.91.32A1,1,0,0,1,51.06,1.09Zm16.17,0a1,1,0,0,1-.37.77,1.38,1.38,0,0,1-.91.32,1.36,1.36,0,0,1-.9-.32,1,1,0,0,1-.38-.77,1,1,0,0,1,.38-.77A1.41,1.41,0,0,1,66,0a1.44,1.44,0,0,1,.91.32A1,1,0,0,1,67.23,1.09Zm16.17,0a1,1,0,0,1-.38.77,1.43,1.43,0,0,1-1.8,0,1,1,0,0,1-.38-.77,1,1,0,0,1,.38-.77,1.43,1.43,0,0,1,1.8,0A1,1,0,0,1,83.4,1.09Zm16.17,0a1,1,0,0,1-.38.77,1.36,1.36,0,0,1-.9.32,1.38,1.38,0,0,1-.91-.32A1,1,0,0,1,97,1.09a1,1,0,0,1,.37-.77A1.44,1.44,0,0,1,98.29,0a1.41,1.41,0,0,1,.9.32A1,1,0,0,1,99.57,1.09Zm16.17,0a1,1,0,0,1-.38.77,1.36,1.36,0,0,1-.9.32,1.38,1.38,0,0,1-.91-.32,1,1,0,0,1-.37-.77,1,1,0,0,1,.37-.77,1.44,1.44,0,0,1,.91-.32,1.41,1.41,0,0,1,.9.32A1,1,0,0,1,115.74,1.09Zm16.16,0a1,1,0,0,1-.37.77,1.44,1.44,0,0,1-1.81,0,1,1,0,0,1-.37-.77,1,1,0,0,1,.37-.77,1.44,1.44,0,0,1,1.81,0A1,1,0,0,1,131.9,1.09Zm16.17,0a1,1,0,0,1-.37.78,1.44,1.44,0,0,1-.91.32,1.41,1.41,0,0,1-.9-.32,1,1,0,0,1-.38-.78,1,1,0,0,1,.38-.77,1.41,1.41,0,0,1,.9-.32,1.44,1.44,0,0,1,.91.32A1,1,0,0,1,148.07,1.09Zm16.17,0a1,1,0,0,1-.37.77,1.38,1.38,0,0,1-.91.32,1.36,1.36,0,0,1-.9-.32,1,1,0,0,1-.38-.77,1,1,0,0,1,.38-.77A1.41,1.41,0,0,1,163,0a1.44,1.44,0,0,1,.91.32A1,1,0,0,1,164.24,1.09Zm16.17,0a1,1,0,0,1-.37.77,1.4,1.4,0,0,1-.91.32,1.36,1.36,0,0,1-.9-.32,1,1,0,0,1-.38-.77,1,1,0,0,1,.38-.77,1.41,1.41,0,0,1,.9-.32,1.46,1.46,0,0,1,.91.32A1.05,1.05,0,0,1,180.41,1.09ZM2.56,15.08a1,1,0,0,1-.38.78,1.41,1.41,0,0,1-.9.32,1.44,1.44,0,0,1-.91-.32,1,1,0,0,1,0-1.55A1.44,1.44,0,0,1,1.28,14a1.41,1.41,0,0,1,.9.32A1,1,0,0,1,2.56,15.08Zm16.17,0a1,1,0,0,1-.1.42,1.09,1.09,0,0,1-.28.36,1.27,1.27,0,0,1-.41.23,1.41,1.41,0,0,1-.49.09,1.33,1.33,0,0,1-.49-.09,1.22,1.22,0,0,1-.42-.23,1.14,1.14,0,0,1-.27-.36.87.87,0,0,1-.1-.42,1,1,0,0,1,.37-.77,1.44,1.44,0,0,1,.91-.32,1.41,1.41,0,0,1,.9.32A1,1,0,0,1,18.73,15.08Zm16.16,0a1,1,0,0,1-.09.42,1.09,1.09,0,0,1-.28.36,1.22,1.22,0,0,1-.42.23,1.33,1.33,0,0,1-.49.09,1.32,1.32,0,0,1-.48-.09,1.22,1.22,0,0,1-.42-.23,1.21,1.21,0,0,1-.28-.36,1,1,0,0,1-.09-.42,1,1,0,0,1,.37-.77,1.44,1.44,0,0,1,1.81,0A1,1,0,0,1,34.89,15.08Zm16.17,0a1,1,0,0,1-.37.78,1.44,1.44,0,0,1-.91.32,1.41,1.41,0,0,1-.9-.32,1,1,0,0,1-.38-.78,1,1,0,0,1,.38-.77,1.41,1.41,0,0,1,.9-.32,1.44,1.44,0,0,1,.91.32,1,1,0,0,1,.37.77Zm16.17,0a.87.87,0,0,1-.1.42,1.07,1.07,0,0,1-.27.36,1.22,1.22,0,0,1-.42.23,1.33,1.33,0,0,1-.49.09,1.37,1.37,0,0,1-.49-.09,1.27,1.27,0,0,1-.41-.23,1.07,1.07,0,0,1-.28-.36,1,1,0,0,1-.1-.42,1,1,0,0,1,.38-.77A1.41,1.41,0,0,1,66,14a1.44,1.44,0,0,1,.91.32,1,1,0,0,1,.37.77Zm16.17,0a1,1,0,0,1-.38.78,1.43,1.43,0,0,1-1.8,0,1,1,0,0,1,0-1.55,1.43,1.43,0,0,1,1.8,0A1,1,0,0,1,83.4,15.08Zm16.17,0a1,1,0,0,1-.38.78,1.41,1.41,0,0,1-.9.32,1.44,1.44,0,0,1-.91-.32,1,1,0,0,1,0-1.55,1.44,1.44,0,0,1,.91-.32,1.41,1.41,0,0,1,.9.32A1,1,0,0,1,99.57,15.08Zm16.17,0a1,1,0,0,1-.38.78,1.41,1.41,0,0,1-.9.32,1.44,1.44,0,0,1-.91-.32,1,1,0,0,1-.37-.78,1,1,0,0,1,.37-.77,1.44,1.44,0,0,1,.91-.32,1.41,1.41,0,0,1,.9.32A1,1,0,0,1,115.74,15.08Zm16.16,0a1,1,0,0,1-.37.78,1.44,1.44,0,0,1-1.81,0,1,1,0,0,1-.37-.78,1,1,0,0,1,.37-.77,1.44,1.44,0,0,1,1.81,0,1,1,0,0,1,.37.77Zm16.17,0a1,1,0,0,1-.37.78,1.44,1.44,0,0,1-.91.32,1.41,1.41,0,0,1-.9-.32,1,1,0,0,1-.38-.78,1,1,0,0,1,.38-.77,1.41,1.41,0,0,1,.9-.32,1.44,1.44,0,0,1,.91.32A1,1,0,0,1,148.07,15.08Zm16.17,0a.87.87,0,0,1-.1.42,1,1,0,0,1-.27.36,1.22,1.22,0,0,1-.42.23,1.33,1.33,0,0,1-.49.09,1.37,1.37,0,0,1-.49-.09,1.27,1.27,0,0,1-.41-.23,1.35,1.35,0,0,1-.28-.36,1,1,0,0,1-.1-.42,1,1,0,0,1,.38-.77A1.41,1.41,0,0,1,163,14a1.44,1.44,0,0,1,.91.32A1,1,0,0,1,164.24,15.08Zm16.17,0a1,1,0,0,1-.38.78,1.41,1.41,0,0,1-.9.32,1.39,1.39,0,0,1-.9-.32,1,1,0,0,1-.38-.78,1,1,0,0,1,.38-.77,1.41,1.41,0,0,1,.9-.32,1.46,1.46,0,0,1,.91.32A1.07,1.07,0,0,1,180.41,15.08ZM2.56,29.08a1,1,0,0,1-.09.43,1,1,0,0,1-.27.36,1.27,1.27,0,0,1-.42.25,1.43,1.43,0,0,1-1,0,1.27,1.27,0,0,1-.42-.25,1,1,0,0,1-.27-.36A1,1,0,0,1,0,29.08a1,1,0,0,1,.39-.75A1.4,1.4,0,0,1,1.28,28a1.4,1.4,0,0,1,.89.31A1.09,1.09,0,0,1,2.56,29.08Zm16.17,0a1,1,0,0,1-.38.77,1.41,1.41,0,0,1-.9.32,1.44,1.44,0,0,1-.91-.32,1,1,0,0,1-.37-.77,1,1,0,0,1,.37-.78,1.44,1.44,0,0,1,.91-.32,1.41,1.41,0,0,1,.9.32A1,1,0,0,1,18.73,29.08Zm16.16,0a1,1,0,0,1-.37.77,1.44,1.44,0,0,1-1.81,0,1,1,0,0,1-.37-.77,1,1,0,0,1,.37-.78,1.44,1.44,0,0,1,1.81,0A1,1,0,0,1,34.89,29.08Zm16.17,0a1,1,0,0,1-.37.77,1.44,1.44,0,0,1-.91.32,1.41,1.41,0,0,1-.9-.32,1,1,0,0,1-.37-.77,1,1,0,0,1,.37-.78,1.41,1.41,0,0,1,.9-.32,1.44,1.44,0,0,1,.91.32A1,1,0,0,1,51.06,29.08Zm16.17,0a1,1,0,0,1-.37.77,1.44,1.44,0,0,1-.91.32,1.41,1.41,0,0,1-.9-.32,1,1,0,0,1-.38-.77,1,1,0,0,1,.38-.78A1.41,1.41,0,0,1,66,28a1.44,1.44,0,0,1,.91.32A1,1,0,0,1,67.23,29.08Zm16.17,0a1.09,1.09,0,0,1-.08.43,1.21,1.21,0,0,1-.28.36,1.27,1.27,0,0,1-.42.25,1.43,1.43,0,0,1-1,0,1.27,1.27,0,0,1-.42-.25,1,1,0,0,1-.27-.36,1.11,1.11,0,0,1-.09-.43,1,1,0,0,1,.39-.75,1.43,1.43,0,0,1,1.78,0A1,1,0,0,1,83.4,29.08Zm16.17,0a1,1,0,0,1-.09.43,1,1,0,0,1-.27.36,1.27,1.27,0,0,1-.42.25,1.43,1.43,0,0,1-1,0,1.27,1.27,0,0,1-.42-.25,1,1,0,0,1-.27-.36,1,1,0,0,1-.09-.43,1,1,0,0,1,.39-.75,1.43,1.43,0,0,1,1.78,0A1.09,1.09,0,0,1,99.57,29.08Zm16.17,0a1,1,0,0,1-.38.77,1.41,1.41,0,0,1-.9.32,1.44,1.44,0,0,1-.91-.32,1,1,0,0,1-.37-.77,1,1,0,0,1,.37-.78,1.44,1.44,0,0,1,.91-.32,1.41,1.41,0,0,1,.9.32A1,1,0,0,1,115.74,29.08Zm16.16,0a1,1,0,0,1-.37.77,1.44,1.44,0,0,1-1.81,0,1,1,0,0,1-.37-.77,1,1,0,0,1,.37-.78,1.44,1.44,0,0,1,1.81,0A1,1,0,0,1,131.9,29.08Zm16.17,0a1,1,0,0,1-.37.77,1.44,1.44,0,0,1-1.81,0,1,1,0,0,1-.37-.77,1,1,0,0,1,.37-.78,1.44,1.44,0,0,1,1.81,0A1,1,0,0,1,148.07,29.08Zm16.17,0a1,1,0,0,1-.37.77,1.44,1.44,0,0,1-.91.32,1.41,1.41,0,0,1-.9-.32,1,1,0,0,1-.38-.77,1,1,0,0,1,.38-.78A1.41,1.41,0,0,1,163,28a1.44,1.44,0,0,1,.91.32A1,1,0,0,1,164.24,29.08Zm16.17,0a1.05,1.05,0,0,1-.37.77,1.46,1.46,0,0,1-.91.32,1.41,1.41,0,0,1-.9-.32,1,1,0,0,1-.38-.77,1,1,0,0,1,.38-.78,1.41,1.41,0,0,1,.9-.32,1.46,1.46,0,0,1,.91.32A1.07,1.07,0,0,1,180.41,29.08ZM2.56,43.07a1,1,0,0,1-.09.43,1.17,1.17,0,0,1-.27.37,1.24,1.24,0,0,1-.42.24,1.43,1.43,0,0,1-1,0,1.24,1.24,0,0,1-.42-.24,1.07,1.07,0,0,1-.27-.37A.92.92,0,0,1,0,43.07a1,1,0,0,1,.39-.75,1.45,1.45,0,0,1,.89-.3,1.45,1.45,0,0,1,.89.3A1,1,0,0,1,2.56,43.07Zm16.17,0a1,1,0,0,1-.38.77,1.41,1.41,0,0,1-.9.32,1.44,1.44,0,0,1-.91-.32,1,1,0,0,1,0-1.54,1.38,1.38,0,0,1,.91-.32,1.36,1.36,0,0,1,.9.32A1,1,0,0,1,18.73,43.07Zm16.16,0a1,1,0,0,1-.37.77,1.44,1.44,0,0,1-1.81,0,1,1,0,0,1,0-1.54,1.44,1.44,0,0,1,1.81,0A1,1,0,0,1,34.89,43.07Zm16.17,0a1,1,0,0,1-.37.77,1.44,1.44,0,0,1-.91.32,1.41,1.41,0,0,1-.9-.32,1,1,0,0,1,0-1.54,1.36,1.36,0,0,1,.9-.32,1.38,1.38,0,0,1,.91.32A1,1,0,0,1,51.06,43.07Zm16.17,0a1,1,0,0,1-.37.77,1.44,1.44,0,0,1-.91.32,1.41,1.41,0,0,1-.9-.32,1,1,0,0,1,0-1.54A1.36,1.36,0,0,1,66,42a1.38,1.38,0,0,1,.91.32A1,1,0,0,1,67.23,43.07Zm16.17,0a1.09,1.09,0,0,1-.08.43,1.39,1.39,0,0,1-.28.37,1.24,1.24,0,0,1-.42.24,1.43,1.43,0,0,1-1,0,1.24,1.24,0,0,1-.42-.24,1,1,0,0,1,0-1.55,1.47,1.47,0,0,1,1.78,0A1,1,0,0,1,83.4,43.07Zm16.17,0a1.11,1.11,0,0,1-.09.43,1.17,1.17,0,0,1-.27.37,1.24,1.24,0,0,1-.42.24,1.43,1.43,0,0,1-1,0,1.24,1.24,0,0,1-.42-.24,1.07,1.07,0,0,1-.27-.37.92.92,0,0,1-.09-.43,1,1,0,0,1,.39-.75,1.47,1.47,0,0,1,1.78,0A1.11,1.11,0,0,1,99.57,43.07Zm16.17,0a1,1,0,0,1-.38.77,1.41,1.41,0,0,1-.9.32,1.44,1.44,0,0,1-.91-.32,1,1,0,0,1,0-1.54,1.38,1.38,0,0,1,.91-.32,1.36,1.36,0,0,1,.9.32A1,1,0,0,1,115.74,43.07Zm16.16,0a1,1,0,0,1-.37.77,1.44,1.44,0,0,1-1.81,0,1,1,0,0,1,0-1.54,1.44,1.44,0,0,1,1.81,0A1,1,0,0,1,131.9,43.07Zm16.17,0a1,1,0,0,1-.37.77,1.44,1.44,0,0,1-1.81,0,1,1,0,0,1,0-1.54,1.44,1.44,0,0,1,1.81,0A1,1,0,0,1,148.07,43.07Zm16.17,0a1,1,0,0,1-.37.77,1.44,1.44,0,0,1-.91.32,1.41,1.41,0,0,1-.9-.32,1,1,0,0,1,0-1.54A1.36,1.36,0,0,1,163,42a1.38,1.38,0,0,1,.91.32A1,1,0,0,1,164.24,43.07Zm16.17,0a1,1,0,0,1-.37.77,1.46,1.46,0,0,1-.91.32,1.41,1.41,0,0,1-.9-.32,1,1,0,0,1,0-1.54,1.36,1.36,0,0,1,.9-.32,1.4,1.4,0,0,1,.91.32A1,1,0,0,1,180.41,43.07ZM2.56,57.06a.92.92,0,0,1-.09.43,1.07,1.07,0,0,1-.27.37,1.24,1.24,0,0,1-.42.24,1.43,1.43,0,0,1-1,0,1.24,1.24,0,0,1-.42-.24,1.07,1.07,0,0,1-.27-.37A.92.92,0,0,1,0,57.06a1,1,0,0,1,.39-.75,1.45,1.45,0,0,1,.89-.3,1.45,1.45,0,0,1,.89.3A1,1,0,0,1,2.56,57.06Zm16.17,0a1,1,0,0,1-.38.77,1.36,1.36,0,0,1-.9.32,1.38,1.38,0,0,1-.91-.32,1,1,0,0,1,0-1.54,1.38,1.38,0,0,1,.91-.32,1.36,1.36,0,0,1,.9.32A1,1,0,0,1,18.73,57.06Zm16.16,0a1,1,0,0,1-.37.77,1.44,1.44,0,0,1-1.81,0,1,1,0,0,1,0-1.54,1.44,1.44,0,0,1,1.81,0A1,1,0,0,1,34.89,57.06Zm16.17,0a1,1,0,0,1-.37.77,1.38,1.38,0,0,1-.91.32,1.36,1.36,0,0,1-.9-.32,1,1,0,0,1,0-1.54,1.36,1.36,0,0,1,.9-.32,1.38,1.38,0,0,1,.91.32A1,1,0,0,1,51.06,57.06Zm16.17,0a1,1,0,0,1-.37.77,1.38,1.38,0,0,1-.91.32,1.36,1.36,0,0,1-.9-.32,1,1,0,0,1,0-1.54A1.36,1.36,0,0,1,66,56a1.38,1.38,0,0,1,.91.32A1,1,0,0,1,67.23,57.06Zm16.17,0a1.06,1.06,0,0,1-.08.43,1.18,1.18,0,0,1-.7.61,1.43,1.43,0,0,1-1,0,1.24,1.24,0,0,1-.42-.24,1,1,0,0,1,0-1.55,1.47,1.47,0,0,1,1.78,0A1,1,0,0,1,83.4,57.06Zm16.17,0a1.07,1.07,0,0,1-.36.8,1.24,1.24,0,0,1-.42.24,1.43,1.43,0,0,1-1,0,1.24,1.24,0,0,1-.42-.24,1.07,1.07,0,0,1-.27-.37.92.92,0,0,1-.09-.43,1,1,0,0,1,.39-.75,1.47,1.47,0,0,1,1.78,0A1.11,1.11,0,0,1,99.57,57.06Zm16.17,0a1,1,0,0,1-.38.77,1.36,1.36,0,0,1-.9.32,1.38,1.38,0,0,1-.91-.32,1,1,0,0,1,0-1.54,1.38,1.38,0,0,1,.91-.32,1.36,1.36,0,0,1,.9.32A1,1,0,0,1,115.74,57.06Zm16.16,0a1,1,0,0,1-.37.77,1.44,1.44,0,0,1-1.81,0,1,1,0,0,1,0-1.54,1.44,1.44,0,0,1,1.81,0A1,1,0,0,1,131.9,57.06Zm16.17,0a1,1,0,0,1-.37.77,1.44,1.44,0,0,1-1.81,0,1,1,0,0,1,0-1.54,1.44,1.44,0,0,1,1.81,0A1,1,0,0,1,148.07,57.06Zm16.17,0a1,1,0,0,1-.37.77,1.38,1.38,0,0,1-.91.32,1.36,1.36,0,0,1-.9-.32,1,1,0,0,1,0-1.54A1.36,1.36,0,0,1,163,56a1.38,1.38,0,0,1,.91.32A1,1,0,0,1,164.24,57.06Zm16.17,0a1,1,0,0,1-.37.77,1.4,1.4,0,0,1-.91.32,1.36,1.36,0,0,1-.9-.32,1,1,0,0,1,0-1.54,1.36,1.36,0,0,1,.9-.32,1.4,1.4,0,0,1,.91.32A1,1,0,0,1,180.41,57.06ZM2.56,71.05a.92.92,0,0,1-.09.43,1.07,1.07,0,0,1-.27.37,1.46,1.46,0,0,1-.42.25,1.69,1.69,0,0,1-.5.08,1.69,1.69,0,0,1-.5-.08,1.46,1.46,0,0,1-.42-.25,1.07,1.07,0,0,1-.27-.37A.92.92,0,0,1,0,71.05a1,1,0,0,1,.39-.74A1.4,1.4,0,0,1,1.28,70a1.4,1.4,0,0,1,.89.31A1,1,0,0,1,2.56,71.05Zm16.17,0a1,1,0,0,1-.38.77,1.36,1.36,0,0,1-.9.32,1.38,1.38,0,0,1-.91-.32,1,1,0,0,1,0-1.54,1.38,1.38,0,0,1,.91-.32,1.36,1.36,0,0,1,.9.32A1,1,0,0,1,18.73,71.05Zm16.16,0a1,1,0,0,1-.37.77,1.44,1.44,0,0,1-1.81,0,1,1,0,0,1,0-1.54,1.44,1.44,0,0,1,1.81,0A1,1,0,0,1,34.89,71.05Zm16.17,0a1,1,0,0,1-.37.77,1.38,1.38,0,0,1-.91.32,1.36,1.36,0,0,1-.9-.32,1,1,0,0,1,0-1.54,1.36,1.36,0,0,1,.9-.32,1.38,1.38,0,0,1,.91.32A1,1,0,0,1,51.06,71.05Zm16.17,0a1,1,0,0,1-.37.77,1.38,1.38,0,0,1-.91.32,1.36,1.36,0,0,1-.9-.32,1,1,0,0,1,0-1.54A1.36,1.36,0,0,1,66,70a1.38,1.38,0,0,1,.91.32A1,1,0,0,1,67.23,71.05Zm16.17,0a1.06,1.06,0,0,1-.08.43,1.25,1.25,0,0,1-.28.37,1.46,1.46,0,0,1-.42.25,1.6,1.6,0,0,1-1,0,1.46,1.46,0,0,1-.42-.25,1.07,1.07,0,0,1-.36-.8,1,1,0,0,1,.39-.74,1.43,1.43,0,0,1,1.78,0A1,1,0,0,1,83.4,71.05Zm16.17,0a1.07,1.07,0,0,1-.36.8,1.46,1.46,0,0,1-.42.25,1.6,1.6,0,0,1-1,0,1.46,1.46,0,0,1-.42-.25,1.07,1.07,0,0,1-.27-.37.92.92,0,0,1-.09-.43,1,1,0,0,1,.39-.74,1.43,1.43,0,0,1,1.78,0A1.07,1.07,0,0,1,99.57,71.05Zm16.17,0a1,1,0,0,1-.38.77,1.36,1.36,0,0,1-.9.32,1.38,1.38,0,0,1-.91-.32,1,1,0,0,1,0-1.54,1.38,1.38,0,0,1,.91-.32,1.36,1.36,0,0,1,.9.32A1,1,0,0,1,115.74,71.05Zm16.16,0a1,1,0,0,1-.37.77,1.44,1.44,0,0,1-1.81,0,1,1,0,0,1,0-1.54,1.44,1.44,0,0,1,1.81,0A1,1,0,0,1,131.9,71.05Zm16.17,0a1,1,0,0,1-.37.77,1.44,1.44,0,0,1-1.81,0,1,1,0,0,1,0-1.54,1.44,1.44,0,0,1,1.81,0A1,1,0,0,1,148.07,71.05Zm16.17,0a1,1,0,0,1-.37.77,1.38,1.38,0,0,1-.91.32,1.36,1.36,0,0,1-.9-.32,1,1,0,0,1,0-1.54A1.36,1.36,0,0,1,163,70a1.38,1.38,0,0,1,.91.32A1,1,0,0,1,164.24,71.05Zm16.17,0a1,1,0,0,1-.37.77,1.4,1.4,0,0,1-.91.32,1.36,1.36,0,0,1-.9-.32,1,1,0,0,1,0-1.54,1.36,1.36,0,0,1,.9-.32,1.4,1.4,0,0,1,.91.32A1,1,0,0,1,180.41,71.05ZM2.56,85a1,1,0,0,1-.38.78,1.41,1.41,0,0,1-.9.32,1.44,1.44,0,0,1-.91-.32A1,1,0,0,1,0,85a1,1,0,0,1,.37-.77A1.44,1.44,0,0,1,1.28,84a1.41,1.41,0,0,1,.9.32A1,1,0,0,1,2.56,85Zm16.17,0a1,1,0,0,1-.1.42,1.35,1.35,0,0,1-.28.36,1.27,1.27,0,0,1-.41.23,1.4,1.4,0,0,1-.49.08,1.33,1.33,0,0,1-.49-.08,1.1,1.1,0,0,1-.42-.24,1,1,0,0,1-.27-.35.87.87,0,0,1-.1-.42,1,1,0,0,1,.37-.77,1.44,1.44,0,0,1,.91-.32,1.41,1.41,0,0,1,.9.32A1,1,0,0,1,18.73,85Zm16.16,0a1,1,0,0,1-.09.42,1.35,1.35,0,0,1-.28.36,1.46,1.46,0,0,1-1.81,0,1,1,0,0,1,0-1.54,1.44,1.44,0,0,1,1.81,0A1,1,0,0,1,34.89,85Zm16.17,0a.87.87,0,0,1-.1.42,1.14,1.14,0,0,1-.27.36,1.38,1.38,0,0,1-.91.31,1.36,1.36,0,0,1-.9-.32,1,1,0,0,1,0-1.54,1.41,1.41,0,0,1,.9-.32,1.44,1.44,0,0,1,.91.32,1,1,0,0,1,.37.77Zm16.17,0a.87.87,0,0,1-.1.42,1.31,1.31,0,0,1-.27.36,1.22,1.22,0,0,1-.42.23,1.33,1.33,0,0,1-.49.08,1.36,1.36,0,0,1-.49-.08,1.14,1.14,0,0,1-.41-.24,1,1,0,0,1-.28-.35,1,1,0,0,1-.1-.42,1,1,0,0,1,.38-.77A1.41,1.41,0,0,1,66,84a1.44,1.44,0,0,1,.91.32,1,1,0,0,1,.37.77ZM83.4,85a1,1,0,0,1-.38.78,1.43,1.43,0,0,1-1.8,0,1,1,0,0,1-.38-.78,1,1,0,0,1,.38-.77,1.43,1.43,0,0,1,1.8,0A1,1,0,0,1,83.4,85Zm16.17,0a1,1,0,0,1-.38.78,1.41,1.41,0,0,1-.9.32,1.44,1.44,0,0,1-.91-.32A1,1,0,0,1,97,85a1,1,0,0,1,.37-.77,1.44,1.44,0,0,1,.91-.32,1.41,1.41,0,0,1,.9.32A1,1,0,0,1,99.57,85Zm16.17,0a1,1,0,0,1-.1.42,1.35,1.35,0,0,1-.28.36,1.27,1.27,0,0,1-.41.23,1.4,1.4,0,0,1-.49.08,1.33,1.33,0,0,1-.49-.08,1.1,1.1,0,0,1-.42-.24,1,1,0,0,1-.27-.35.87.87,0,0,1-.1-.42,1,1,0,0,1,.37-.77,1.44,1.44,0,0,1,.91-.32,1.41,1.41,0,0,1,.9.32A1,1,0,0,1,115.74,85Zm16.16,0a1,1,0,0,1-.09.42,1.35,1.35,0,0,1-.28.36,1.22,1.22,0,0,1-.42.23,1.33,1.33,0,0,1-.49.08,1.4,1.4,0,0,1-.49-.08,1.14,1.14,0,0,1-.41-.24,1.17,1.17,0,0,1-.28-.35,1,1,0,0,1-.09-.42,1,1,0,0,1,.37-.77,1.44,1.44,0,0,1,1.81,0,1,1,0,0,1,.37.77Zm16.17,0a1,1,0,0,1-.37.78,1.44,1.44,0,0,1-.91.32,1.37,1.37,0,0,1-.9-.33,1,1,0,0,1-.38-.77,1.07,1.07,0,0,1,.1-.42,1.17,1.17,0,0,1,.28-.35,1.52,1.52,0,0,1,.41-.24,1.67,1.67,0,0,1,.49-.08,1.57,1.57,0,0,1,.49.08,1.44,1.44,0,0,1,.42.24,1.17,1.17,0,0,1,.28.35A1.06,1.06,0,0,1,148.07,85Zm16.17,0a1,1,0,0,1-.37.78,1.43,1.43,0,0,1-.91.31,1.36,1.36,0,0,1-.9-.32,1,1,0,0,1,0-1.54A1.41,1.41,0,0,1,163,84a1.44,1.44,0,0,1,.91.32A1,1,0,0,1,164.24,85Zm16.17,0a.87.87,0,0,1-.1.42,1.17,1.17,0,0,1-.28.36,1.27,1.27,0,0,1-.41.23,1.36,1.36,0,0,1-.49.08,1.33,1.33,0,0,1-.49-.08,1.06,1.06,0,0,1-.41-.24,1,1,0,0,1-.28-.35.87.87,0,0,1-.1-.42.92.92,0,0,1,.1-.42,1,1,0,0,1,.28-.35,1.52,1.52,0,0,1,.41-.24,1.54,1.54,0,0,1,1,0,1.58,1.58,0,0,1,.42.24,1.14,1.14,0,0,1,.27.35A.92.92,0,0,1,180.41,85ZM2.56,99a1,1,0,0,1-.38.78,1.41,1.41,0,0,1-.9.32,1.44,1.44,0,0,1-.91-.32A1,1,0,0,1,0,99a1,1,0,0,1,.37-.77,1.44,1.44,0,0,1,.91-.32,1.41,1.41,0,0,1,.9.32A1,1,0,0,1,2.56,99Zm16.17,0a1,1,0,0,1-.38.78,1.41,1.41,0,0,1-.9.32,1.44,1.44,0,0,1-.91-.32,1,1,0,0,1-.37-.78,1,1,0,0,1,.37-.77,1.44,1.44,0,0,1,.91-.32,1.41,1.41,0,0,1,.9.32A1,1,0,0,1,18.73,99Zm16.16,0a1,1,0,0,1-.37.78,1.44,1.44,0,0,1-1.81,0,1,1,0,0,1-.37-.78,1,1,0,0,1,.37-.77,1.44,1.44,0,0,1,1.81,0A1,1,0,0,1,34.89,99Zm16.17,0a1,1,0,0,1-.37.78,1.44,1.44,0,0,1-.91.32,1.41,1.41,0,0,1-.9-.32A1,1,0,0,1,48.5,99a1,1,0,0,1,.38-.77,1.41,1.41,0,0,1,.9-.32,1.44,1.44,0,0,1,.91.32A1,1,0,0,1,51.06,99Zm16.17,0a1,1,0,0,1-.37.78,1.44,1.44,0,0,1-.91.32,1.41,1.41,0,0,1-.9-.32,1,1,0,0,1-.38-.78,1,1,0,0,1,.38-.77,1.41,1.41,0,0,1,.9-.32,1.44,1.44,0,0,1,.91.32A1,1,0,0,1,67.23,99ZM83.4,99a1,1,0,0,1-.38.78,1.43,1.43,0,0,1-1.8,0,1,1,0,0,1-.38-.78,1,1,0,0,1,.38-.77,1.43,1.43,0,0,1,1.8,0A1,1,0,0,1,83.4,99Zm16.17,0a1,1,0,0,1-.38.78,1.41,1.41,0,0,1-.9.32,1.44,1.44,0,0,1-.91-.32A1,1,0,0,1,97,99a1,1,0,0,1,.37-.77,1.44,1.44,0,0,1,.91-.32,1.41,1.41,0,0,1,.9.32A1,1,0,0,1,99.57,99Zm16.17,0a1,1,0,0,1-.38.78,1.41,1.41,0,0,1-.9.32,1.44,1.44,0,0,1-.91-.32,1,1,0,0,1-.37-.78,1,1,0,0,1,.37-.77,1.44,1.44,0,0,1,.91-.32,1.41,1.41,0,0,1,.9.32A1,1,0,0,1,115.74,99Zm16.16,0a1,1,0,0,1-.37.78,1.44,1.44,0,0,1-1.81,0,1,1,0,0,1-.37-.78,1,1,0,0,1,.37-.77,1.44,1.44,0,0,1,1.81,0A1,1,0,0,1,131.9,99Zm16.17,0a1,1,0,0,1-.37.78,1.44,1.44,0,0,1-.91.32,1.41,1.41,0,0,1-.9-.32,1,1,0,0,1-.38-.78,1,1,0,0,1,.38-.77,1.41,1.41,0,0,1,.9-.32,1.44,1.44,0,0,1,.91.32A1,1,0,0,1,148.07,99Zm16.17,0a1,1,0,0,1-.37.78,1.44,1.44,0,0,1-.91.32,1.41,1.41,0,0,1-.9-.32,1,1,0,0,1-.38-.78,1,1,0,0,1,.38-.77,1.41,1.41,0,0,1,.9-.32,1.44,1.44,0,0,1,.91.32A1,1,0,0,1,164.24,99Zm16.17,0a1.07,1.07,0,0,1-.37.78,1.46,1.46,0,0,1-.91.32,1.41,1.41,0,0,1-.9-.32,1,1,0,0,1-.38-.78,1,1,0,0,1,.38-.77,1.41,1.41,0,0,1,.9-.32,1.46,1.46,0,0,1,.91.32A1.05,1.05,0,0,1,180.41,99ZM2.56,113a1,1,0,0,1-.09.43,1,1,0,0,1-.27.36,1.27,1.27,0,0,1-.42.25,1.43,1.43,0,0,1-1,0,1.27,1.27,0,0,1-.42-.25,1,1,0,0,1-.27-.36A1,1,0,0,1,0,113a1,1,0,0,1,.39-.75,1.4,1.4,0,0,1,.89-.31,1.4,1.4,0,0,1,.89.31A1,1,0,0,1,2.56,113Zm16.17,0a1,1,0,0,1-.38.77,1.41,1.41,0,0,1-.9.32,1.44,1.44,0,0,1-.91-.32,1,1,0,0,1-.37-.77,1,1,0,0,1,.37-.78,1.44,1.44,0,0,1,.91-.32,1.41,1.41,0,0,1,.9.32A1,1,0,0,1,18.73,113Zm16.16,0a1,1,0,0,1-.37.77,1.44,1.44,0,0,1-1.81,0,1,1,0,0,1-.37-.77,1,1,0,0,1,.37-.78,1.44,1.44,0,0,1,1.81,0A1,1,0,0,1,34.89,113Zm16.17,0a1,1,0,0,1-.37.77,1.44,1.44,0,0,1-.91.32,1.41,1.41,0,0,1-.9-.32,1,1,0,0,1-.37-.77,1,1,0,0,1,.37-.78,1.41,1.41,0,0,1,.9-.32,1.44,1.44,0,0,1,.91.32A1,1,0,0,1,51.06,113Zm16.17,0a1,1,0,0,1-.37.77,1.44,1.44,0,0,1-.91.32,1.41,1.41,0,0,1-.9-.32,1,1,0,0,1-.38-.77,1,1,0,0,1,.38-.78,1.41,1.41,0,0,1,.9-.32,1.44,1.44,0,0,1,.91.32A1,1,0,0,1,67.23,113Zm16.17,0a1.09,1.09,0,0,1-.08.43,1.21,1.21,0,0,1-.28.36,1.27,1.27,0,0,1-.42.25,1.43,1.43,0,0,1-1,0,1.27,1.27,0,0,1-.42-.25,1,1,0,0,1-.27-.36,1.11,1.11,0,0,1-.09-.43,1.05,1.05,0,0,1,.39-.75,1.43,1.43,0,0,1,1.78,0A1,1,0,0,1,83.4,113Zm16.17,0a1.11,1.11,0,0,1-.09.43,1,1,0,0,1-.27.36,1.27,1.27,0,0,1-.42.25,1.43,1.43,0,0,1-1,0,1.27,1.27,0,0,1-.42-.25,1,1,0,0,1-.27-.36A1,1,0,0,1,97,113a1,1,0,0,1,.39-.75,1.43,1.43,0,0,1,1.78,0A1.09,1.09,0,0,1,99.57,113Zm16.17,0a1,1,0,0,1-.38.77,1.41,1.41,0,0,1-.9.32,1.44,1.44,0,0,1-.91-.32,1,1,0,0,1-.37-.77,1,1,0,0,1,.37-.78,1.44,1.44,0,0,1,.91-.32,1.41,1.41,0,0,1,.9.32A1,1,0,0,1,115.74,113Zm16.16,0a1,1,0,0,1-.37.77,1.44,1.44,0,0,1-1.81,0,1,1,0,0,1-.37-.77,1,1,0,0,1,.37-.78,1.44,1.44,0,0,1,1.81,0A1,1,0,0,1,131.9,113Zm16.17,0a1,1,0,0,1-.37.77,1.44,1.44,0,0,1-1.81,0,1,1,0,0,1-.37-.77,1,1,0,0,1,.37-.78,1.44,1.44,0,0,1,1.81,0A1,1,0,0,1,148.07,113Zm16.17,0a1,1,0,0,1-.37.77,1.44,1.44,0,0,1-.91.32,1.41,1.41,0,0,1-.9-.32,1,1,0,0,1-.38-.77,1,1,0,0,1,.38-.78,1.41,1.41,0,0,1,.9-.32,1.44,1.44,0,0,1,.91.32A1,1,0,0,1,164.24,113Zm16.17,0a1.05,1.05,0,0,1-.37.77,1.46,1.46,0,0,1-.91.32,1.41,1.41,0,0,1-.9-.32,1,1,0,0,1-.38-.77,1,1,0,0,1,.38-.78,1.41,1.41,0,0,1,.9-.32,1.46,1.46,0,0,1,.91.32A1.07,1.07,0,0,1,180.41,113ZM2.56,127a1,1,0,0,1-.09.43,1.17,1.17,0,0,1-.27.37,1.24,1.24,0,0,1-.42.24,1.43,1.43,0,0,1-1,0,1.24,1.24,0,0,1-.42-.24,1.07,1.07,0,0,1-.27-.37A.92.92,0,0,1,0,127a1,1,0,0,1,.39-.75,1.45,1.45,0,0,1,.89-.3,1.39,1.39,0,0,1,.89.3A1.11,1.11,0,0,1,2.56,127Zm16.17,0a1,1,0,0,1-.38.77,1.41,1.41,0,0,1-.9.32,1.44,1.44,0,0,1-.91-.32,1,1,0,0,1-.37-.77,1,1,0,0,1,.37-.77,1.38,1.38,0,0,1,.91-.32,1.36,1.36,0,0,1,.9.32A1,1,0,0,1,18.73,127Zm16.16,0a1,1,0,0,1-.37.77,1.44,1.44,0,0,1-1.81,0,1,1,0,0,1-.37-.77,1,1,0,0,1,.37-.77,1.44,1.44,0,0,1,1.81,0A1,1,0,0,1,34.89,127Zm16.17,0a1,1,0,0,1-.37.77,1.44,1.44,0,0,1-.91.32,1.41,1.41,0,0,1-.9-.32,1,1,0,0,1-.37-.77,1,1,0,0,1,.37-.77,1.36,1.36,0,0,1,.9-.32,1.38,1.38,0,0,1,.91.32A1,1,0,0,1,51.06,127Zm16.17,0a1,1,0,0,1-.37.77,1.44,1.44,0,0,1-.91.32,1.41,1.41,0,0,1-.9-.32,1,1,0,0,1-.38-.77,1,1,0,0,1,.38-.77,1.36,1.36,0,0,1,.9-.32,1.38,1.38,0,0,1,.91.32A1,1,0,0,1,67.23,127Zm16.17,0a1.09,1.09,0,0,1-.08.43,1.39,1.39,0,0,1-.28.37,1.24,1.24,0,0,1-.42.24,1.43,1.43,0,0,1-1,0,1.24,1.24,0,0,1-.42-.24,1.07,1.07,0,0,1-.36-.8,1,1,0,0,1,.39-.75,1.45,1.45,0,0,1,.89-.3,1.39,1.39,0,0,1,.89.3A1,1,0,0,1,83.4,127Zm16.17,0a1,1,0,0,1-.09.43,1.17,1.17,0,0,1-.27.37,1.24,1.24,0,0,1-.42.24,1.43,1.43,0,0,1-1,0,1.24,1.24,0,0,1-.42-.24,1.07,1.07,0,0,1-.27-.37A.92.92,0,0,1,97,127a1,1,0,0,1,.39-.75,1.45,1.45,0,0,1,.89-.3,1.39,1.39,0,0,1,.89.3A1.11,1.11,0,0,1,99.57,127Zm16.17,0a1,1,0,0,1-.38.77,1.41,1.41,0,0,1-.9.32,1.44,1.44,0,0,1-.91-.32,1,1,0,0,1-.37-.77,1,1,0,0,1,.37-.77,1.38,1.38,0,0,1,.91-.32,1.36,1.36,0,0,1,.9.32A1,1,0,0,1,115.74,127Zm16.16,0a1,1,0,0,1-.37.77,1.44,1.44,0,0,1-1.81,0,1,1,0,0,1-.37-.77,1,1,0,0,1,.37-.77,1.44,1.44,0,0,1,1.81,0A1,1,0,0,1,131.9,127Zm16.17,0a1,1,0,0,1-.37.77,1.44,1.44,0,0,1-1.81,0,1,1,0,0,1-.37-.77,1,1,0,0,1,.37-.77,1.44,1.44,0,0,1,1.81,0A1,1,0,0,1,148.07,127Zm16.17,0a1,1,0,0,1-.37.77,1.44,1.44,0,0,1-.91.32,1.41,1.41,0,0,1-.9-.32,1,1,0,0,1-.38-.77,1,1,0,0,1,.38-.77,1.36,1.36,0,0,1,.9-.32,1.38,1.38,0,0,1,.91.32A1,1,0,0,1,164.24,127Zm16.17,0a1.05,1.05,0,0,1-.37.77,1.46,1.46,0,0,1-.91.32,1.41,1.41,0,0,1-.9-.32,1,1,0,0,1-.38-.77,1,1,0,0,1,.38-.77,1.36,1.36,0,0,1,.9-.32,1.4,1.4,0,0,1,.91.32A1,1,0,0,1,180.41,127ZM2.56,141a.92.92,0,0,1-.09.43,1.07,1.07,0,0,1-.27.37,1.24,1.24,0,0,1-.42.24,1.43,1.43,0,0,1-1,0,1.24,1.24,0,0,1-.42-.24,1.07,1.07,0,0,1-.27-.37A.92.92,0,0,1,0,141a1,1,0,0,1,.39-.75,1.45,1.45,0,0,1,.89-.3,1.45,1.45,0,0,1,.89.3A1.11,1.11,0,0,1,2.56,141Zm16.17,0a1,1,0,0,1-.38.77,1.36,1.36,0,0,1-.9.32,1.38,1.38,0,0,1-.91-.32,1,1,0,0,1,0-1.54,1.38,1.38,0,0,1,.91-.32,1.36,1.36,0,0,1,.9.32A1,1,0,0,1,18.73,141Zm16.16,0a1,1,0,0,1-.37.77,1.44,1.44,0,0,1-1.81,0,1,1,0,0,1,0-1.54,1.44,1.44,0,0,1,1.81,0A1,1,0,0,1,34.89,141Zm16.17,0a1,1,0,0,1-.37.77,1.38,1.38,0,0,1-.91.32,1.36,1.36,0,0,1-.9-.32,1,1,0,0,1,0-1.54,1.36,1.36,0,0,1,.9-.32,1.38,1.38,0,0,1,.91.32A1,1,0,0,1,51.06,141Zm16.17,0a1,1,0,0,1-.37.77,1.38,1.38,0,0,1-.91.32,1.36,1.36,0,0,1-.9-.32,1,1,0,0,1,0-1.54,1.36,1.36,0,0,1,.9-.32,1.38,1.38,0,0,1,.91.32A1,1,0,0,1,67.23,141Zm16.17,0a1.06,1.06,0,0,1-.08.43,1.18,1.18,0,0,1-.7.61,1.43,1.43,0,0,1-1,0,1.24,1.24,0,0,1-.42-.24,1.07,1.07,0,0,1-.36-.8,1,1,0,0,1,.39-.75,1.47,1.47,0,0,1,1.78,0A1,1,0,0,1,83.4,141Zm16.17,0a.92.92,0,0,1-.09.43,1.07,1.07,0,0,1-.27.37,1.24,1.24,0,0,1-.42.24,1.43,1.43,0,0,1-1,0,1.24,1.24,0,0,1-.42-.24,1.07,1.07,0,0,1-.27-.37A.92.92,0,0,1,97,141a1,1,0,0,1,.39-.75,1.47,1.47,0,0,1,1.78,0A1.11,1.11,0,0,1,99.57,141Zm16.17,0a1,1,0,0,1-.38.77,1.36,1.36,0,0,1-.9.32,1.38,1.38,0,0,1-.91-.32,1,1,0,0,1,0-1.54,1.38,1.38,0,0,1,.91-.32,1.36,1.36,0,0,1,.9.32A1,1,0,0,1,115.74,141Zm16.16,0a1,1,0,0,1-.37.77,1.44,1.44,0,0,1-1.81,0,1,1,0,0,1,0-1.54,1.44,1.44,0,0,1,1.81,0A1,1,0,0,1,131.9,141Zm16.17,0a1,1,0,0,1-.37.77,1.44,1.44,0,0,1-1.81,0,1,1,0,0,1,0-1.54,1.44,1.44,0,0,1,1.81,0A1,1,0,0,1,148.07,141Zm16.17,0a1,1,0,0,1-.37.77,1.38,1.38,0,0,1-.91.32,1.36,1.36,0,0,1-.9-.32,1,1,0,0,1,0-1.54,1.36,1.36,0,0,1,.9-.32,1.38,1.38,0,0,1,.91.32A1,1,0,0,1,164.24,141Zm16.17,0a1,1,0,0,1-.37.77,1.4,1.4,0,0,1-.91.32,1.36,1.36,0,0,1-.9-.32,1,1,0,0,1,0-1.54,1.36,1.36,0,0,1,.9-.32,1.4,1.4,0,0,1,.91.32A1,1,0,0,1,180.41,141Z"/><path class="cls-3" d="M400.06,273a1,1,0,0,1-.38.77,1.36,1.36,0,0,1-.9.32,1.34,1.34,0,0,1-.9-.32,1,1,0,0,1-.38-.77,1,1,0,0,1,.37-.77,1.44,1.44,0,0,1,.91-.32,1.41,1.41,0,0,1,.9.32A1,1,0,0,1,400.06,273Zm16.17,0a1,1,0,0,1-.38.77,1.36,1.36,0,0,1-.9.32,1.38,1.38,0,0,1-.91-.32,1,1,0,0,1,0-1.54,1.44,1.44,0,0,1,.91-.32,1.41,1.41,0,0,1,.9.32A1,1,0,0,1,416.23,273Zm16.16,0a1,1,0,0,1-.37.77,1.44,1.44,0,0,1-1.81,0,1,1,0,0,1,0-1.54,1.44,1.44,0,0,1,1.81,0A1,1,0,0,1,432.39,273Zm16.17,0a1,1,0,0,1-.37.77,1.38,1.38,0,0,1-.91.32,1.36,1.36,0,0,1-.9-.32,1,1,0,0,1,0-1.54,1.41,1.41,0,0,1,.9-.32,1.44,1.44,0,0,1,.91.32A1,1,0,0,1,448.56,273Zm16.17,0a1,1,0,0,1-.37.77,1.38,1.38,0,0,1-.91.32,1.36,1.36,0,0,1-.9-.32,1,1,0,0,1,0-1.54,1.41,1.41,0,0,1,.9-.32,1.44,1.44,0,0,1,.91.32A1,1,0,0,1,464.73,273Zm16.17,0a1,1,0,0,1-.38.77,1.43,1.43,0,0,1-1.8,0,1,1,0,0,1,0-1.54,1.43,1.43,0,0,1,1.8,0A1,1,0,0,1,480.9,273Zm16.17,0a1,1,0,0,1-.38.77,1.36,1.36,0,0,1-.9.32,1.38,1.38,0,0,1-.91-.32,1,1,0,0,1,0-1.54,1.44,1.44,0,0,1,.91-.32,1.41,1.41,0,0,1,.9.32A1,1,0,0,1,497.07,273Zm16.17,0a1,1,0,0,1-.38.77,1.36,1.36,0,0,1-.9.32,1.38,1.38,0,0,1-.91-.32,1,1,0,0,1,0-1.54,1.38,1.38,0,0,1,.91-.32,1.36,1.36,0,0,1,.9.32A1,1,0,0,1,513.24,273Zm16.17,0a1,1,0,0,1-.38.77,1.36,1.36,0,0,1-.9.32,1.38,1.38,0,0,1-.91-.32,1,1,0,0,1,0-1.54,1.44,1.44,0,0,1,1.81,0A1,1,0,0,1,529.41,273Zm16.16,0a1,1,0,0,1-.37.77,1.38,1.38,0,0,1-.91.32,1.36,1.36,0,0,1-.9-.32,1,1,0,0,1,0-1.54,1.36,1.36,0,0,1,.9-.32,1.38,1.38,0,0,1,.91.32A1,1,0,0,1,545.57,273Zm16.17,0a1,1,0,0,1-.37.77,1.38,1.38,0,0,1-.91.32,1.36,1.36,0,0,1-.9-.32,1,1,0,0,1,0-1.54,1.41,1.41,0,0,1,.9-.32,1.44,1.44,0,0,1,.91.32A1,1,0,0,1,561.74,273Zm16.17,0a1,1,0,0,1-.38.77,1.43,1.43,0,0,1-1.8,0,1,1,0,0,1,0-1.54,1.43,1.43,0,0,1,1.8,0A1,1,0,0,1,577.91,273ZM400.06,287a1,1,0,0,1-.1.42,1.17,1.17,0,0,1-.28.36,1.27,1.27,0,0,1-.41.23,1.37,1.37,0,0,1-.49.09,1.33,1.33,0,0,1-.49-.09,1.22,1.22,0,0,1-.42-.23,1.31,1.31,0,0,1-.27-.36.87.87,0,0,1-.1-.42,1,1,0,0,1,.38-.77,1.39,1.39,0,0,1,.9-.32,1.41,1.41,0,0,1,.9.32A1,1,0,0,1,400.06,287Zm16.17,0a1,1,0,0,1-.38.78,1.35,1.35,0,0,1-.9.31,1.38,1.38,0,0,1-.91-.32,1,1,0,0,1-.37-.77,1,1,0,0,1,.37-.77,1.44,1.44,0,0,1,.91-.32,1.41,1.41,0,0,1,.9.32A1,1,0,0,1,416.23,287Zm16.16,0a1,1,0,0,1-.09.42,1.35,1.35,0,0,1-.28.36,1.22,1.22,0,0,1-.42.23,1.33,1.33,0,0,1-.49.09,1.41,1.41,0,0,1-.49-.09,1.27,1.27,0,0,1-.41-.23,1.35,1.35,0,0,1-.28-.36,1,1,0,0,1-.09-.42,1,1,0,0,1,.37-.77,1.44,1.44,0,0,1,1.81,0A1,1,0,0,1,432.39,287Zm16.17,0a.87.87,0,0,1-.1.42,1.14,1.14,0,0,1-.27.36,1.22,1.22,0,0,1-.42.23,1.33,1.33,0,0,1-.49.09,1.37,1.37,0,0,1-.49-.09,1.27,1.27,0,0,1-.41-.23,1.35,1.35,0,0,1-.28-.36,1,1,0,0,1-.1-.42,1.06,1.06,0,0,1,.38-.77,1.41,1.41,0,0,1,.9-.32,1.44,1.44,0,0,1,.91.32A1,1,0,0,1,448.56,287Zm16.17,0a.87.87,0,0,1-.1.42,1.14,1.14,0,0,1-.27.36,1.22,1.22,0,0,1-.42.23,1.33,1.33,0,0,1-.49.09A1.37,1.37,0,0,1,463,288a1.27,1.27,0,0,1-.41-.23,1.17,1.17,0,0,1-.28-.36,1,1,0,0,1-.1-.42,1,1,0,0,1,.38-.77,1.41,1.41,0,0,1,.9-.32,1.44,1.44,0,0,1,.91.32A1,1,0,0,1,464.73,287Zm16.17,0a1,1,0,0,1-.38.78,1.43,1.43,0,0,1-1.8,0,1,1,0,0,1-.38-.78,1,1,0,0,1,.38-.77,1.43,1.43,0,0,1,1.8,0A1,1,0,0,1,480.9,287Zm16.17,0a1,1,0,0,1-.38.78,1.41,1.41,0,0,1-.9.32,1.44,1.44,0,0,1-.91-.32,1,1,0,0,1-.37-.78,1,1,0,0,1,.37-.77,1.44,1.44,0,0,1,.91-.32,1.41,1.41,0,0,1,.9.32A1,1,0,0,1,497.07,287Zm16.17,0a1,1,0,0,1-.38.78,1.41,1.41,0,0,1-.9.32,1.44,1.44,0,0,1-.91-.32,1,1,0,0,1-.37-.78,1,1,0,0,1,.37-.77,1.44,1.44,0,0,1,.91-.32,1.41,1.41,0,0,1,.9.32A1,1,0,0,1,513.24,287Zm16.17,0a1,1,0,0,1-.38.78,1.44,1.44,0,0,1-1.81,0,1,1,0,0,1-.37-.78,1,1,0,0,1,.37-.77,1.44,1.44,0,0,1,.91-.32,1.41,1.41,0,0,1,.9.32A1,1,0,0,1,529.41,287Zm16.16,0a1,1,0,0,1-.09.42,1.35,1.35,0,0,1-.28.36,1.22,1.22,0,0,1-.42.23,1.33,1.33,0,0,1-.49.09,1.37,1.37,0,0,1-.49-.09,1.27,1.27,0,0,1-.41-.23,1.35,1.35,0,0,1-.28-.36,1,1,0,0,1-.1-.42,1,1,0,0,1,.38-.77,1.41,1.41,0,0,1,.9-.32,1.44,1.44,0,0,1,.91.32A1,1,0,0,1,545.57,287Zm16.17,0a.87.87,0,0,1-.1.42,1.31,1.31,0,0,1-.27.36,1.22,1.22,0,0,1-.42.23,1.15,1.15,0,0,1-.49.08A1.36,1.36,0,0,1,560,288a1.14,1.14,0,0,1-.41-.24,1,1,0,0,1-.28-.35,1,1,0,0,1-.1-.42,1,1,0,0,1,.38-.77,1.41,1.41,0,0,1,.9-.32,1.44,1.44,0,0,1,.91.32A1,1,0,0,1,561.74,287Zm16.17,0a1,1,0,0,1-.38.78,1.41,1.41,0,0,1-.9.32,1.46,1.46,0,0,1-.91-.32,1.07,1.07,0,0,1-.37-.78,1,1,0,0,1,.38-.77,1.43,1.43,0,0,1,1.8,0A1,1,0,0,1,577.91,287ZM400.06,301a1,1,0,0,1-.1.41,1,1,0,0,1-.28.36,1.27,1.27,0,0,1-.41.23,1.37,1.37,0,0,1-.49.09,1.33,1.33,0,0,1-.49-.09,1.22,1.22,0,0,1-.42-.23,1.17,1.17,0,0,1-.27-.36.86.86,0,0,1-.1-.41,1.05,1.05,0,0,1,.37-.78,1.44,1.44,0,0,1,.91-.32,1.41,1.41,0,0,1,.9.32,1,1,0,0,1,.38.78Zm16.17,0a1,1,0,0,1-.38.77,1.41,1.41,0,0,1-.9.32,1.44,1.44,0,0,1-.91-.32,1,1,0,0,1-.37-.77,1,1,0,0,1,.37-.78,1.44,1.44,0,0,1,.91-.32,1.41,1.41,0,0,1,.9.32A1,1,0,0,1,416.23,301Zm16.16,0a1,1,0,0,1-.09.41,1.09,1.09,0,0,1-.28.36,1.22,1.22,0,0,1-.42.23,1.33,1.33,0,0,1-.49.09,1.41,1.41,0,0,1-.49-.09,1.27,1.27,0,0,1-.41-.23,1.21,1.21,0,0,1-.28-.36,1,1,0,0,1-.09-.41,1,1,0,0,1,.37-.78,1.44,1.44,0,0,1,1.81,0A1,1,0,0,1,432.39,301Zm16.17,0a.86.86,0,0,1-.1.41,1,1,0,0,1-.27.36,1.22,1.22,0,0,1-.42.23,1.33,1.33,0,0,1-.49.09,1.37,1.37,0,0,1-.49-.09,1.27,1.27,0,0,1-.41-.23,1.21,1.21,0,0,1-.28-.36,1,1,0,0,1-.1-.41,1,1,0,0,1,.38-.78,1.41,1.41,0,0,1,.9-.32,1.44,1.44,0,0,1,.91.32,1,1,0,0,1,.37.78Zm16.17,0a.86.86,0,0,1-.1.41,1,1,0,0,1-.27.36,1.22,1.22,0,0,1-.42.23,1.33,1.33,0,0,1-.49.09A1.37,1.37,0,0,1,463,302a1.27,1.27,0,0,1-.41-.23,1.07,1.07,0,0,1-.28-.36,1,1,0,0,1-.1-.41,1,1,0,0,1,.38-.78,1.41,1.41,0,0,1,.9-.32,1.44,1.44,0,0,1,.91.32,1,1,0,0,1,.37.78Zm16.17,0a1,1,0,0,1-.38.77,1.43,1.43,0,0,1-1.8,0,1,1,0,0,1-.38-.77,1,1,0,0,1,.38-.78,1.43,1.43,0,0,1,1.8,0A1,1,0,0,1,480.9,301Zm16.17,0a1,1,0,0,1-.38.77,1.41,1.41,0,0,1-.9.32,1.44,1.44,0,0,1-.91-.32,1,1,0,0,1-.37-.77,1,1,0,0,1,.37-.78,1.44,1.44,0,0,1,.91-.32,1.41,1.41,0,0,1,.9.32A1,1,0,0,1,497.07,301Zm16.17,0a1,1,0,0,1-.38.77,1.41,1.41,0,0,1-.9.32,1.44,1.44,0,0,1-.91-.32,1,1,0,0,1-.37-.77,1,1,0,0,1,.37-.78,1.44,1.44,0,0,1,.91-.32,1.41,1.41,0,0,1,.9.32A1,1,0,0,1,513.24,301Zm16.17,0a1,1,0,0,1-.38.77,1.44,1.44,0,0,1-1.81,0,1,1,0,0,1-.37-.77,1,1,0,0,1,.37-.78,1.44,1.44,0,0,1,1.81,0,1,1,0,0,1,.37.78Zm16.16,0a1,1,0,0,1-.37.77,1.44,1.44,0,0,1-.91.32,1.41,1.41,0,0,1-.9-.32A1,1,0,0,1,543,301a1,1,0,0,1,.38-.78,1.41,1.41,0,0,1,.9-.32,1.44,1.44,0,0,1,.91.32,1,1,0,0,1,.37.78Zm16.17,0a.86.86,0,0,1-.1.41,1.07,1.07,0,0,1-.27.36,1.22,1.22,0,0,1-.42.23,1.33,1.33,0,0,1-.49.09A1.37,1.37,0,0,1,560,302a1.27,1.27,0,0,1-.41-.23,1.17,1.17,0,0,1-.28-.36,1,1,0,0,1-.1-.41,1,1,0,0,1,.38-.78,1.41,1.41,0,0,1,.9-.32,1.44,1.44,0,0,1,.91.32A1,1,0,0,1,561.74,301Zm16.17,0a1,1,0,0,1-.38.77,1.41,1.41,0,0,1-.9.32,1.46,1.46,0,0,1-.91-.32,1.07,1.07,0,0,1-.37-.77,1,1,0,0,1,.38-.78,1.43,1.43,0,0,1,1.8,0A1,1,0,0,1,577.91,301ZM400.06,315a1,1,0,0,1-.38.77,1.41,1.41,0,0,1-.9.32,1.39,1.39,0,0,1-.9-.32,1,1,0,0,1-.38-.77,1.07,1.07,0,0,1,.37-.78,1.44,1.44,0,0,1,.91-.32,1.41,1.41,0,0,1,.9.32A1,1,0,0,1,400.06,315Zm16.17,0a1,1,0,0,1-.38.77,1.41,1.41,0,0,1-.9.32,1.44,1.44,0,0,1-.91-.32,1,1,0,0,1-.37-.77,1,1,0,0,1,.37-.78,1.44,1.44,0,0,1,.91-.32,1.41,1.41,0,0,1,.9.32A1,1,0,0,1,416.23,315Zm16.16,0a1,1,0,0,1-.37.77,1.44,1.44,0,0,1-1.81,0,1,1,0,0,1-.37-.77,1,1,0,0,1,.37-.78,1.44,1.44,0,0,1,1.81,0A1,1,0,0,1,432.39,315Zm16.17,0a1,1,0,0,1-.37.77,1.44,1.44,0,0,1-.91.32,1.41,1.41,0,0,1-.9-.32A1,1,0,0,1,446,315a1,1,0,0,1,.38-.78,1.41,1.41,0,0,1,.9-.32,1.44,1.44,0,0,1,.91.32A1,1,0,0,1,448.56,315Zm16.17,0a1,1,0,0,1-.37.77,1.44,1.44,0,0,1-.91.32,1.41,1.41,0,0,1-.9-.32,1,1,0,0,1-.38-.77,1,1,0,0,1,.38-.78,1.41,1.41,0,0,1,.9-.32,1.44,1.44,0,0,1,.91.32A1,1,0,0,1,464.73,315Zm16.17,0a1,1,0,0,1-.38.77,1.43,1.43,0,0,1-1.8,0,1,1,0,0,1-.38-.77,1,1,0,0,1,.38-.78,1.43,1.43,0,0,1,1.8,0A1,1,0,0,1,480.9,315Zm16.17,0a1,1,0,0,1-.38.77,1.41,1.41,0,0,1-.9.32,1.44,1.44,0,0,1-.91-.32,1,1,0,0,1-.37-.77,1,1,0,0,1,.37-.78,1.44,1.44,0,0,1,.91-.32,1.41,1.41,0,0,1,.9.32A1,1,0,0,1,497.07,315Zm16.17,0a1,1,0,0,1-.38.77,1.41,1.41,0,0,1-.9.32,1.44,1.44,0,0,1-.91-.32,1,1,0,0,1-.37-.77,1,1,0,0,1,.37-.78,1.44,1.44,0,0,1,.91-.32,1.41,1.41,0,0,1,.9.32A1,1,0,0,1,513.24,315Zm16.17,0a1,1,0,0,1-.38.77,1.41,1.41,0,0,1-.9.32,1.44,1.44,0,0,1-.91-.32,1,1,0,0,1-.37-.77,1,1,0,0,1,.37-.78,1.44,1.44,0,0,1,1.81,0A1,1,0,0,1,529.41,315Zm16.16,0a1,1,0,0,1-.37.77,1.44,1.44,0,0,1-.91.32,1.41,1.41,0,0,1-.9-.32A1,1,0,0,1,543,315a1,1,0,0,1,.38-.78,1.41,1.41,0,0,1,.9-.32,1.44,1.44,0,0,1,.91.32A1,1,0,0,1,545.57,315Zm16.17,0a1,1,0,0,1-.37.77,1.44,1.44,0,0,1-.91.32,1.41,1.41,0,0,1-.9-.32,1,1,0,0,1-.38-.77,1,1,0,0,1,.38-.78,1.41,1.41,0,0,1,.9-.32,1.44,1.44,0,0,1,.91.32A1,1,0,0,1,561.74,315Zm16.17,0a1,1,0,0,1-.38.77,1.43,1.43,0,0,1-1.8,0,1,1,0,0,1-.38-.77,1,1,0,0,1,.38-.78,1.43,1.43,0,0,1,1.8,0A1,1,0,0,1,577.91,315ZM400.06,329a1,1,0,0,1-.38.77,1.41,1.41,0,0,1-.9.32,1.39,1.39,0,0,1-.9-.32,1,1,0,0,1-.38-.77,1,1,0,0,1,.38-.77,1.34,1.34,0,0,1,.9-.32,1.36,1.36,0,0,1,.9.32A1,1,0,0,1,400.06,329Zm16.17,0a1,1,0,0,1-.38.77,1.41,1.41,0,0,1-.9.32,1.44,1.44,0,0,1-.91-.32,1,1,0,0,1-.37-.77,1,1,0,0,1,.37-.77,1.38,1.38,0,0,1,.91-.32,1.36,1.36,0,0,1,.9.32A1,1,0,0,1,416.23,329Zm16.16,0a1,1,0,0,1-.37.77,1.44,1.44,0,0,1-1.81,0,1,1,0,0,1-.37-.77,1,1,0,0,1,.37-.77,1.44,1.44,0,0,1,1.81,0A1,1,0,0,1,432.39,329Zm16.17,0a1,1,0,0,1-.37.77,1.44,1.44,0,0,1-1.81,0A1,1,0,0,1,446,329a1,1,0,0,1,.37-.77,1.44,1.44,0,0,1,1.81,0A1,1,0,0,1,448.56,329Zm16.17,0a1,1,0,0,1-.37.77,1.44,1.44,0,0,1-.91.32,1.41,1.41,0,0,1-.9-.32,1,1,0,0,1-.38-.77,1,1,0,0,1,.38-.77,1.36,1.36,0,0,1,.9-.32,1.38,1.38,0,0,1,.91.32A1,1,0,0,1,464.73,329Zm16.17,0a1.09,1.09,0,0,1-.08.43,1.39,1.39,0,0,1-.28.37,1.24,1.24,0,0,1-.42.24,1.43,1.43,0,0,1-1,0,1.24,1.24,0,0,1-.42-.24,1.17,1.17,0,0,1-.27-.37.92.92,0,0,1-.09-.43,1.07,1.07,0,0,1,.39-.75,1.47,1.47,0,0,1,1.78,0A1,1,0,0,1,480.9,329Zm16.17,0a1,1,0,0,1-.09.43,1.17,1.17,0,0,1-.27.37,1.24,1.24,0,0,1-.42.24,1.43,1.43,0,0,1-1,0,1.24,1.24,0,0,1-.42-.24,1.17,1.17,0,0,1-.27-.37.92.92,0,0,1-.09-.43,1,1,0,0,1,.39-.75,1.47,1.47,0,0,1,1.78,0A1.05,1.05,0,0,1,497.07,329Zm16.17,0a1,1,0,0,1-.38.77,1.41,1.41,0,0,1-.9.32,1.44,1.44,0,0,1-.91-.32,1,1,0,0,1-.37-.77,1,1,0,0,1,.37-.77,1.38,1.38,0,0,1,.91-.32,1.36,1.36,0,0,1,.9.32A1,1,0,0,1,513.24,329Zm16.17,0a1,1,0,0,1-.38.77,1.41,1.41,0,0,1-.9.32,1.44,1.44,0,0,1-.91-.32,1,1,0,0,1-.37-.77,1,1,0,0,1,.37-.77,1.38,1.38,0,0,1,.91-.32,1.36,1.36,0,0,1,.9.32A1,1,0,0,1,529.41,329Zm16.16,0a1,1,0,0,1-.37.77,1.44,1.44,0,0,1-1.81,0A1,1,0,0,1,543,329a1,1,0,0,1,.37-.77,1.44,1.44,0,0,1,1.81,0A1,1,0,0,1,545.57,329Zm16.17,0a1,1,0,0,1-.37.77,1.44,1.44,0,0,1-.91.32,1.41,1.41,0,0,1-.9-.32,1,1,0,0,1-.38-.77,1,1,0,0,1,.38-.77,1.36,1.36,0,0,1,.9-.32,1.38,1.38,0,0,1,.91.32A1,1,0,0,1,561.74,329Zm16.17,0a1,1,0,0,1-.38.77,1.43,1.43,0,0,1-1.8,0,1,1,0,0,1-.38-.77,1,1,0,0,1,.38-.77,1.43,1.43,0,0,1,1.8,0A1,1,0,0,1,577.91,329ZM400.06,343a1.07,1.07,0,0,1-.1.42,1,1,0,0,1-.28.35,1.52,1.52,0,0,1-.41.24,1.62,1.62,0,0,1-.49.08,1.57,1.57,0,0,1-.49-.08,1.44,1.44,0,0,1-.42-.24,1.14,1.14,0,0,1-.27-.35.92.92,0,0,1-.1-.42,1,1,0,0,1,.37-.77,1.38,1.38,0,0,1,.91-.32,1.36,1.36,0,0,1,.9.32,1,1,0,0,1,.38.77Zm16.17,0a1,1,0,0,1-.38.77,1.36,1.36,0,0,1-.9.32,1.38,1.38,0,0,1-.91-.32,1,1,0,0,1,0-1.54,1.38,1.38,0,0,1,.91-.32,1.36,1.36,0,0,1,.9.32A1,1,0,0,1,416.23,343Zm16.16,0a1.06,1.06,0,0,1-.09.42,1.17,1.17,0,0,1-.28.35,1.44,1.44,0,0,1-.42.24,1.57,1.57,0,0,1-.49.08,1.67,1.67,0,0,1-.49-.08,1.52,1.52,0,0,1-.41-.24,1.17,1.17,0,0,1-.28-.35,1.06,1.06,0,0,1-.09-.42,1,1,0,0,1,.37-.77,1.44,1.44,0,0,1,1.81,0A1,1,0,0,1,432.39,343Zm16.17,0a.92.92,0,0,1-.1.42,1,1,0,0,1-.27.35,1.44,1.44,0,0,1-.42.24,1.57,1.57,0,0,1-.49.08,1.62,1.62,0,0,1-.49-.08,1.52,1.52,0,0,1-.41-.24,1.17,1.17,0,0,1-.28-.35,1.07,1.07,0,0,1-.1-.42,1,1,0,0,1,.38-.77,1.36,1.36,0,0,1,.9-.32,1.38,1.38,0,0,1,.91.32,1,1,0,0,1,.37.77Zm16.17,0a.92.92,0,0,1-.1.42,1,1,0,0,1-.27.35,1.44,1.44,0,0,1-.42.24,1.57,1.57,0,0,1-.49.08A1.62,1.62,0,0,1,463,344a1.52,1.52,0,0,1-.41-.24,1,1,0,0,1-.28-.35,1.07,1.07,0,0,1-.1-.42,1,1,0,0,1,.38-.77,1.36,1.36,0,0,1,.9-.32,1.38,1.38,0,0,1,.91.32,1,1,0,0,1,.37.77Zm16.17,0a1,1,0,0,1-.38.77,1.43,1.43,0,0,1-1.8,0,1,1,0,0,1,0-1.54,1.43,1.43,0,0,1,1.8,0A1,1,0,0,1,480.9,343Zm16.17,0a1,1,0,0,1-.38.77,1.36,1.36,0,0,1-.9.32,1.38,1.38,0,0,1-.91-.32,1,1,0,0,1,0-1.54,1.38,1.38,0,0,1,.91-.32,1.36,1.36,0,0,1,.9.32A1,1,0,0,1,497.07,343Zm16.17,0a1,1,0,0,1-.38.77,1.36,1.36,0,0,1-.9.32,1.38,1.38,0,0,1-.91-.32,1,1,0,0,1,0-1.54,1.38,1.38,0,0,1,.91-.32,1.36,1.36,0,0,1,.9.32A1,1,0,0,1,513.24,343Zm16.17,0a1,1,0,0,1-.38.77,1.44,1.44,0,0,1-1.81,0,1,1,0,0,1,0-1.54,1.44,1.44,0,0,1,1.81,0,1,1,0,0,1,.37.77Zm16.16,0a1,1,0,0,1-.37.77,1.38,1.38,0,0,1-.91.32,1.36,1.36,0,0,1-.9-.32,1,1,0,0,1,0-1.54,1.36,1.36,0,0,1,.9-.32,1.38,1.38,0,0,1,.91.32,1,1,0,0,1,.37.77Zm16.17,0a.92.92,0,0,1-.1.42,1.14,1.14,0,0,1-.27.35,1.44,1.44,0,0,1-.42.24,1.57,1.57,0,0,1-.49.08A1.62,1.62,0,0,1,560,344a1.52,1.52,0,0,1-.41-.24,1,1,0,0,1-.28-.35,1.07,1.07,0,0,1-.1-.42,1,1,0,0,1,.38-.77,1.36,1.36,0,0,1,.9-.32,1.38,1.38,0,0,1,.91.32A1,1,0,0,1,561.74,343Zm16.17,0a1,1,0,0,1-.38.77,1.36,1.36,0,0,1-.9.32,1.4,1.4,0,0,1-.91-.32,1,1,0,0,1-.37-.77,1,1,0,0,1,.38-.77,1.43,1.43,0,0,1,1.8,0A1,1,0,0,1,577.91,343Zm-177.85,14a1,1,0,0,1-.38.77,1.36,1.36,0,0,1-.9.32,1.34,1.34,0,0,1-.9-.32,1,1,0,0,1,0-1.54,1.34,1.34,0,0,1,.9-.32,1.36,1.36,0,0,1,.9.32A1,1,0,0,1,400.06,356.94Zm16.17,0a1,1,0,0,1-.38.77,1.36,1.36,0,0,1-.9.32,1.38,1.38,0,0,1-.91-.32,1,1,0,0,1,0-1.54,1.38,1.38,0,0,1,.91-.32,1.36,1.36,0,0,1,.9.32A1,1,0,0,1,416.23,356.94Zm16.16,0a1,1,0,0,1-.37.77,1.44,1.44,0,0,1-1.81,0,1,1,0,0,1,0-1.54,1.44,1.44,0,0,1,1.81,0A1,1,0,0,1,432.39,356.94Zm16.17,0a1,1,0,0,1-.37.77,1.44,1.44,0,0,1-1.81,0,1,1,0,0,1,0-1.54,1.44,1.44,0,0,1,1.81,0A1,1,0,0,1,448.56,356.94Zm16.17,0a1,1,0,0,1-.37.77,1.38,1.38,0,0,1-.91.32,1.36,1.36,0,0,1-.9-.32,1,1,0,0,1,0-1.54,1.36,1.36,0,0,1,.9-.32,1.38,1.38,0,0,1,.91.32A1,1,0,0,1,464.73,356.94Zm16.17,0a1.06,1.06,0,0,1-.08.43,1.25,1.25,0,0,1-.28.37,1.27,1.27,0,0,1-.42.25,1.6,1.6,0,0,1-1,0,1.27,1.27,0,0,1-.42-.25,1.07,1.07,0,0,1-.27-.37.92.92,0,0,1-.09-.43,1,1,0,0,1,.39-.74,1.43,1.43,0,0,1,1.78,0A1,1,0,0,1,480.9,356.94Zm16.17,0a.92.92,0,0,1-.09.43,1.07,1.07,0,0,1-.27.37,1.27,1.27,0,0,1-.42.25,1.6,1.6,0,0,1-1,0,1.27,1.27,0,0,1-.42-.25,1.07,1.07,0,0,1-.27-.37.92.92,0,0,1-.09-.43,1,1,0,0,1,.39-.74,1.43,1.43,0,0,1,1.78,0A1,1,0,0,1,497.07,356.94Zm16.17,0a1,1,0,0,1-.38.77,1.36,1.36,0,0,1-.9.32,1.38,1.38,0,0,1-.91-.32,1,1,0,0,1,0-1.54,1.38,1.38,0,0,1,.91-.32,1.36,1.36,0,0,1,.9.32A1,1,0,0,1,513.24,356.94Zm16.17,0a1,1,0,0,1-.38.77,1.36,1.36,0,0,1-.9.32,1.38,1.38,0,0,1-.91-.32,1,1,0,0,1,0-1.54,1.38,1.38,0,0,1,.91-.32,1.36,1.36,0,0,1,.9.32A1,1,0,0,1,529.41,356.94Zm16.16,0a1,1,0,0,1-.37.77,1.44,1.44,0,0,1-1.81,0,1,1,0,0,1,0-1.54,1.44,1.44,0,0,1,1.81,0A1,1,0,0,1,545.57,356.94Zm16.17,0a1,1,0,0,1-.37.77,1.38,1.38,0,0,1-.91.32,1.36,1.36,0,0,1-.9-.32,1,1,0,0,1,0-1.54,1.36,1.36,0,0,1,.9-.32,1.38,1.38,0,0,1,.91.32A1,1,0,0,1,561.74,356.94Zm16.17,0a1,1,0,0,1-.38.77,1.43,1.43,0,0,1-1.8,0,1,1,0,0,1,0-1.54,1.43,1.43,0,0,1,1.8,0A1,1,0,0,1,577.91,356.94Zm-177.85,14a1,1,0,0,1-.1.42,1,1,0,0,1-.28.35,1.14,1.14,0,0,1-.41.24,1.36,1.36,0,0,1-.49.08,1.33,1.33,0,0,1-.49-.08,1.1,1.1,0,0,1-.42-.24,1.14,1.14,0,0,1-.27-.35.87.87,0,0,1-.1-.42,1,1,0,0,1,.38-.77,1.39,1.39,0,0,1,.9-.32,1.41,1.41,0,0,1,.9.32A1,1,0,0,1,400.06,370.93Zm16.17,0a1,1,0,0,1-.38.77,1.36,1.36,0,0,1-.9.32,1.38,1.38,0,0,1-.91-.32,1,1,0,0,1,0-1.54,1.44,1.44,0,0,1,.91-.32,1.41,1.41,0,0,1,.9.32A1,1,0,0,1,416.23,370.93Zm16.16,0a1,1,0,0,1-.09.42,1.17,1.17,0,0,1-.28.35,1.1,1.1,0,0,1-.42.24,1.33,1.33,0,0,1-.49.08,1.4,1.4,0,0,1-.49-.08,1.14,1.14,0,0,1-.41-.24,1.17,1.17,0,0,1-.28-.35,1,1,0,0,1-.09-.42,1,1,0,0,1,.37-.77,1.44,1.44,0,0,1,1.81,0A1,1,0,0,1,432.39,370.93Zm16.17,0a.87.87,0,0,1-.1.42,1,1,0,0,1-.27.35,1.1,1.1,0,0,1-.42.24,1.33,1.33,0,0,1-.49.08,1.36,1.36,0,0,1-.49-.08,1.14,1.14,0,0,1-.41-.24,1.17,1.17,0,0,1-.28-.35,1,1,0,0,1-.1-.42,1,1,0,0,1,.38-.77,1.41,1.41,0,0,1,.9-.32,1.44,1.44,0,0,1,.91.32A1,1,0,0,1,448.56,370.93Zm16.17,0a.87.87,0,0,1-.1.42,1,1,0,0,1-.27.35,1.1,1.1,0,0,1-.42.24,1.33,1.33,0,0,1-.49.08,1.36,1.36,0,0,1-.49-.08,1.14,1.14,0,0,1-.41-.24,1,1,0,0,1-.28-.35,1,1,0,0,1-.1-.42,1,1,0,0,1,.38-.77,1.41,1.41,0,0,1,.9-.32,1.44,1.44,0,0,1,.91.32A1,1,0,0,1,464.73,370.93Zm16.17,0a1,1,0,0,1-.38.77,1.43,1.43,0,0,1-1.8,0,1,1,0,0,1-.38-.77,1,1,0,0,1,.38-.77,1.43,1.43,0,0,1,1.8,0A1,1,0,0,1,480.9,370.93Zm16.17,0a1,1,0,0,1-.38.77,1.36,1.36,0,0,1-.9.32,1.38,1.38,0,0,1-.91-.32,1,1,0,0,1-.37-.77,1,1,0,0,1,.37-.77,1.44,1.44,0,0,1,.91-.32,1.41,1.41,0,0,1,.9.32A1,1,0,0,1,497.07,370.93Zm16.17,0a1,1,0,0,1-.38.77,1.36,1.36,0,0,1-.9.32,1.38,1.38,0,0,1-.91-.32,1,1,0,0,1-.37-.77.86.86,0,0,1,.1-.41,1,1,0,0,1,.27-.36,1.44,1.44,0,0,1,.42-.24,1.57,1.57,0,0,1,.49-.08,1.62,1.62,0,0,1,.49.08,1.52,1.52,0,0,1,.41.24,1,1,0,0,1,.28.36A1,1,0,0,1,513.24,370.93Zm16.17,0a1,1,0,0,1-.38.77,1.44,1.44,0,0,1-1.81,0,1,1,0,0,1,0-1.54,1.44,1.44,0,0,1,.91-.32,1.41,1.41,0,0,1,.9.32A1,1,0,0,1,529.41,370.93Zm16.16,0a1,1,0,0,1-.37.78,1.43,1.43,0,0,1-.91.31,1.36,1.36,0,0,1-.9-.32,1,1,0,0,1-.38-.77,1,1,0,0,1,.1-.41,1.09,1.09,0,0,1,.28-.36,1.52,1.52,0,0,1,.41-.24,1.67,1.67,0,0,1,.49-.08,1.57,1.57,0,0,1,.49.08,1.44,1.44,0,0,1,.42.24,1,1,0,0,1,.27.36A.86.86,0,0,1,545.57,370.93Zm16.17,0a.87.87,0,0,1-.1.42,1.14,1.14,0,0,1-.27.35,1.1,1.1,0,0,1-.42.24,1.33,1.33,0,0,1-.49.08,1.36,1.36,0,0,1-.49-.08,1.14,1.14,0,0,1-.41-.24,1,1,0,0,1-.28-.35,1,1,0,0,1-.1-.42,1,1,0,0,1,.38-.77,1.41,1.41,0,0,1,.9-.32,1.44,1.44,0,0,1,.91.32A1,1,0,0,1,561.74,370.93Zm16.17,0a1,1,0,0,1-.38.77,1.36,1.36,0,0,1-.9.32,1.4,1.4,0,0,1-.91-.32,1,1,0,0,1-.37-.77.86.86,0,0,1,.1-.41,1,1,0,0,1,.28-.36,1.38,1.38,0,0,1,.41-.24,1.62,1.62,0,0,1,.49-.08,1.57,1.57,0,0,1,.49.08,1.27,1.27,0,0,1,.41.24,1,1,0,0,1,.28.36A.86.86,0,0,1,577.91,370.93Zm-177.85,14a1,1,0,0,1-.1.42,1,1,0,0,1-.28.36,1.27,1.27,0,0,1-.41.23,1.37,1.37,0,0,1-.49.09,1.33,1.33,0,0,1-.49-.09,1.22,1.22,0,0,1-.42-.23,1.17,1.17,0,0,1-.27-.36.87.87,0,0,1-.1-.42,1.05,1.05,0,0,1,.37-.77,1.44,1.44,0,0,1,.91-.32,1.41,1.41,0,0,1,.9.32,1,1,0,0,1,.38.77Zm16.17,0a1,1,0,0,1-.38.78,1.41,1.41,0,0,1-.9.32,1.44,1.44,0,0,1-.91-.32,1,1,0,0,1-.37-.78,1,1,0,0,1,.37-.77,1.44,1.44,0,0,1,.91-.32,1.41,1.41,0,0,1,.9.32A1,1,0,0,1,416.23,384.92Zm16.16,0a1,1,0,0,1-.09.42,1.09,1.09,0,0,1-.28.36,1.22,1.22,0,0,1-.42.23,1.33,1.33,0,0,1-.49.09,1.41,1.41,0,0,1-.49-.09,1.27,1.27,0,0,1-.41-.23,1.21,1.21,0,0,1-.28-.36,1,1,0,0,1-.09-.42,1,1,0,0,1,.37-.77,1.44,1.44,0,0,1,1.81,0A1,1,0,0,1,432.39,384.92Zm16.17,0a.87.87,0,0,1-.1.42,1,1,0,0,1-.27.36,1.22,1.22,0,0,1-.42.23,1.33,1.33,0,0,1-.49.09,1.37,1.37,0,0,1-.49-.09,1.27,1.27,0,0,1-.41-.23,1.21,1.21,0,0,1-.28-.36,1,1,0,0,1-.1-.42,1,1,0,0,1,.38-.77,1.41,1.41,0,0,1,.9-.32,1.44,1.44,0,0,1,.91.32,1,1,0,0,1,.37.77Zm16.17,0a.87.87,0,0,1-.1.42,1,1,0,0,1-.27.36,1.22,1.22,0,0,1-.42.23,1.33,1.33,0,0,1-.49.09,1.37,1.37,0,0,1-.49-.09,1.27,1.27,0,0,1-.41-.23,1.07,1.07,0,0,1-.28-.36,1,1,0,0,1-.1-.42,1,1,0,0,1,.38-.77,1.41,1.41,0,0,1,.9-.32,1.44,1.44,0,0,1,.91.32,1,1,0,0,1,.37.77Zm16.17,0a1,1,0,0,1-.38.78,1.43,1.43,0,0,1-1.8,0,1,1,0,0,1,0-1.55,1.43,1.43,0,0,1,1.8,0A1,1,0,0,1,480.9,384.92Zm16.17,0a1,1,0,0,1-.38.78,1.41,1.41,0,0,1-.9.32,1.44,1.44,0,0,1-.91-.32,1,1,0,0,1,0-1.55,1.44,1.44,0,0,1,.91-.32,1.41,1.41,0,0,1,.9.32A1,1,0,0,1,497.07,384.92Zm16.17,0a1,1,0,0,1-.38.78,1.41,1.41,0,0,1-.9.32,1.44,1.44,0,0,1-.91-.32,1,1,0,0,1-.37-.78,1,1,0,0,1,.37-.77,1.44,1.44,0,0,1,.91-.32,1.41,1.41,0,0,1,.9.32A1,1,0,0,1,513.24,384.92Zm16.17,0a1,1,0,0,1-.38.78,1.44,1.44,0,0,1-1.81,0,1,1,0,0,1-.37-.78,1,1,0,0,1,.37-.77,1.44,1.44,0,0,1,1.81,0,1,1,0,0,1,.37.77Zm16.16,0a1,1,0,0,1-.09.42,1.09,1.09,0,0,1-.28.36,1.22,1.22,0,0,1-.42.23,1.33,1.33,0,0,1-.49.09,1.37,1.37,0,0,1-.49-.09,1.27,1.27,0,0,1-.41-.23,1.09,1.09,0,0,1-.28-.36,1,1,0,0,1-.1-.42,1,1,0,0,1,.38-.77,1.41,1.41,0,0,1,.9-.32,1.44,1.44,0,0,1,.91.32,1,1,0,0,1,.37.77Zm16.17,0a.87.87,0,0,1-.1.42,1.07,1.07,0,0,1-.27.36,1.22,1.22,0,0,1-.42.23,1.33,1.33,0,0,1-.49.09,1.37,1.37,0,0,1-.49-.09,1.27,1.27,0,0,1-.41-.23,1.07,1.07,0,0,1-.28-.36,1,1,0,0,1-.1-.42,1,1,0,0,1,.38-.77,1.41,1.41,0,0,1,.9-.32,1.44,1.44,0,0,1,.91.32A1,1,0,0,1,561.74,384.92Zm16.17,0a1,1,0,0,1-.38.78,1.41,1.41,0,0,1-.9.32,1.46,1.46,0,0,1-.91-.32,1.07,1.07,0,0,1-.37-.78,1,1,0,0,1,.38-.77,1.43,1.43,0,0,1,1.8,0A1,1,0,0,1,577.91,384.92Zm-177.85,14a1,1,0,0,1-.38.77,1.41,1.41,0,0,1-.9.32,1.39,1.39,0,0,1-.9-.32,1,1,0,0,1,0-1.55,1.39,1.39,0,0,1,.9-.32,1.41,1.41,0,0,1,.9.32A1,1,0,0,1,400.06,398.92Zm16.17,0a1,1,0,0,1-.38.77,1.41,1.41,0,0,1-.9.32,1.44,1.44,0,0,1-.91-.32,1,1,0,0,1,0-1.55,1.44,1.44,0,0,1,.91-.32,1.41,1.41,0,0,1,.9.32A1,1,0,0,1,416.23,398.92Zm16.16,0a1,1,0,0,1-.37.77,1.44,1.44,0,0,1-1.81,0,1,1,0,0,1,0-1.55,1.44,1.44,0,0,1,1.81,0A1,1,0,0,1,432.39,398.92Zm16.17,0a1,1,0,0,1-.37.77,1.44,1.44,0,0,1-1.81,0,1,1,0,0,1,0-1.55,1.44,1.44,0,0,1,1.81,0A1,1,0,0,1,448.56,398.92Zm16.17,0a1,1,0,0,1-.37.77,1.44,1.44,0,0,1-.91.32,1.41,1.41,0,0,1-.9-.32,1,1,0,0,1,0-1.55,1.41,1.41,0,0,1,.9-.32,1.44,1.44,0,0,1,.91.32A1,1,0,0,1,464.73,398.92Zm16.17,0a1.09,1.09,0,0,1-.08.43,1.21,1.21,0,0,1-.28.36,1.27,1.27,0,0,1-.42.25,1.43,1.43,0,0,1-1,0,1.27,1.27,0,0,1-.42-.25,1,1,0,0,1-.27-.36,1,1,0,0,1-.09-.43,1.07,1.07,0,0,1,.39-.75,1.43,1.43,0,0,1,1.78,0A1,1,0,0,1,480.9,398.92Zm16.17,0a1,1,0,0,1-.09.43,1,1,0,0,1-.27.36,1.27,1.27,0,0,1-.42.25,1.43,1.43,0,0,1-1,0,1.27,1.27,0,0,1-.42-.25,1,1,0,0,1-.27-.36,1,1,0,0,1-.09-.43,1,1,0,0,1,.39-.75,1.43,1.43,0,0,1,1.78,0A1.05,1.05,0,0,1,497.07,398.92Zm16.17,0a1,1,0,0,1-.38.77,1.41,1.41,0,0,1-.9.32,1.44,1.44,0,0,1-.91-.32,1,1,0,0,1,0-1.55,1.44,1.44,0,0,1,.91-.32,1.41,1.41,0,0,1,.9.32A1,1,0,0,1,513.24,398.92Zm16.17,0a1,1,0,0,1-.38.77,1.41,1.41,0,0,1-.9.32,1.44,1.44,0,0,1-.91-.32,1,1,0,0,1,0-1.55,1.44,1.44,0,0,1,.91-.32,1.41,1.41,0,0,1,.9.32A1,1,0,0,1,529.41,398.92Zm16.16,0a1,1,0,0,1-.37.77,1.44,1.44,0,0,1-1.81,0,1,1,0,0,1,0-1.55,1.44,1.44,0,0,1,1.81,0A1,1,0,0,1,545.57,398.92Zm16.17,0a1,1,0,0,1-.37.77,1.44,1.44,0,0,1-.91.32,1.41,1.41,0,0,1-.9-.32,1,1,0,0,1,0-1.55,1.41,1.41,0,0,1,.9-.32,1.44,1.44,0,0,1,.91.32A1,1,0,0,1,561.74,398.92Zm16.17,0a1,1,0,0,1-.38.77,1.43,1.43,0,0,1-1.8,0,1,1,0,0,1,0-1.55,1.43,1.43,0,0,1,1.8,0A1,1,0,0,1,577.91,398.92Zm-177.85,14a1.07,1.07,0,0,1-.1.42,1,1,0,0,1-.28.35,1.52,1.52,0,0,1-.41.24,1.62,1.62,0,0,1-.49.08,1.57,1.57,0,0,1-.49-.08,1.44,1.44,0,0,1-.42-.24,1.14,1.14,0,0,1-.27-.35.92.92,0,0,1-.1-.42,1,1,0,0,1,.37-.77,1.38,1.38,0,0,1,.91-.32,1.36,1.36,0,0,1,.9.32,1,1,0,0,1,.38.77Zm16.17,0a1,1,0,0,1-.38.77,1.41,1.41,0,0,1-.9.32,1.44,1.44,0,0,1-.91-.32,1,1,0,0,1-.37-.77,1,1,0,0,1,.37-.77,1.38,1.38,0,0,1,.91-.32,1.36,1.36,0,0,1,.9.32A1,1,0,0,1,416.23,412.91Zm16.16,0a1.06,1.06,0,0,1-.09.42,1.17,1.17,0,0,1-.28.35,1.44,1.44,0,0,1-.42.24,1.57,1.57,0,0,1-.49.08,1.67,1.67,0,0,1-.49-.08,1.52,1.52,0,0,1-.41-.24,1.17,1.17,0,0,1-.28-.35,1.06,1.06,0,0,1-.09-.42,1,1,0,0,1,.37-.77,1.44,1.44,0,0,1,1.81,0A1,1,0,0,1,432.39,412.91Zm16.17,0a.92.92,0,0,1-.1.42,1,1,0,0,1-.27.35,1.44,1.44,0,0,1-.42.24,1.57,1.57,0,0,1-.49.08,1.62,1.62,0,0,1-.49-.08,1.52,1.52,0,0,1-.41-.24,1.17,1.17,0,0,1-.28-.35,1.07,1.07,0,0,1-.1-.42,1,1,0,0,1,.38-.77,1.36,1.36,0,0,1,.9-.32,1.38,1.38,0,0,1,.91.32,1,1,0,0,1,.37.77Zm16.17,0a.92.92,0,0,1-.1.42,1,1,0,0,1-.27.35,1.44,1.44,0,0,1-.42.24,1.57,1.57,0,0,1-.49.08,1.62,1.62,0,0,1-.49-.08,1.52,1.52,0,0,1-.41-.24,1,1,0,0,1-.28-.35,1.07,1.07,0,0,1-.1-.42,1,1,0,0,1,.38-.77,1.36,1.36,0,0,1,.9-.32,1.38,1.38,0,0,1,.91.32,1,1,0,0,1,.37.77Zm16.17,0a1,1,0,0,1-.38.77,1.43,1.43,0,0,1-1.8,0,1,1,0,0,1,0-1.54,1.43,1.43,0,0,1,1.8,0A1,1,0,0,1,480.9,412.91Zm16.17,0a1,1,0,0,1-.38.77,1.36,1.36,0,0,1-.9.32,1.38,1.38,0,0,1-.91-.32,1,1,0,0,1,0-1.54,1.38,1.38,0,0,1,.91-.32,1.36,1.36,0,0,1,.9.32A1,1,0,0,1,497.07,412.91Zm16.17,0a1,1,0,0,1-.38.77,1.36,1.36,0,0,1-.9.32,1.44,1.44,0,0,1-.91-.32,1,1,0,0,1,0-1.54,1.38,1.38,0,0,1,.91-.32,1.36,1.36,0,0,1,.9.32A1,1,0,0,1,513.24,412.91Zm16.17,0a1,1,0,0,1-.38.77,1.38,1.38,0,0,1-.91.32,1.43,1.43,0,0,1-.9-.32,1,1,0,0,1,0-1.54,1.44,1.44,0,0,1,1.81,0,1,1,0,0,1,.37.77Zm16.16,0a1,1,0,0,1-.37.77,1.38,1.38,0,0,1-.91.32,1.36,1.36,0,0,1-.9-.32,1,1,0,0,1,0-1.54,1.36,1.36,0,0,1,.9-.32,1.38,1.38,0,0,1,.91.32,1,1,0,0,1,.37.77Zm16.17,0a.92.92,0,0,1-.1.42,1.14,1.14,0,0,1-.27.35,1.44,1.44,0,0,1-.42.24,1.57,1.57,0,0,1-.49.08,1.62,1.62,0,0,1-.49-.08,1.52,1.52,0,0,1-.41-.24,1,1,0,0,1-.28-.35,1.07,1.07,0,0,1-.1-.42,1,1,0,0,1,.38-.77,1.36,1.36,0,0,1,.9-.32,1.38,1.38,0,0,1,.91.32A1,1,0,0,1,561.74,412.91Zm16.17,0a1,1,0,0,1-.38.77,1.36,1.36,0,0,1-.9.32,1.46,1.46,0,0,1-.91-.32,1,1,0,0,1-.37-.77,1,1,0,0,1,.38-.77,1.43,1.43,0,0,1,1.8,0A1,1,0,0,1,577.91,412.91Z"/><path class="cls-4" d="M533,207.07l20.33.57-.46-17.22L573,191l-.47-17.22,20.14.57-.47-17.22,20.14.58-.46-17.22"/><path class="cls-1" d="M10.43,403,10,416l15.07-.36-.43,12.84,15.07-.36-.42,12.85,15.07-.36-.43,12.84L69,453.06"/></svg>