<svg width="181" height="143" viewBox="0 0 181 143" fill="none" xmlns="http://www.w3.org/2000/svg">
<path d="M3.05805 1.99149C3.05805 2.28115 2.92332 2.55893 2.68346 2.76375C2.44359 2.96857 2.11825 3.08365 1.77903 3.08365C1.4398 3.08365 1.11446 2.96857 0.874593 2.76375C0.634727 2.55893 0.5 2.28115 0.5 1.99149C0.5 1.70193 0.634703 1.42423 0.874489 1.21948C1.11427 1.01473 1.4395 0.899708 1.77861 0.899708C2.11772 0.899708 2.44294 1.01473 2.68273 1.21948C2.92252 1.42423 3.05805 1.70193 3.05805 1.99149ZM19.2256 1.99149C19.2256 2.28105 19.0909 2.55876 18.8511 2.76351C18.6113 2.96825 18.2861 3.08327 17.947 3.08327C17.6079 3.08327 17.2827 2.96825 17.0429 2.76351C16.8032 2.55876 16.6684 2.28105 16.6684 1.99149C16.6684 1.70193 16.8032 1.42423 17.0429 1.21948C17.2827 1.01473 17.6079 0.899708 17.947 0.899708C18.2861 0.899708 18.6113 1.01473 18.8511 1.21948C19.0909 1.42423 19.2256 1.70193 19.2256 1.99149ZM35.3941 1.99149C35.3941 2.28115 35.2593 2.55893 35.0195 2.76375C34.7796 2.96857 34.4543 3.08365 34.1151 3.08365C33.7758 3.08365 33.4505 2.96857 33.2106 2.76375C32.9708 2.55893 32.836 2.28115 32.836 1.99149C32.836 1.70184 32.9708 1.42405 33.2106 1.21923C33.4505 1.01442 33.7758 0.899353 34.1151 0.899353C34.4543 0.899353 34.7796 1.01442 35.0195 1.21923C35.2593 1.42405 35.3941 1.70184 35.3941 1.99149ZM51.5625 1.99149C51.5625 2.28115 51.4277 2.55893 51.1879 2.76375C50.948 2.96857 50.6227 3.08365 50.2835 3.08365C49.9443 3.08365 49.6189 2.96857 49.3791 2.76375C49.1392 2.55893 49.0045 2.28115 49.0045 1.99149C49.0045 1.70193 49.1392 1.42423 49.379 1.21948C49.6188 1.01473 49.944 0.899708 50.2831 0.899708C50.6222 0.899708 50.9474 1.01473 51.1872 1.21948C51.4269 1.42423 51.5625 1.70193 51.5625 1.99149ZM67.731 1.99149C67.731 2.28115 67.5962 2.55893 67.3563 2.76375C67.1165 2.96857 66.7911 3.08365 66.4519 3.08365C66.1127 3.08365 65.7874 2.96857 65.5475 2.76375C65.3077 2.55893 65.1729 2.28115 65.1729 1.99149C65.1729 1.70193 65.3076 1.42423 65.5474 1.21948C65.7872 1.01473 66.1124 0.899708 66.4515 0.899708C66.7906 0.899708 67.1158 1.01473 67.3556 1.21948C67.5954 1.42423 67.731 1.70193 67.731 1.99149ZM83.8986 1.99149C83.8986 2.28105 83.7639 2.55876 83.5241 2.76351C83.2843 2.96825 82.9591 3.08327 82.6199 3.08327C82.2808 3.08327 81.9556 2.96825 81.7158 2.76351C81.476 2.55876 81.3413 2.28105 81.3413 1.99149C81.3413 1.70193 81.476 1.42423 81.7158 1.21948C81.9556 1.01473 82.2808 0.899708 82.6199 0.899708C82.9591 0.899708 83.2843 1.01473 83.5241 1.21948C83.7639 1.42423 83.8986 1.70193 83.8986 1.99149ZM100.067 1.99149C100.067 2.28105 99.9323 2.55876 99.6925 2.76351C99.4527 2.96825 99.1275 3.08327 98.7884 3.08327C98.4493 3.08327 98.1241 2.96825 97.8843 2.76351C97.6445 2.55876 97.5098 2.28105 97.5098 1.99149C97.5098 1.70193 97.6445 1.42423 97.8843 1.21948C98.1241 1.01473 98.4493 0.899708 98.7884 0.899708C99.1275 0.899708 99.4527 1.01473 99.6925 1.21948C99.9323 1.42423 100.067 1.70193 100.067 1.99149ZM116.236 1.99149C116.236 2.28115 116.102 2.55893 115.862 2.76375C115.622 2.96857 115.296 3.08365 114.957 3.08365C114.618 3.08365 114.293 2.96857 114.053 2.76375C113.813 2.55893 113.678 2.28115 113.678 1.99149C113.678 1.70184 113.813 1.42405 114.053 1.21923C114.293 1.01442 114.618 0.899353 114.957 0.899353C115.296 0.899353 115.622 1.01442 115.862 1.21923C116.102 1.42405 116.236 1.70184 116.236 1.99149ZM132.405 1.99149C132.405 2.28115 132.27 2.55893 132.03 2.76375C131.79 2.96857 131.465 3.08365 131.126 3.08365C130.786 3.08365 130.461 2.96857 130.221 2.76375C129.981 2.55893 129.847 2.28115 129.847 1.99149C129.847 1.70193 129.981 1.42423 130.221 1.21948C130.461 1.01473 130.786 0.899708 131.125 0.899708C131.464 0.899708 131.79 1.01473 132.029 1.21948C132.269 1.42423 132.405 1.70193 132.405 1.99149ZM148.573 1.99149C148.573 2.28124 148.438 2.55913 148.198 2.76402C147.958 2.9689 147.633 3.08401 147.294 3.08401C146.954 3.08401 146.629 2.9689 146.389 2.76402C146.149 2.55913 146.014 2.28124 146.014 1.99149C146.014 1.70184 146.149 1.42405 146.389 1.21923C146.629 1.01442 146.954 0.899353 147.293 0.899353C147.633 0.899353 147.958 1.01442 148.198 1.21923C148.438 1.42405 148.573 1.70184 148.573 1.99149ZM164.741 1.99149C164.741 2.28105 164.606 2.55876 164.366 2.76351C164.126 2.96825 163.801 3.08327 163.462 3.08327C163.123 3.08327 162.798 2.96825 162.558 2.76351C162.318 2.55876 162.184 2.28105 162.184 1.99149C162.184 1.70193 162.318 1.42423 162.558 1.21948C162.798 1.01473 163.123 0.899708 163.462 0.899708C163.801 0.899708 164.126 1.01473 164.366 1.21948C164.606 1.42423 164.741 1.70193 164.741 1.99149ZM180.909 1.99149C180.909 2.28115 180.774 2.55893 180.535 2.76375C180.295 2.96857 179.969 3.08365 179.63 3.08365C179.291 3.08365 178.966 2.96857 178.726 2.76375C178.486 2.55893 178.351 2.28115 178.351 1.99149C178.351 1.70184 178.486 1.42405 178.726 1.21923C178.966 1.01442 179.291 0.899353 179.63 0.899353C179.969 0.899353 180.295 1.01442 180.535 1.21923C180.774 1.42405 180.909 1.70184 180.909 1.99149ZM3.05805 15.9831C3.05799 16.1265 3.02488 16.2685 2.96055 16.401C2.89622 16.5335 2.80196 16.6538 2.68315 16.7552C2.56434 16.8566 2.42328 16.937 2.26808 16.9918C2.11288 17.0467 1.94657 17.0749 1.77861 17.0748C1.61064 17.0748 1.4443 17.0465 1.28914 16.9916C1.13398 16.9366 0.993062 16.8562 0.874332 16.7547C0.755603 16.6533 0.661412 16.5328 0.597186 16.4003C0.53296 16.2678 0.499944 16.1258 0.5 15.9823C0.500113 15.6928 0.634935 15.4151 0.874801 15.2104C1.11467 15.0058 1.43992 14.8908 1.77903 14.8909C2.11813 14.891 2.44328 15.0061 2.68299 15.2109C2.9227 15.4158 3.05816 15.6935 3.05805 15.9831ZM19.2256 15.9831C19.2255 16.2726 19.0907 16.5503 18.8509 16.755C18.611 16.9596 18.2857 17.0746 17.9466 17.0745C17.6075 17.0744 17.2823 16.9593 17.0426 16.7544C16.8029 16.5496 16.6683 16.2719 16.6684 15.9823C16.6685 15.6928 16.8033 15.4151 17.0432 15.2104C17.2831 15.0058 17.6084 14.8908 17.9475 14.8909C18.2866 14.891 18.6117 15.0061 18.8514 15.2109C19.0912 15.4158 19.2257 15.6935 19.2256 15.9831ZM35.3941 15.9831C35.394 16.1265 35.3609 16.2685 35.2966 16.401C35.2322 16.5335 35.138 16.6538 35.0192 16.7552C34.9004 16.8566 34.7593 16.937 34.6041 16.9918C34.4489 17.0467 34.2826 17.0749 34.1146 17.0748C33.9467 17.0748 33.7803 17.0465 33.6252 16.9916C33.47 16.9366 33.3291 16.8562 33.2104 16.7547C33.0916 16.6533 32.9974 16.5328 32.9332 16.4003C32.869 16.2678 32.836 16.1258 32.836 15.9823C32.8361 15.6927 32.971 15.4149 33.2109 15.2102C33.4509 15.0054 33.7762 14.8905 34.1155 14.8906C34.4547 14.8907 34.78 15.0058 35.0197 15.2107C35.2595 15.4156 35.3942 15.6934 35.3941 15.9831ZM51.5625 15.9831C51.5625 16.1265 51.5293 16.2685 51.465 16.401C51.4007 16.5335 51.3064 16.6538 51.1876 16.7552C51.0688 16.8566 50.9278 16.937 50.7726 16.9918C50.6174 17.0467 50.4511 17.0749 50.2831 17.0748C50.1151 17.0748 49.9488 17.0465 49.7936 16.9916C49.6385 16.9366 49.4975 16.8562 49.3788 16.7547C49.26 16.6533 49.1659 16.5328 49.1017 16.4003C49.0374 16.2678 49.0044 16.1258 49.0045 15.9823C49.0046 15.6928 49.1394 15.4151 49.3792 15.2104C49.6191 15.0058 49.9444 14.8908 50.2835 14.8909C50.6226 14.891 50.9478 15.0061 51.1875 15.2109C51.4272 15.4158 51.5626 15.6935 51.5625 15.9831ZM67.731 15.9831C67.7309 16.1265 67.6978 16.2685 67.6334 16.401C67.5691 16.5335 67.4748 16.6538 67.356 16.7552C67.2372 16.8566 67.0962 16.937 66.941 16.9918C66.7858 17.0467 66.6195 17.0749 66.4515 17.0748C66.2835 17.0748 66.1172 17.0465 65.9621 16.9916C65.8069 16.9366 65.6659 16.8562 65.5472 16.7547C65.4285 16.6533 65.3343 16.5328 65.2701 16.4003C65.2058 16.2678 65.1728 16.1258 65.1729 15.9823C65.173 15.6928 65.3078 15.4151 65.5477 15.2104C65.7876 15.0058 66.1128 14.8908 66.4519 14.8909C66.791 14.891 67.1162 15.0061 67.3559 15.2109C67.5956 15.4158 67.7311 15.6935 67.731 15.9831ZM83.8986 15.9831C83.8986 16.2726 83.7639 16.5503 83.5241 16.7551C83.2843 16.9598 82.9591 17.0748 82.6199 17.0748C82.2808 17.0748 81.9556 16.9598 81.7158 16.7551C81.476 16.5503 81.3413 16.2726 81.3413 15.9831C81.3413 15.6935 81.476 15.4158 81.7158 15.2111C81.9556 15.0063 82.2808 14.8913 82.6199 14.8913C82.9591 14.8913 83.2843 15.0063 83.5241 15.2111C83.7639 15.4158 83.8986 15.6935 83.8986 15.9831ZM100.067 15.9831C100.067 16.2726 99.9323 16.5503 99.6925 16.7551C99.4527 16.9598 99.1275 17.0748 98.7884 17.0748C98.4493 17.0748 98.1241 16.9598 97.8843 16.7551C97.6445 16.5503 97.5098 16.2726 97.5098 15.9831C97.5098 15.6935 97.6445 15.4158 97.8843 15.2111C98.1241 15.0063 98.4493 14.8913 98.7884 14.8913C99.1275 14.8913 99.4527 15.0063 99.6925 15.2111C99.9323 15.4158 100.067 15.6935 100.067 15.9831ZM116.236 15.9831C116.236 16.2727 116.101 16.5505 115.861 16.7552C115.621 16.96 115.296 17.0749 114.957 17.0748C114.618 17.0747 114.292 16.9596 114.053 16.7547C113.813 16.5498 113.678 16.272 113.678 15.9823C113.678 15.6927 113.813 15.4149 114.053 15.2102C114.293 15.0054 114.618 14.8905 114.958 14.8906C115.297 14.8907 115.622 15.0058 115.862 15.2107C116.102 15.4156 116.236 15.6934 116.236 15.9831ZM132.405 15.9831C132.405 16.2727 132.27 16.5505 132.03 16.7552C131.79 16.96 131.464 17.0749 131.125 17.0748C130.786 17.0747 130.461 16.9596 130.221 16.7547C129.981 16.5498 129.847 16.272 129.847 15.9823C129.847 15.6928 129.982 15.4151 130.221 15.2104C130.461 15.0058 130.787 14.8908 131.126 14.8909C131.465 14.891 131.79 15.0061 132.03 15.2109C132.269 15.4158 132.405 15.6935 132.405 15.9831ZM148.573 15.9831C148.573 16.1265 148.54 16.2686 148.476 16.4011C148.411 16.5336 148.317 16.6541 148.198 16.7555C148.079 16.8569 147.938 16.9373 147.783 16.9922C147.628 17.047 147.461 17.0753 147.293 17.0752C147.125 17.0752 146.959 17.0469 146.804 16.9919C146.648 16.937 146.507 16.8564 146.389 16.755C146.27 16.6535 146.176 16.533 146.111 16.4004C146.047 16.2679 146.014 16.1258 146.014 15.9823C146.014 15.6927 146.149 15.4149 146.389 15.2102C146.629 15.0054 146.954 14.8905 147.294 14.8906C147.633 14.8907 147.958 15.0058 148.198 15.2107C148.438 15.4156 148.573 15.6934 148.573 15.9831ZM164.741 15.9831C164.741 16.1264 164.708 16.2684 164.643 16.4008C164.579 16.5333 164.485 16.6536 164.366 16.755C164.247 16.8563 164.106 16.9367 163.951 16.9915C163.796 17.0463 163.63 17.0745 163.462 17.0745C163.294 17.0744 163.128 17.0461 162.972 16.9912C162.817 16.9363 162.676 16.8559 162.558 16.7544C162.439 16.653 162.345 16.5327 162.281 16.4002C162.216 16.2677 162.184 16.1257 162.184 15.9823C162.184 15.6928 162.318 15.4151 162.558 15.2104C162.798 15.0058 163.123 14.8908 163.463 14.8909C163.802 14.891 164.127 15.0061 164.367 15.2109C164.606 15.4158 164.741 15.6935 164.741 15.9831ZM180.909 15.9831C180.909 16.2727 180.774 16.5505 180.534 16.7552C180.294 16.96 179.969 17.0749 179.63 17.0748C179.291 17.0747 178.965 16.9596 178.725 16.7547C178.486 16.5498 178.351 16.272 178.351 15.9823C178.351 15.6927 178.486 15.4149 178.726 15.2102C178.966 15.0054 179.291 14.8905 179.631 14.8906C179.97 14.8907 180.295 15.0058 180.535 15.2107C180.775 15.4156 180.909 15.6934 180.909 15.9831ZM3.05805 29.9753C3.05799 30.1188 3.02488 30.2608 2.96055 30.3933C2.89622 30.5258 2.80196 30.6461 2.68315 30.7475C2.56434 30.8489 2.42328 30.9293 2.26808 30.9841C2.11288 31.039 1.94657 31.0672 1.77861 31.0671C1.61064 31.0671 1.4443 31.0388 1.28914 30.9839C1.13398 30.9289 0.993062 30.8485 0.874332 30.747C0.755603 30.6456 0.661412 30.5251 0.597186 30.3926C0.53296 30.2601 0.499944 30.1181 0.5 29.9746C0.5 29.6851 0.634703 29.4074 0.874489 29.2026C1.11427 28.9979 1.4395 28.8828 1.77861 28.8828C2.11772 28.8828 2.44294 28.9979 2.68273 29.2026C2.92252 29.4074 3.05722 29.6851 3.05722 29.9746L3.05805 29.9753ZM19.2256 29.9753C19.2255 30.2649 19.0907 30.5426 18.8509 30.7472C18.611 30.9519 18.2857 31.0669 17.9466 31.0668C17.6075 31.0667 17.2823 30.9515 17.0426 30.7467C16.8029 30.5419 16.6683 30.2642 16.6684 29.9746C16.6684 29.6851 16.8032 29.4074 17.0429 29.2026C17.2827 28.9979 17.6079 28.8828 17.947 28.8828C18.2861 28.8828 18.6113 28.9979 18.8511 29.2026C19.0909 29.4074 19.2256 29.6858 19.2256 29.9753ZM35.3941 29.9753C35.394 30.1188 35.3609 30.2608 35.2966 30.3933C35.2322 30.5258 35.138 30.6461 35.0192 30.7475C34.9004 30.8489 34.7593 30.9293 34.6041 30.9841C34.4489 31.039 34.2826 31.0672 34.1146 31.0671C33.9467 31.0671 33.7803 31.0388 33.6252 30.9839C33.47 30.9289 33.3291 30.8485 33.2104 30.747C33.0916 30.6456 32.9974 30.5251 32.9332 30.3926C32.869 30.2601 32.836 30.1181 32.836 29.9746C32.836 29.685 32.9708 29.4072 33.2106 29.2024C33.4505 28.9975 33.7758 28.8825 34.1151 28.8825C34.4543 28.8825 34.7796 28.9975 35.0195 29.2024C35.2593 29.4072 35.3941 29.6857 35.3941 29.9753ZM51.5625 29.9753C51.5625 30.1188 51.5293 30.2608 51.465 30.3933C51.4007 30.5258 51.3064 30.6461 51.1876 30.7475C51.0688 30.8489 50.9278 30.9293 50.7726 30.9841C50.6174 31.039 50.4511 31.0672 50.2831 31.0671C50.1151 31.0671 49.9488 31.0388 49.7936 30.9839C49.6385 30.9289 49.4975 30.8485 49.3788 30.747C49.26 30.6456 49.1659 30.5251 49.1017 30.3926C49.0374 30.2601 49.0044 30.1181 49.0045 29.9746C49.0045 29.6851 49.1392 29.4074 49.379 29.2026C49.6188 28.9979 49.944 28.8828 50.2831 28.8828C50.6222 28.8828 50.9474 28.9979 51.1872 29.2026C51.4269 29.4074 51.5617 29.6851 51.5617 29.9746L51.5625 29.9753ZM67.731 29.9753C67.7309 30.1188 67.6978 30.2608 67.6334 30.3933C67.5691 30.5258 67.4748 30.6461 67.356 30.7475C67.2372 30.8489 67.0962 30.9293 66.941 30.9841C66.7858 31.039 66.6195 31.0672 66.4515 31.0671C66.2835 31.0671 66.1172 31.0388 65.9621 30.9839C65.8069 30.9289 65.6659 30.8485 65.5472 30.747C65.4285 30.6456 65.3343 30.5251 65.2701 30.3926C65.2058 30.2601 65.1728 30.1181 65.1729 29.9746C65.1729 29.6851 65.3076 29.4074 65.5474 29.2026C65.7872 28.9979 66.1124 28.8828 66.4515 28.8828C66.7906 28.8828 67.1158 28.9979 67.3556 29.2026C67.5954 29.4074 67.7301 29.6851 67.7301 29.9746L67.731 29.9753ZM83.8986 29.9753C83.8986 30.2649 83.7639 30.5426 83.5241 30.7474C83.2843 30.9521 82.9591 31.0671 82.6199 31.0671C82.2808 31.0671 81.9556 30.9521 81.7158 30.7474C81.476 30.5426 81.3413 30.2649 81.3413 29.9753C81.3413 29.6858 81.476 29.4081 81.7158 29.2034C81.9556 28.9986 82.2808 28.8836 82.6199 28.8836C82.9591 28.8836 83.2843 28.9986 83.5241 29.2034C83.7639 29.4081 83.8986 29.6858 83.8986 29.9753ZM100.067 29.9753C100.067 30.2649 99.9323 30.5426 99.6925 30.7474C99.4527 30.9521 99.1275 31.0671 98.7884 31.0671C98.4493 31.0671 98.1241 30.9521 97.8843 30.7474C97.6445 30.5426 97.5098 30.2649 97.5098 29.9753C97.5098 29.6858 97.6445 29.4081 97.8843 29.2034C98.1241 28.9986 98.4493 28.8836 98.7884 28.8836C99.1275 28.8836 99.4527 28.9986 99.6925 29.2034C99.9323 29.4081 100.067 29.6858 100.067 29.9753ZM116.236 29.9753C116.236 30.265 116.101 30.5428 115.861 30.7475C115.621 30.9523 115.296 31.0672 114.957 31.0671C114.618 31.067 114.292 30.9519 114.053 30.747C113.813 30.5421 113.678 30.2643 113.678 29.9746C113.678 29.685 113.813 29.4072 114.053 29.2024C114.293 28.9975 114.618 28.8825 114.957 28.8825C115.296 28.8825 115.622 28.9975 115.862 29.2024C116.102 29.4072 116.236 29.6857 116.236 29.9753ZM132.405 29.9753C132.405 30.265 132.27 30.5428 132.03 30.7475C131.79 30.9523 131.464 31.0672 131.125 31.0671C130.786 31.067 130.461 30.9519 130.221 30.747C129.981 30.5421 129.847 30.2643 129.847 29.9746C129.847 29.6851 129.981 29.4074 130.221 29.2026C130.461 28.9979 130.786 28.8828 131.125 28.8828C131.464 28.8828 131.79 28.9979 132.029 29.2026C132.269 29.4074 132.404 29.6851 132.404 29.9746L132.405 29.9753ZM148.573 29.9753C148.573 30.2651 148.438 30.543 148.198 30.7478C147.958 30.9526 147.633 31.0676 147.293 31.0675C146.954 31.0674 146.629 30.9522 146.389 30.7472C146.149 30.5423 146.014 30.2644 146.014 29.9746C146.014 29.685 146.149 29.4072 146.389 29.2024C146.629 28.9975 146.954 28.8825 147.293 28.8825C147.633 28.8825 147.958 28.9975 148.198 29.2024C148.438 29.4072 148.572 29.685 148.572 29.9746L148.573 29.9753ZM164.741 29.9753C164.741 30.1187 164.708 30.2607 164.643 30.3931C164.579 30.5256 164.485 30.6459 164.366 30.7472C164.247 30.8486 164.106 30.929 163.951 30.9838C163.796 31.0386 163.63 31.0668 163.462 31.0668C163.294 31.0667 163.128 31.0384 162.972 30.9835C162.817 30.9286 162.676 30.8481 162.558 30.7467C162.439 30.6453 162.345 30.5249 162.281 30.3925C162.216 30.26 162.184 30.118 162.184 29.9746C162.184 29.6851 162.318 29.4074 162.558 29.2026C162.798 28.9979 163.123 28.8828 163.462 28.8828C163.801 28.8828 164.126 28.9979 164.366 29.2026C164.606 29.4074 164.741 29.6858 164.741 29.9753ZM180.909 29.9753C180.909 30.265 180.774 30.5428 180.534 30.7475C180.294 30.9523 179.969 31.0672 179.63 31.0671C179.291 31.067 178.965 30.9519 178.725 30.747C178.486 30.5421 178.351 30.2643 178.351 29.9746C178.351 29.685 178.486 29.4072 178.726 29.2024C178.966 28.9975 179.291 28.8825 179.63 28.8825C179.969 28.8825 180.295 28.9975 180.535 29.2024C180.774 29.4072 180.909 29.6857 180.909 29.9753ZM3.05805 43.9662C3.05805 44.2558 2.92332 44.5336 2.68346 44.7384C2.44359 44.9433 2.11825 45.0583 1.77903 45.0583C1.4398 45.0583 1.11446 44.9433 0.874593 44.7384C0.634727 44.5336 0.5 44.2558 0.5 43.9662C0.5 43.6766 0.634703 43.3989 0.874489 43.1942C1.11427 42.9894 1.4395 42.8744 1.77861 42.8744C2.11772 42.8744 2.44294 42.9894 2.68273 43.1942C2.92252 43.3989 3.05805 43.6766 3.05805 43.9662ZM19.2256 43.9662C19.2256 44.2557 19.0909 44.5335 18.8511 44.7382C18.6113 44.943 18.2861 45.058 17.947 45.058C17.6079 45.058 17.2827 44.943 17.0429 44.7382C16.8032 44.5335 16.6684 44.2557 16.6684 43.9662C16.6684 43.6766 16.8032 43.3989 17.0429 43.1942C17.2827 42.9894 17.6079 42.8744 17.947 42.8744C18.2861 42.8744 18.6113 42.9894 18.8511 43.1942C19.0909 43.3989 19.2256 43.6766 19.2256 43.9662ZM35.3941 43.9662C35.3941 44.2558 35.2593 44.5336 35.0195 44.7384C34.7796 44.9433 34.4543 45.0583 34.1151 45.0583C33.7758 45.0583 33.4505 44.9433 33.2106 44.7384C32.9708 44.5336 32.836 44.2558 32.836 43.9662C32.836 43.6765 32.9708 43.3988 33.2106 43.1939C33.4505 42.9891 33.7758 42.8741 34.1151 42.8741C34.4543 42.8741 34.7796 42.9891 35.0195 43.1939C35.2593 43.3988 35.3941 43.6765 35.3941 43.9662ZM51.5625 43.9662C51.5625 44.2558 51.4277 44.5336 51.1879 44.7384C50.948 44.9433 50.6227 45.0583 50.2835 45.0583C49.9443 45.0583 49.6189 44.9433 49.3791 44.7384C49.1392 44.5336 49.0045 44.2558 49.0045 43.9662C49.0045 43.6766 49.1392 43.3989 49.379 43.1942C49.6188 42.9894 49.944 42.8744 50.2831 42.8744C50.6222 42.8744 50.9474 42.9894 51.1872 43.1942C51.4269 43.3989 51.5625 43.6766 51.5625 43.9662ZM67.731 43.9662C67.731 44.2558 67.5962 44.5336 67.3563 44.7384C67.1165 44.9433 66.7911 45.0583 66.4519 45.0583C66.1127 45.0583 65.7874 44.9433 65.5475 44.7384C65.3077 44.5336 65.1729 44.2558 65.1729 43.9662C65.1729 43.6766 65.3076 43.3989 65.5474 43.1942C65.7872 42.9894 66.1124 42.8744 66.4515 42.8744C66.7906 42.8744 67.1158 42.9894 67.3556 43.1942C67.5954 43.3989 67.731 43.6766 67.731 43.9662ZM83.8986 43.9662C83.8986 44.2557 83.7639 44.5335 83.5241 44.7382C83.2843 44.943 82.9591 45.058 82.6199 45.058C82.2808 45.058 81.9556 44.943 81.7158 44.7382C81.476 44.5335 81.3413 44.2557 81.3413 43.9662C81.3413 43.6766 81.476 43.3989 81.7158 43.1942C81.9556 42.9894 82.2808 42.8744 82.6199 42.8744C82.9591 42.8744 83.2843 42.9894 83.5241 43.1942C83.7639 43.3989 83.8986 43.6766 83.8986 43.9662ZM100.067 43.9662C100.067 44.2557 99.9323 44.5335 99.6925 44.7382C99.4527 44.943 99.1275 45.058 98.7884 45.058C98.4493 45.058 98.1241 44.943 97.8843 44.7382C97.6445 44.5335 97.5098 44.2557 97.5098 43.9662C97.5098 43.6766 97.6445 43.3989 97.8843 43.1942C98.1241 42.9894 98.4493 42.8744 98.7884 42.8744C99.1275 42.8744 99.4527 42.9894 99.6925 43.1942C99.9323 43.3989 100.067 43.6766 100.067 43.9662ZM116.236 43.9662C116.236 44.2558 116.102 44.5336 115.862 44.7384C115.622 44.9433 115.296 45.0583 114.957 45.0583C114.618 45.0583 114.293 44.9433 114.053 44.7384C113.813 44.5336 113.678 44.2558 113.678 43.9662C113.678 43.6765 113.813 43.3988 114.053 43.1939C114.293 42.9891 114.618 42.8741 114.957 42.8741C115.296 42.8741 115.622 42.9891 115.862 43.1939C116.102 43.3988 116.236 43.6765 116.236 43.9662ZM132.405 43.9662C132.405 44.2558 132.27 44.5336 132.03 44.7384C131.79 44.9433 131.465 45.0583 131.126 45.0583C130.786 45.0583 130.461 44.9433 130.221 44.7384C129.981 44.5336 129.847 44.2558 129.847 43.9662C129.847 43.6766 129.981 43.3989 130.221 43.1942C130.461 42.9894 130.786 42.8744 131.125 42.8744C131.464 42.8744 131.79 42.9894 132.029 43.1942C132.269 43.3989 132.405 43.6766 132.405 43.9662ZM148.573 43.9662C148.573 44.2559 148.438 44.5338 148.198 44.7387C147.958 44.9436 147.633 45.0587 147.294 45.0587C146.954 45.0587 146.629 44.9436 146.389 44.7387C146.149 44.5338 146.014 44.2559 146.014 43.9662C146.014 43.6765 146.149 43.3988 146.389 43.1939C146.629 42.9891 146.954 42.8741 147.293 42.8741C147.633 42.8741 147.958 42.9891 148.198 43.1939C148.438 43.3988 148.573 43.6765 148.573 43.9662ZM164.741 43.9662C164.741 44.2557 164.606 44.5335 164.366 44.7382C164.126 44.943 163.801 45.058 163.462 45.058C163.123 45.058 162.798 44.943 162.558 44.7382C162.318 44.5335 162.184 44.2557 162.184 43.9662C162.184 43.6766 162.318 43.3989 162.558 43.1942C162.798 42.9894 163.123 42.8744 163.462 42.8744C163.801 42.8744 164.126 42.9894 164.366 43.1942C164.606 43.3989 164.741 43.6766 164.741 43.9662ZM180.909 43.9662C180.909 44.2558 180.774 44.5336 180.535 44.7384C180.295 44.9433 179.969 45.0583 179.63 45.0583C179.291 45.0583 178.966 44.9433 178.726 44.7384C178.486 44.5336 178.351 44.2558 178.351 43.9662C178.351 43.6765 178.486 43.3988 178.726 43.1939C178.966 42.9891 179.291 42.8741 179.63 42.8741C179.969 42.8741 180.295 42.9891 180.535 43.1939C180.774 43.3988 180.909 43.6765 180.909 43.9662ZM3.05805 57.9577C3.05805 58.2473 2.92335 58.525 2.68356 58.7298C2.44378 58.9345 2.11855 59.0495 1.77944 59.0495C1.44033 59.0495 1.11511 58.9345 0.875321 58.7298C0.635535 58.525 0.500832 58.2473 0.500832 57.9577C0.500832 57.6682 0.635535 57.3905 0.875321 57.1858C1.11511 56.981 1.44033 56.866 1.77944 56.866C2.11855 56.866 2.44378 56.981 2.68356 57.1858C2.92335 57.3905 3.05805 57.6682 3.05805 57.9577ZM19.2256 57.9577C19.2256 58.2473 19.0909 58.525 18.8511 58.7298C18.6113 58.9345 18.2861 59.0495 17.947 59.0495C17.6079 59.0495 17.2827 58.9345 17.0429 58.7298C16.8032 58.525 16.6684 58.2473 16.6684 57.9577C16.6684 57.6682 16.8032 57.3905 17.0429 57.1858C17.2827 56.981 17.6079 56.866 17.947 56.866C18.2861 56.866 18.6113 56.981 18.8511 57.1858C19.0909 57.3905 19.2256 57.6682 19.2256 57.9577ZM35.3941 57.9577C35.3941 58.2473 35.2594 58.525 35.0196 58.7298C34.7798 58.9345 34.4546 59.0495 34.1155 59.0495C33.7764 59.0495 33.4511 58.9345 33.2113 58.7298C32.9716 58.525 32.8369 58.2473 32.8369 57.9577C32.8369 57.6682 32.9716 57.3905 33.2113 57.1858C33.4511 56.981 33.7764 56.866 34.1155 56.866C34.4546 56.866 34.7798 56.981 35.0196 57.1858C35.2594 57.3905 35.3941 57.6682 35.3941 57.9577ZM51.5625 57.9577C51.5625 58.2473 51.4278 58.525 51.188 58.7298C50.9483 58.9345 50.623 59.0495 50.2839 59.0495C49.9448 59.0495 49.6196 58.9345 49.3798 58.7298C49.14 58.525 49.0053 58.2473 49.0053 57.9577C49.0053 57.6682 49.14 57.3905 49.3798 57.1858C49.6196 56.981 49.9448 56.866 50.2839 56.866C50.623 56.866 50.9483 56.981 51.188 57.1858C51.4278 57.3905 51.5625 57.6682 51.5625 57.9577ZM67.731 57.9577C67.731 58.2473 67.5962 58.525 67.3564 58.7298C67.1167 58.9345 66.7915 59.0495 66.4524 59.0495C66.1133 59.0495 65.788 58.9345 65.5483 58.7298C65.3085 58.525 65.1738 58.2473 65.1738 57.9577C65.1738 57.6682 65.3085 57.3905 65.5483 57.1858C65.788 56.981 66.1133 56.866 66.4524 56.866C66.7915 56.866 67.1167 56.981 67.3564 57.1858C67.5962 57.3905 67.731 57.6682 67.731 57.9577ZM83.8986 57.9577C83.9049 58.1044 83.8765 58.2506 83.8152 58.3877C83.7539 58.5247 83.6608 58.6498 83.5416 58.7555C83.4224 58.8612 83.2794 58.9452 83.1213 59.0027C82.9632 59.0601 82.7931 59.0897 82.6212 59.0898C82.4494 59.0898 82.2793 59.0603 82.1211 59.0029C81.9629 58.9456 81.8199 58.8616 81.7006 58.756C81.5813 58.6504 81.4882 58.5254 81.4267 58.3883C81.3653 58.2513 81.3368 58.1051 81.3431 57.9585C81.355 57.676 81.4948 57.4085 81.733 57.2123C81.9713 57.016 82.2893 56.9063 82.6204 56.9062C82.9514 56.9061 83.2696 57.0156 83.5079 57.2117C83.7463 57.4079 83.8864 57.6753 83.8986 57.9577ZM100.067 57.9577C100.073 58.1044 100.045 58.2506 99.9837 58.3877C99.9223 58.5247 99.8292 58.6498 99.71 58.7555C99.5908 58.8612 99.4479 58.9452 99.2897 59.0027C99.1316 59.0601 98.9615 59.0897 98.7897 59.0898C98.6179 59.0898 98.4477 59.0603 98.2896 59.0029C98.1314 58.9456 97.9884 58.8616 97.8691 58.756C97.7498 58.6504 97.6566 58.5254 97.5952 58.3883C97.5337 58.2513 97.5052 58.1051 97.5115 57.9585C97.5234 57.676 97.6633 57.4085 97.9015 57.2123C98.1397 57.016 98.4578 56.9063 98.7888 56.9062C99.1198 56.9061 99.438 57.0156 99.6764 57.2117C99.9148 57.4079 100.055 57.6753 100.067 57.9577ZM116.236 57.9577C116.236 58.2473 116.102 58.525 115.862 58.7298C115.622 58.9345 115.297 59.0495 114.958 59.0495C114.619 59.0495 114.293 58.9345 114.054 58.7298C113.814 58.525 113.679 58.2473 113.679 57.9577C113.679 57.6682 113.814 57.3905 114.054 57.1858C114.293 56.981 114.619 56.866 114.958 56.866C115.297 56.866 115.622 56.981 115.862 57.1858C116.102 57.3905 116.236 57.6682 116.236 57.9577ZM132.405 57.9577C132.405 58.2473 132.27 58.525 132.03 58.7298C131.79 58.9345 131.465 59.0495 131.126 59.0495C130.787 59.0495 130.462 58.9345 130.222 58.7298C129.982 58.525 129.847 58.2473 129.847 57.9577C129.847 57.6682 129.982 57.3905 130.222 57.1858C130.462 56.981 130.787 56.866 131.126 56.866C131.465 56.866 131.79 56.981 132.03 57.1858C132.27 57.3905 132.405 57.6682 132.405 57.9577ZM148.573 57.9577C148.573 58.2473 148.438 58.525 148.199 58.7298C147.959 58.9345 147.634 59.0495 147.295 59.0495C146.955 59.0495 146.63 58.9345 146.39 58.7298C146.151 58.525 146.016 58.2473 146.016 57.9577C146.016 57.6682 146.151 57.3905 146.39 57.1858C146.63 56.981 146.955 56.866 147.295 56.866C147.634 56.866 147.959 56.981 148.199 57.1858C148.438 57.3905 148.573 57.6682 148.573 57.9577ZM164.741 57.9577C164.741 58.2473 164.606 58.525 164.366 58.7298C164.126 58.9345 163.801 59.0495 163.462 59.0495C163.123 59.0495 162.798 58.9345 162.558 58.7298C162.318 58.525 162.184 58.2473 162.184 57.9577C162.184 57.6682 162.318 57.3905 162.558 57.1858C162.798 56.981 163.123 56.866 163.462 56.866C163.801 56.866 164.126 56.981 164.366 57.1858C164.606 57.3905 164.741 57.6682 164.741 57.9577ZM180.909 57.9577C180.909 58.2473 180.774 58.525 180.535 58.7298C180.295 58.9345 179.97 59.0495 179.631 59.0495C179.291 59.0495 178.966 58.9345 178.726 58.7298C178.487 58.525 178.352 58.2473 178.352 57.9577C178.352 57.6682 178.487 57.3905 178.726 57.1858C178.966 56.981 179.291 56.866 179.631 56.866C179.97 56.866 180.295 56.981 180.535 57.1858C180.774 57.3905 180.909 57.6682 180.909 57.9577ZM3.05805 71.95C3.05799 72.0935 3.02488 72.2355 2.96055 72.3679C2.89622 72.5004 2.80196 72.6208 2.68315 72.7222C2.56434 72.8236 2.42328 72.904 2.26808 72.9588C2.11288 73.0137 1.94657 73.0419 1.77861 73.0418C1.61064 73.0418 1.4443 73.0135 1.28914 72.9586C1.13398 72.9036 0.993062 72.8231 0.874332 72.7217C0.755603 72.6202 0.661412 72.4998 0.597186 72.3673C0.53296 72.2348 0.499944 72.0928 0.5 71.9493C0.5 71.6598 0.634703 71.3821 0.874489 71.1773C1.11427 70.9726 1.4395 70.8576 1.77861 70.8576C2.11772 70.8576 2.44294 70.9726 2.68273 71.1773C2.92252 71.3821 3.05722 71.6598 3.05722 71.9493L3.05805 71.95ZM19.2256 71.95C19.2255 72.2396 19.0907 72.5173 18.8509 72.722C18.611 72.9266 18.2857 73.0416 17.9466 73.0415C17.6075 73.0414 17.2823 72.9262 17.0426 72.7214C16.8029 72.5166 16.6683 72.2389 16.6684 71.9493C16.6684 71.6598 16.8032 71.3821 17.0429 71.1773C17.2827 70.9726 17.6079 70.8576 17.947 70.8576C18.2861 70.8576 18.6113 70.9726 18.8511 71.1773C19.0909 71.3821 19.2256 71.6605 19.2256 71.95ZM35.3941 71.95C35.394 72.0935 35.3609 72.2355 35.2966 72.3679C35.2322 72.5004 35.138 72.6208 35.0192 72.7222C34.9004 72.8236 34.7593 72.904 34.6041 72.9588C34.4489 73.0137 34.2826 73.0419 34.1146 73.0418C33.9467 73.0418 33.7803 73.0135 33.6252 72.9586C33.47 72.9036 33.3291 72.8231 33.2104 72.7217C33.0916 72.6202 32.9974 72.4998 32.9332 72.3673C32.869 72.2348 32.836 72.0928 32.836 71.9493C32.836 71.6597 32.9708 71.3819 33.2106 71.177C33.4505 70.9722 33.7758 70.8572 34.1151 70.8572C34.4543 70.8572 34.7796 70.9722 35.0195 71.177C35.2593 71.3819 35.3941 71.6604 35.3941 71.95ZM51.5625 71.95C51.5625 72.0935 51.5293 72.2355 51.465 72.3679C51.4007 72.5004 51.3064 72.6208 51.1876 72.7222C51.0688 72.8236 50.9278 72.904 50.7726 72.9588C50.6174 73.0137 50.4511 73.0419 50.2831 73.0418C50.1151 73.0418 49.9488 73.0135 49.7936 72.9586C49.6385 72.9036 49.4975 72.8231 49.3788 72.7217C49.26 72.6202 49.1659 72.4998 49.1017 72.3673C49.0374 72.2348 49.0044 72.0928 49.0045 71.9493C49.0045 71.6598 49.1392 71.3821 49.379 71.1773C49.6188 70.9726 49.944 70.8576 50.2831 70.8576C50.6222 70.8576 50.9474 70.9726 51.1872 71.1773C51.4269 71.3821 51.5617 71.6598 51.5617 71.9493L51.5625 71.95ZM67.731 71.95C67.7309 72.0935 67.6978 72.2355 67.6334 72.3679C67.5691 72.5004 67.4748 72.6208 67.356 72.7222C67.2372 72.8236 67.0962 72.904 66.941 72.9588C66.7858 73.0137 66.6195 73.0419 66.4515 73.0418C66.2835 73.0418 66.1172 73.0135 65.9621 72.9586C65.8069 72.9036 65.6659 72.8231 65.5472 72.7217C65.4285 72.6202 65.3343 72.4998 65.2701 72.3673C65.2058 72.2348 65.1728 72.0928 65.1729 71.9493C65.1729 71.6598 65.3076 71.3821 65.5474 71.1773C65.7872 70.9726 66.1124 70.8576 66.4515 70.8576C66.7906 70.8576 67.1158 70.9726 67.3556 71.1773C67.5954 71.3821 67.7301 71.6598 67.7301 71.9493L67.731 71.95ZM83.8986 71.95C83.8986 72.2396 83.7639 72.5173 83.5241 72.7221C83.2843 72.9268 82.9591 73.0418 82.6199 73.0418C82.2808 73.0418 81.9556 72.9268 81.7158 72.7221C81.476 72.5173 81.3413 72.2396 81.3413 71.95C81.3413 71.6605 81.476 71.3828 81.7158 71.178C81.9556 70.9733 82.2808 70.8583 82.6199 70.8583C82.9591 70.8583 83.2843 70.9733 83.5241 71.178C83.7639 71.3828 83.8986 71.6605 83.8986 71.95ZM100.067 71.95C100.067 72.2396 99.9323 72.5173 99.6925 72.7221C99.4527 72.9268 99.1275 73.0418 98.7884 73.0418C98.4493 73.0418 98.1241 72.9268 97.8843 72.7221C97.6445 72.5173 97.5098 72.2396 97.5098 71.95C97.5098 71.6605 97.6445 71.3828 97.8843 71.178C98.1241 70.9733 98.4493 70.8583 98.7884 70.8583C99.1275 70.8583 99.4527 70.9733 99.6925 71.178C99.9323 71.3828 100.067 71.6605 100.067 71.95ZM116.236 71.95C116.236 72.2397 116.101 72.5174 115.861 72.7222C115.621 72.9269 115.296 73.0419 114.957 73.0418C114.618 73.0417 114.292 72.9266 114.053 72.7217C113.813 72.5168 113.678 72.239 113.678 71.9493C113.678 71.6597 113.813 71.3819 114.053 71.177C114.293 70.9722 114.618 70.8572 114.957 70.8572C115.296 70.8572 115.622 70.9722 115.862 71.177C116.102 71.3819 116.236 71.6604 116.236 71.95ZM132.405 71.95C132.405 72.2397 132.27 72.5174 132.03 72.7222C131.79 72.9269 131.464 73.0419 131.125 73.0418C130.786 73.0417 130.461 72.9266 130.221 72.7217C129.981 72.5168 129.847 72.239 129.847 71.9493C129.847 71.6598 129.981 71.3821 130.221 71.1773C130.461 70.9726 130.786 70.8576 131.125 70.8576C131.464 70.8576 131.79 70.9726 132.029 71.1773C132.269 71.3821 132.404 71.6598 132.404 71.9493L132.405 71.95ZM148.573 71.95C148.573 72.2398 148.438 72.5176 148.198 72.7225C147.958 72.9273 147.633 73.0423 147.293 73.0422C146.954 73.0421 146.629 72.9269 146.389 72.722C146.149 72.517 146.014 72.2391 146.014 71.9493C146.014 71.6597 146.149 71.3819 146.389 71.177C146.629 70.9722 146.954 70.8572 147.293 70.8572C147.633 70.8572 147.958 70.9722 148.198 71.177C148.438 71.3819 148.572 71.6597 148.572 71.9493L148.573 71.95ZM164.741 71.95C164.741 72.0934 164.708 72.2354 164.643 72.3678C164.579 72.5003 164.485 72.6206 164.366 72.722C164.247 72.8233 164.106 72.9037 163.951 72.9585C163.796 73.0133 163.63 73.0415 163.462 73.0415C163.294 73.0414 163.128 73.0131 162.972 72.9582C162.817 72.9033 162.676 72.8228 162.558 72.7214C162.439 72.62 162.345 72.4996 162.281 72.3671C162.216 72.2347 162.184 72.0927 162.184 71.9493C162.184 71.6598 162.318 71.3821 162.558 71.1773C162.798 70.9726 163.123 70.8576 163.462 70.8576C163.801 70.8576 164.126 70.9726 164.366 71.1773C164.606 71.3821 164.741 71.6605 164.741 71.95ZM180.909 71.95C180.909 72.2397 180.774 72.5174 180.534 72.7222C180.294 72.9269 179.969 73.0419 179.63 73.0418C179.291 73.0417 178.965 72.9266 178.725 72.7217C178.486 72.5168 178.351 72.239 178.351 71.9493C178.351 71.6597 178.486 71.3819 178.726 71.177C178.966 70.9722 179.291 70.8572 179.63 70.8572C179.969 70.8572 180.295 70.9722 180.535 71.177C180.774 71.3819 180.909 71.6604 180.909 71.95ZM3.05805 85.9416C3.05805 86.2312 2.92335 86.5089 2.68356 86.7136C2.44378 86.9184 2.11855 87.0334 1.77944 87.0334C1.44033 87.0334 1.11511 86.9184 0.875321 86.7136C0.635535 86.5089 0.500832 86.2312 0.500832 85.9416C0.500832 85.6521 0.635535 85.3744 0.875321 85.1696C1.11511 84.9649 1.44033 84.8498 1.77944 84.8498C2.11855 84.8498 2.44378 84.9649 2.68356 85.1696C2.92335 85.3744 3.05805 85.6521 3.05805 85.9416ZM19.2256 85.9416C19.2256 86.2312 19.0909 86.5089 18.8511 86.7136C18.6113 86.9184 18.2861 87.0334 17.947 87.0334C17.6079 87.0334 17.2827 86.9184 17.0429 86.7136C16.8032 86.5089 16.6684 86.2312 16.6684 85.9416C16.6684 85.6521 16.8032 85.3744 17.0429 85.1696C17.2827 84.9649 17.6079 84.8498 17.947 84.8498C18.2861 84.8498 18.6113 84.9649 18.8511 85.1696C19.0909 85.3744 19.2256 85.6521 19.2256 85.9416ZM35.3941 85.9416C35.3941 86.2312 35.2594 86.5089 35.0196 86.7136C34.7798 86.9184 34.4546 87.0334 34.1155 87.0334C33.7764 87.0334 33.4511 86.9184 33.2113 86.7136C32.9716 86.5089 32.8369 86.2312 32.8369 85.9416C32.8369 85.6521 32.9716 85.3744 33.2113 85.1696C33.4511 84.9649 33.7764 84.8498 34.1155 84.8498C34.4546 84.8498 34.7798 84.9649 35.0196 85.1696C35.2594 85.3744 35.3941 85.6521 35.3941 85.9416ZM51.5625 85.9416C51.5625 86.2312 51.4278 86.5089 51.188 86.7136C50.9483 86.9184 50.623 87.0334 50.2839 87.0334C49.9448 87.0334 49.6196 86.9184 49.3798 86.7136C49.14 86.5089 49.0053 86.2312 49.0053 85.9416C49.0053 85.6521 49.14 85.3744 49.3798 85.1696C49.6196 84.9649 49.9448 84.8498 50.2839 84.8498C50.623 84.8498 50.9483 84.9649 51.188 85.1696C51.4278 85.3744 51.5625 85.6521 51.5625 85.9416ZM67.731 85.9416C67.731 86.2312 67.5962 86.5089 67.3564 86.7136C67.1167 86.9184 66.7915 87.0334 66.4524 87.0334C66.1133 87.0334 65.788 86.9184 65.5483 86.7136C65.3085 86.5089 65.1738 86.2312 65.1738 85.9416C65.1738 85.6521 65.3085 85.3744 65.5483 85.1696C65.788 84.9649 66.1133 84.8498 66.4524 84.8498C66.7915 84.8498 67.1167 84.9649 67.3564 85.1696C67.5962 85.3744 67.731 85.6521 67.731 85.9416ZM83.8986 85.9416C83.9048 86.0882 83.8764 86.2345 83.8151 86.3715C83.7537 86.5086 83.6606 86.6336 83.5413 86.7393C83.422 86.8449 83.279 86.9289 83.1209 86.9863C82.9627 87.0437 82.7926 87.0732 82.6208 87.0732C82.4489 87.0732 82.2789 87.0437 82.1208 86.9863C81.9626 86.9289 81.8196 86.8449 81.7003 86.7393C81.5811 86.6336 81.4879 86.5086 81.4266 86.3715C81.3652 86.2345 81.3368 86.0882 81.3431 85.9416C81.3551 85.6591 81.4951 85.3917 81.7334 85.1955C81.9717 84.9993 82.2898 84.8897 82.6208 84.8897C82.9518 84.8897 83.2699 84.9993 83.5082 85.1955C83.7466 85.3917 83.8865 85.6591 83.8986 85.9416ZM100.067 85.9416C100.073 86.0882 100.045 86.2345 99.9835 86.3715C99.9221 86.5086 99.829 86.6336 99.7097 86.7393C99.5904 86.8449 99.4475 86.9289 99.2893 86.9863C99.1312 87.0437 98.9611 87.0732 98.7892 87.0732C98.6174 87.0732 98.4473 87.0437 98.2892 86.9863C98.131 86.9289 97.988 86.8449 97.8688 86.7393C97.7495 86.6336 97.6564 86.5086 97.595 86.3715C97.5336 86.2345 97.5052 86.0882 97.5115 85.9416C97.5235 85.6591 97.6635 85.3917 97.9018 85.1955C98.1401 84.9993 98.4582 84.8897 98.7892 84.8897C99.1203 84.8897 99.4384 84.9993 99.6767 85.1955C99.915 85.3917 100.055 85.6591 100.067 85.9416ZM116.236 85.9416C116.236 86.2312 116.102 86.5089 115.862 86.7136C115.622 86.9184 115.297 87.0334 114.958 87.0334C114.619 87.0334 114.293 86.9184 114.054 86.7136C113.814 86.5089 113.679 86.2312 113.679 85.9416C113.679 85.6521 113.814 85.3744 114.054 85.1696C114.293 84.9649 114.619 84.8498 114.958 84.8498C115.297 84.8498 115.622 84.9649 115.862 85.1696C116.102 85.3744 116.236 85.6521 116.236 85.9416ZM132.405 85.9416C132.405 86.2312 132.27 86.5089 132.03 86.7136C131.79 86.9184 131.465 87.0334 131.126 87.0334C130.787 87.0334 130.462 86.9184 130.222 86.7136C129.982 86.5089 129.847 86.2312 129.847 85.9416C129.847 85.6521 129.982 85.3744 130.222 85.1696C130.462 84.9649 130.787 84.8498 131.126 84.8498C131.465 84.8498 131.79 84.9649 132.03 85.1696C132.27 85.3744 132.405 85.6521 132.405 85.9416ZM148.573 85.9416C148.573 86.2312 148.438 86.5089 148.199 86.7136C147.959 86.9184 147.634 87.0334 147.295 87.0334C146.955 87.0334 146.63 86.9184 146.39 86.7136C146.151 86.5089 146.016 86.2312 146.016 85.9416C146.016 85.6521 146.151 85.3744 146.39 85.1696C146.63 84.9649 146.955 84.8498 147.295 84.8498C147.634 84.8498 147.959 84.9649 148.199 85.1696C148.438 85.3744 148.573 85.6521 148.573 85.9416ZM164.741 85.9416C164.741 86.2312 164.606 86.5089 164.366 86.7136C164.126 86.9184 163.801 87.0334 163.462 87.0334C163.123 87.0334 162.798 86.9184 162.558 86.7136C162.318 86.5089 162.184 86.2312 162.184 85.9416C162.184 85.6521 162.318 85.3744 162.558 85.1696C162.798 84.9649 163.123 84.8498 163.462 84.8498C163.801 84.8498 164.126 84.9649 164.366 85.1696C164.606 85.3744 164.741 85.6521 164.741 85.9416ZM180.909 85.9416C180.909 86.2312 180.774 86.5089 180.535 86.7136C180.295 86.9184 179.97 87.0334 179.631 87.0334C179.291 87.0334 178.966 86.9184 178.726 86.7136C178.487 86.5089 178.352 86.2312 178.352 85.9416C178.352 85.6521 178.487 85.3744 178.726 85.1696C178.966 84.9649 179.291 84.8498 179.631 84.8498C179.97 84.8498 180.295 84.9649 180.535 85.1696C180.774 85.3744 180.909 85.6521 180.909 85.9416ZM3.05805 99.9332C3.05799 100.077 3.02488 100.219 2.96055 100.351C2.89622 100.484 2.80196 100.604 2.68315 100.705C2.56434 100.807 2.42328 100.887 2.26808 100.942C2.11288 100.997 1.94657 101.025 1.77861 101.025C1.61064 101.025 1.4443 100.997 1.28914 100.942C1.13398 100.887 0.993062 100.806 0.874332 100.705C0.755603 100.603 0.661412 100.483 0.597186 100.35C0.53296 100.218 0.499944 100.076 0.5 99.9324C0.500113 99.6429 0.634935 99.3652 0.874801 99.1606C1.11467 98.9559 1.43992 98.8409 1.77903 98.841C2.11813 98.8411 2.44328 98.9562 2.68299 99.1611C2.9227 99.3659 3.05816 99.6436 3.05805 99.9332ZM19.2256 99.9332C19.2255 100.223 19.0907 100.5 18.8509 100.705C18.611 100.91 18.2857 101.025 17.9466 101.025C17.6075 101.024 17.2823 100.909 17.0426 100.705C16.8029 100.5 16.6683 100.222 16.6684 99.9324C16.6685 99.6429 16.8033 99.3652 17.0432 99.1606C17.2831 98.9559 17.6084 98.8409 17.9475 98.841C18.2866 98.8411 18.6117 98.9562 18.8514 99.1611C19.0912 99.3659 19.2257 99.6436 19.2256 99.9332ZM35.3941 99.9332C35.394 100.077 35.3609 100.219 35.2966 100.351C35.2322 100.484 35.138 100.604 35.0192 100.705C34.9004 100.807 34.7593 100.887 34.6041 100.942C34.4489 100.997 34.2826 101.025 34.1146 101.025C33.9467 101.025 33.7803 100.997 33.6252 100.942C33.47 100.887 33.3291 100.806 33.2104 100.705C33.0916 100.603 32.9974 100.483 32.9332 100.35C32.869 100.218 32.836 100.076 32.836 99.9324C32.8361 99.6428 32.971 99.3651 33.2109 99.1603C33.4509 98.9556 33.7762 98.8406 34.1155 98.8407C34.4547 98.8408 34.78 98.9559 35.0197 99.1608C35.2595 99.3657 35.3942 99.6435 35.3941 99.9332ZM51.5625 99.9332C51.5625 100.077 51.5293 100.219 51.465 100.351C51.4007 100.484 51.3064 100.604 51.1876 100.705C51.0688 100.807 50.9278 100.887 50.7726 100.942C50.6174 100.997 50.4511 101.025 50.2831 101.025C50.1151 101.025 49.9488 100.997 49.7936 100.942C49.6385 100.887 49.4975 100.806 49.3788 100.705C49.26 100.603 49.1659 100.483 49.1017 100.35C49.0374 100.218 49.0044 100.076 49.0045 99.9324C49.0046 99.6429 49.1394 99.3652 49.3792 99.1606C49.6191 98.9559 49.9444 98.8409 50.2835 98.841C50.6226 98.8411 50.9478 98.9562 51.1875 99.1611C51.4272 99.3659 51.5626 99.6436 51.5625 99.9332ZM67.731 99.9332C67.7309 100.077 67.6978 100.219 67.6334 100.351C67.5691 100.484 67.4748 100.604 67.356 100.705C67.2372 100.807 67.0962 100.887 66.941 100.942C66.7858 100.997 66.6195 101.025 66.4515 101.025C66.2835 101.025 66.1172 100.997 65.9621 100.942C65.8069 100.887 65.6659 100.806 65.5472 100.705C65.4285 100.603 65.3343 100.483 65.2701 100.35C65.2058 100.218 65.1728 100.076 65.1729 99.9324C65.173 99.6429 65.3078 99.3652 65.5477 99.1606C65.7876 98.9559 66.1128 98.8409 66.4519 98.841C66.791 98.8411 67.1162 98.9562 67.3559 99.1611C67.5956 99.3659 67.7311 99.6436 67.731 99.9332ZM83.8986 99.9332C83.8986 100.223 83.7639 100.5 83.5241 100.705C83.2843 100.91 82.9591 101.025 82.6199 101.025C82.2808 101.025 81.9556 100.91 81.7158 100.705C81.476 100.5 81.3413 100.223 81.3413 99.9332C81.3413 99.6436 81.476 99.3659 81.7158 99.1612C81.9556 98.9564 82.2808 98.8414 82.6199 98.8414C82.9591 98.8414 83.2843 98.9564 83.5241 99.1612C83.7639 99.3659 83.8986 99.6436 83.8986 99.9332ZM100.067 99.9332C100.067 100.223 99.9323 100.5 99.6925 100.705C99.4527 100.91 99.1275 101.025 98.7884 101.025C98.4493 101.025 98.1241 100.91 97.8843 100.705C97.6445 100.5 97.5098 100.223 97.5098 99.9332C97.5098 99.6436 97.6445 99.3659 97.8843 99.1612C98.1241 98.9564 98.4493 98.8414 98.7884 98.8414C99.1275 98.8414 99.4527 98.9564 99.6925 99.1612C99.9323 99.3659 100.067 99.6436 100.067 99.9332ZM116.236 99.9332C116.236 100.223 116.101 100.501 115.861 100.705C115.621 100.91 115.296 101.025 114.957 101.025C114.618 101.025 114.292 100.91 114.053 100.705C113.813 100.5 113.678 100.222 113.678 99.9324C113.678 99.789 113.711 99.647 113.776 99.5145C113.84 99.3821 113.934 99.2617 114.053 99.1603C114.172 99.0589 114.313 98.9785 114.468 98.9237C114.623 98.8688 114.79 98.8406 114.958 98.8407C115.126 98.8407 115.292 98.869 115.447 98.924C115.602 98.9789 115.743 99.0593 115.862 99.1608C115.981 99.2622 116.075 99.3827 116.139 99.5152C116.203 99.6477 116.236 99.7897 116.236 99.9332ZM132.405 99.9332C132.405 100.223 132.27 100.501 132.03 100.705C131.79 100.91 131.464 101.025 131.125 101.025C130.786 101.025 130.461 100.91 130.221 100.705C129.981 100.5 129.847 100.222 129.847 99.9324C129.847 99.6429 129.982 99.3652 130.221 99.1606C130.461 98.9559 130.787 98.8409 131.126 98.841C131.465 98.8411 131.79 98.9562 132.03 99.1611C132.269 99.3659 132.405 99.6436 132.405 99.9332ZM148.573 99.9332C148.573 100.223 148.438 100.501 148.198 100.706C147.958 100.91 147.633 101.025 147.293 101.025C146.954 101.025 146.629 100.91 146.389 100.705C146.149 100.5 146.014 100.222 146.014 99.9324C146.014 99.789 146.047 99.647 146.112 99.5145C146.176 99.3821 146.27 99.2617 146.389 99.1603C146.508 99.0589 146.649 98.9785 146.804 98.9237C146.959 98.8688 147.126 98.8406 147.294 98.8407C147.462 98.8407 147.628 98.869 147.783 98.924C147.938 98.9789 148.079 99.0593 148.198 99.1608C148.317 99.2622 148.411 99.3827 148.475 99.5152C148.539 99.6477 148.573 99.7897 148.573 99.9332ZM164.741 99.9332C164.741 100.077 164.708 100.219 164.643 100.351C164.579 100.483 164.485 100.604 164.366 100.705C164.247 100.806 164.106 100.887 163.951 100.942C163.796 100.996 163.63 101.025 163.462 101.025C163.294 101.025 163.128 100.996 162.972 100.941C162.817 100.886 162.676 100.806 162.558 100.705C162.439 100.603 162.345 100.483 162.281 100.35C162.216 100.218 162.184 100.076 162.184 99.9324C162.184 99.6429 162.318 99.3652 162.558 99.1606C162.798 98.9559 163.123 98.8409 163.463 98.841C163.802 98.8411 164.127 98.9562 164.367 99.1611C164.606 99.3659 164.741 99.6436 164.741 99.9332ZM180.909 99.9332C180.909 100.223 180.774 100.501 180.534 100.705C180.294 100.91 179.969 101.025 179.63 101.025C179.291 101.025 178.965 100.91 178.725 100.705C178.486 100.5 178.351 100.222 178.351 99.9324C178.351 99.789 178.384 99.647 178.449 99.5145C178.513 99.3821 178.607 99.2617 178.726 99.1603C178.845 99.0589 178.986 98.9785 179.141 98.9237C179.296 98.8688 179.463 98.8406 179.631 98.8407C179.799 98.8407 179.965 98.869 180.12 98.924C180.275 98.9789 180.416 99.0593 180.535 99.1608C180.654 99.2622 180.748 99.3827 180.812 99.5152C180.876 99.6477 180.909 99.7897 180.909 99.9332ZM3.05805 113.925C3.05799 114.068 3.02488 114.21 2.96055 114.343C2.89622 114.475 2.80196 114.596 2.68315 114.697C2.56434 114.798 2.42328 114.879 2.26808 114.934C2.11288 114.988 1.94657 115.017 1.77861 115.017C1.61064 115.016 1.4443 114.988 1.28914 114.933C1.13398 114.878 0.993062 114.798 0.874332 114.696C0.755603 114.595 0.661412 114.474 0.597186 114.342C0.53296 114.209 0.499944 114.067 0.5 113.924C0.5 113.634 0.634703 113.357 0.874489 113.152C1.11427 112.947 1.4395 112.832 1.77861 112.832C2.11772 112.832 2.44294 112.947 2.68273 113.152C2.92252 113.357 3.05722 113.634 3.05722 113.924L3.05805 113.925ZM19.2256 113.925C19.2255 114.214 19.0907 114.492 18.8509 114.697C18.611 114.901 18.2857 115.016 17.9466 115.016C17.6075 115.016 17.2823 114.901 17.0426 114.696C16.8029 114.491 16.6683 114.214 16.6684 113.924C16.6684 113.634 16.8032 113.357 17.0429 113.152C17.2827 112.947 17.6079 112.832 17.947 112.832C18.2861 112.832 18.6113 112.947 18.8511 113.152C19.0909 113.357 19.2256 113.635 19.2256 113.925ZM35.3941 113.925C35.394 114.068 35.3609 114.21 35.2966 114.343C35.2322 114.475 35.138 114.596 35.0192 114.697C34.9004 114.798 34.7593 114.879 34.6041 114.934C34.4489 114.988 34.2826 115.017 34.1146 115.017C33.9467 115.016 33.7803 114.988 33.6252 114.933C33.47 114.878 33.3291 114.798 33.2104 114.696C33.0916 114.595 32.9974 114.474 32.9332 114.342C32.869 114.209 32.836 114.067 32.836 113.924C32.836 113.634 32.9708 113.357 33.2106 113.152C33.4505 112.947 33.7758 112.832 34.1151 112.832C34.4543 112.832 34.7796 112.947 35.0195 113.152C35.2593 113.357 35.3941 113.635 35.3941 113.925ZM51.5625 113.925C51.5625 114.068 51.5293 114.21 51.465 114.343C51.4007 114.475 51.3064 114.596 51.1876 114.697C51.0688 114.798 50.9278 114.879 50.7726 114.934C50.6174 114.988 50.4511 115.017 50.2831 115.017C50.1151 115.016 49.9488 114.988 49.7936 114.933C49.6385 114.878 49.4975 114.798 49.3788 114.696C49.26 114.595 49.1659 114.474 49.1017 114.342C49.0374 114.209 49.0044 114.067 49.0045 113.924C49.0045 113.634 49.1392 113.357 49.379 113.152C49.6188 112.947 49.944 112.832 50.2831 112.832C50.6222 112.832 50.9474 112.947 51.1872 113.152C51.4269 113.357 51.5617 113.634 51.5617 113.924L51.5625 113.925ZM67.731 113.925C67.7309 114.068 67.6978 114.21 67.6334 114.343C67.5691 114.475 67.4748 114.596 67.356 114.697C67.2372 114.798 67.0962 114.879 66.941 114.934C66.7858 114.988 66.6195 115.017 66.4515 115.017C66.2835 115.016 66.1172 114.988 65.9621 114.933C65.8069 114.878 65.6659 114.798 65.5472 114.696C65.4285 114.595 65.3343 114.474 65.2701 114.342C65.2058 114.209 65.1728 114.067 65.1729 113.924C65.1729 113.634 65.3076 113.357 65.5474 113.152C65.7872 112.947 66.1124 112.832 66.4515 112.832C66.7906 112.832 67.1158 112.947 67.3556 113.152C67.5954 113.357 67.7301 113.634 67.7301 113.924L67.731 113.925ZM83.8986 113.925C83.8986 114.214 83.7639 114.492 83.5241 114.697C83.2843 114.902 82.9591 115.017 82.6199 115.017C82.2808 115.017 81.9556 114.902 81.7158 114.697C81.476 114.492 81.3413 114.214 81.3413 113.925C81.3413 113.635 81.476 113.357 81.7158 113.153C81.9556 112.948 82.2808 112.833 82.6199 112.833C82.9591 112.833 83.2843 112.948 83.5241 113.153C83.7639 113.357 83.8986 113.635 83.8986 113.925ZM100.067 113.925C100.067 114.214 99.9323 114.492 99.6925 114.697C99.4527 114.902 99.1275 115.017 98.7884 115.017C98.4493 115.017 98.1241 114.902 97.8843 114.697C97.6445 114.492 97.5098 114.214 97.5098 113.925C97.5098 113.635 97.6445 113.357 97.8843 113.153C98.1241 112.948 98.4493 112.833 98.7884 112.833C99.1275 112.833 99.4527 112.948 99.6925 113.153C99.9323 113.357 100.067 113.635 100.067 113.925ZM116.236 113.925C116.236 114.214 116.101 114.492 115.861 114.697C115.621 114.902 115.296 115.017 114.957 115.017C114.618 115.016 114.292 114.901 114.053 114.696C113.813 114.492 113.678 114.214 113.678 113.924C113.678 113.634 113.813 113.357 114.053 113.152C114.293 112.947 114.618 112.832 114.957 112.832C115.296 112.832 115.622 112.947 115.862 113.152C116.102 113.357 116.236 113.635 116.236 113.925ZM132.405 113.925C132.405 114.214 132.27 114.492 132.03 114.697C131.79 114.902 131.464 115.017 131.125 115.017C130.786 115.016 130.461 114.901 130.221 114.696C129.981 114.492 129.847 114.214 129.847 113.924C129.847 113.634 129.981 113.357 130.221 113.152C130.461 112.947 130.786 112.832 131.125 112.832C131.464 112.832 131.79 112.947 132.029 113.152C132.269 113.357 132.404 113.634 132.404 113.924L132.405 113.925ZM148.573 113.925C148.573 114.068 148.54 114.21 148.476 114.343C148.411 114.475 148.317 114.596 148.198 114.697C148.079 114.799 147.938 114.879 147.783 114.934C147.628 114.989 147.461 115.017 147.293 115.017C147.125 115.017 146.959 114.989 146.804 114.934C146.648 114.879 146.507 114.798 146.389 114.697C146.27 114.595 146.176 114.475 146.111 114.342C146.047 114.21 146.014 114.067 146.014 113.924C146.014 113.634 146.149 113.357 146.389 113.152C146.629 112.947 146.954 112.832 147.293 112.832C147.633 112.832 147.958 112.947 148.198 113.152C148.438 113.357 148.572 113.634 148.572 113.924L148.573 113.925ZM164.741 113.925C164.741 114.068 164.708 114.21 164.643 114.343C164.579 114.475 164.485 114.595 164.366 114.697C164.247 114.798 164.106 114.878 163.951 114.933C163.796 114.988 163.63 115.016 163.462 115.016C163.294 115.016 163.128 114.988 162.972 114.933C162.817 114.878 162.676 114.798 162.558 114.696C162.439 114.595 162.345 114.474 162.281 114.342C162.216 114.209 162.184 114.067 162.184 113.924C162.184 113.634 162.318 113.357 162.558 113.152C162.798 112.947 163.123 112.832 163.462 112.832C163.801 112.832 164.126 112.947 164.366 113.152C164.606 113.357 164.741 113.635 164.741 113.925ZM180.909 113.925C180.909 114.214 180.774 114.492 180.534 114.697C180.294 114.902 179.969 115.017 179.63 115.017C179.291 115.016 178.965 114.901 178.725 114.696C178.486 114.492 178.351 114.214 178.351 113.924C178.351 113.634 178.486 113.357 178.726 113.152C178.966 112.947 179.291 112.832 179.63 112.832C179.969 112.832 180.295 112.947 180.535 113.152C180.774 113.357 180.909 113.635 180.909 113.925ZM3.05805 127.916C3.05805 128.205 2.92335 128.483 2.68356 128.688C2.44378 128.892 2.11855 129.007 1.77944 129.007C1.44033 129.007 1.11511 128.892 0.875321 128.688C0.635535 128.483 0.500832 128.205 0.500832 127.916C0.500832 127.626 0.635535 127.348 0.875321 127.144C1.11511 126.939 1.44033 126.824 1.77944 126.824C2.11855 126.824 2.44378 126.939 2.68356 127.144C2.92335 127.348 3.05805 127.626 3.05805 127.916ZM19.2256 127.916C19.2256 128.205 19.0909 128.483 18.8511 128.688C18.6113 128.892 18.2861 129.007 17.947 129.007C17.6079 129.007 17.2827 128.892 17.0429 128.688C16.8032 128.483 16.6684 128.205 16.6684 127.916C16.6684 127.626 16.8032 127.348 17.0429 127.144C17.2827 126.939 17.6079 126.824 17.947 126.824C18.2861 126.824 18.6113 126.939 18.8511 127.144C19.0909 127.348 19.2256 127.626 19.2256 127.916ZM35.3941 127.916C35.3941 128.205 35.2594 128.483 35.0196 128.688C34.7798 128.892 34.4546 129.007 34.1155 129.007C33.7764 129.007 33.4511 128.892 33.2113 128.688C32.9716 128.483 32.8369 128.205 32.8369 127.916C32.8369 127.626 32.9716 127.348 33.2113 127.144C33.4511 126.939 33.7764 126.824 34.1155 126.824C34.4546 126.824 34.7798 126.939 35.0196 127.144C35.2594 127.348 35.3941 127.626 35.3941 127.916ZM51.5625 127.916C51.5625 128.205 51.4278 128.483 51.188 128.688C50.9483 128.892 50.623 129.007 50.2839 129.007C49.9448 129.007 49.6196 128.892 49.3798 128.688C49.14 128.483 49.0053 128.205 49.0053 127.916C49.0053 127.626 49.14 127.348 49.3798 127.144C49.6196 126.939 49.9448 126.824 50.2839 126.824C50.623 126.824 50.9483 126.939 51.188 127.144C51.4278 127.348 51.5625 127.626 51.5625 127.916ZM67.731 127.916C67.731 128.205 67.5962 128.483 67.3564 128.688C67.1167 128.892 66.7915 129.007 66.4524 129.007C66.1133 129.007 65.788 128.892 65.5483 128.688C65.3085 128.483 65.1738 128.205 65.1738 127.916C65.1738 127.626 65.3085 127.348 65.5483 127.144C65.788 126.939 66.1133 126.824 66.4524 126.824C66.7915 126.824 67.1167 126.939 67.3564 127.144C67.5962 127.348 67.731 127.626 67.731 127.916ZM83.8986 127.916C83.9049 128.062 83.8766 128.208 83.8154 128.346C83.7541 128.483 83.6611 128.608 83.5419 128.713C83.4227 128.819 83.2798 128.903 83.1217 128.961C82.9636 129.018 82.7935 129.048 82.6217 129.048C82.4498 129.048 82.2797 129.019 82.1215 128.961C81.9633 128.904 81.8203 128.82 81.7009 128.714C81.5816 128.609 81.4884 128.484 81.4269 128.347C81.3654 128.21 81.3369 128.064 81.3431 127.917C81.3549 127.635 81.4946 127.367 81.7327 127.171C81.9709 126.974 82.289 126.865 82.62 126.864C82.951 126.864 83.2692 126.974 83.5077 127.17C83.7461 127.366 83.8862 127.633 83.8986 127.916ZM100.067 127.916C100.073 128.062 100.045 128.208 99.9838 128.346C99.9225 128.483 99.8295 128.608 99.7103 128.713C99.5911 128.819 99.4482 128.903 99.2901 128.961C99.132 129.018 98.962 129.048 98.7901 129.048C98.6183 129.048 98.4482 129.019 98.29 128.961C98.1318 128.904 97.9888 128.82 97.8694 128.714C97.75 128.609 97.6568 128.484 97.5953 128.347C97.5338 128.21 97.5053 128.064 97.5115 127.917C97.5233 127.635 97.663 127.367 97.9012 127.171C98.1393 126.974 98.4574 126.865 98.7884 126.864C99.1194 126.864 99.4377 126.974 99.6761 127.17C99.9146 127.366 100.055 127.633 100.067 127.916ZM116.236 127.916C116.236 128.205 116.102 128.483 115.862 128.688C115.622 128.892 115.297 129.007 114.958 129.007C114.619 129.007 114.293 128.892 114.054 128.688C113.814 128.483 113.679 128.205 113.679 127.916C113.679 127.626 113.814 127.348 114.054 127.144C114.293 126.939 114.619 126.824 114.958 126.824C115.297 126.824 115.622 126.939 115.862 127.144C116.102 127.348 116.236 127.626 116.236 127.916ZM132.405 127.916C132.405 128.205 132.27 128.483 132.03 128.688C131.79 128.892 131.465 129.007 131.126 129.007C130.787 129.007 130.462 128.892 130.222 128.688C129.982 128.483 129.847 128.205 129.847 127.916C129.847 127.626 129.982 127.348 130.222 127.144C130.462 126.939 130.787 126.824 131.126 126.824C131.465 126.824 131.79 126.939 132.03 127.144C132.27 127.348 132.405 127.626 132.405 127.916ZM148.573 127.916C148.573 128.205 148.438 128.483 148.199 128.688C147.959 128.892 147.634 129.007 147.295 129.007C146.955 129.007 146.63 128.892 146.39 128.688C146.151 128.483 146.016 128.205 146.016 127.916C146.016 127.626 146.151 127.348 146.39 127.144C146.63 126.939 146.955 126.824 147.295 126.824C147.634 126.824 147.959 126.939 148.199 127.144C148.438 127.348 148.573 127.626 148.573 127.916ZM164.741 127.916C164.741 128.205 164.606 128.483 164.366 128.688C164.126 128.892 163.801 129.007 163.462 129.007C163.123 129.007 162.798 128.892 162.558 128.688C162.318 128.483 162.184 128.205 162.184 127.916C162.184 127.626 162.318 127.348 162.558 127.144C162.798 126.939 163.123 126.824 163.462 126.824C163.801 126.824 164.126 126.939 164.366 127.144C164.606 127.348 164.741 127.626 164.741 127.916ZM180.909 127.916C180.909 128.205 180.774 128.483 180.535 128.688C180.295 128.892 179.97 129.007 179.631 129.007C179.291 129.007 178.966 128.892 178.726 128.688C178.487 128.483 178.352 128.205 178.352 127.916C178.352 127.626 178.487 127.348 178.726 127.144C178.966 126.939 179.291 126.824 179.631 126.824C179.97 126.824 180.295 126.939 180.535 127.144C180.774 127.348 180.909 127.626 180.909 127.916ZM3.05805 141.908C3.05799 142.051 3.02488 142.193 2.96055 142.326C2.89622 142.458 2.80196 142.579 2.68315 142.68C2.56434 142.781 2.42328 142.862 2.26808 142.917C2.11288 142.971 1.94657 143 1.77861 143C1.61064 143 1.4443 142.971 1.28914 142.916C1.13398 142.861 0.993062 142.781 0.874332 142.68C0.755603 142.578 0.661412 142.458 0.597186 142.325C0.53296 142.193 0.499944 142.051 0.5 141.907C0.5 141.618 0.634703 141.34 0.874489 141.135C1.11427 140.93 1.4395 140.815 1.77861 140.815C2.11772 140.815 2.44294 140.93 2.68273 141.135C2.92252 141.34 3.05722 141.618 3.05722 141.907L3.05805 141.908ZM19.2256 141.908C19.2255 142.197 19.0907 142.475 18.8509 142.68C18.611 142.884 18.2857 142.999 17.9466 142.999C17.6075 142.999 17.2823 142.884 17.0426 142.679C16.8029 142.474 16.6683 142.197 16.6684 141.907C16.6684 141.618 16.8032 141.34 17.0429 141.135C17.2827 140.93 17.6079 140.815 17.947 140.815C18.2861 140.815 18.6113 140.93 18.8511 141.135C19.0909 141.34 19.2256 141.618 19.2256 141.908ZM35.3941 141.908C35.394 142.051 35.3609 142.193 35.2966 142.326C35.2322 142.458 35.138 142.579 35.0192 142.68C34.9004 142.781 34.7593 142.862 34.6041 142.917C34.4489 142.971 34.2826 143 34.1146 143C33.9467 143 33.7803 142.971 33.6252 142.916C33.47 142.861 33.3291 142.781 33.2104 142.68C33.0916 142.578 32.9974 142.458 32.9332 142.325C32.869 142.193 32.836 142.051 32.836 141.907C32.836 141.617 32.9708 141.34 33.2106 141.135C33.4505 140.93 33.7758 140.815 34.1151 140.815C34.4543 140.815 34.7796 140.93 35.0195 141.135C35.2593 141.34 35.3941 141.618 35.3941 141.908ZM51.5625 141.908C51.5625 142.051 51.5293 142.193 51.465 142.326C51.4007 142.458 51.3064 142.579 51.1876 142.68C51.0688 142.781 50.9278 142.862 50.7726 142.917C50.6174 142.971 50.4511 143 50.2831 143C50.1151 143 49.9488 142.971 49.7936 142.916C49.6385 142.861 49.4975 142.781 49.3788 142.68C49.26 142.578 49.1659 142.458 49.1017 142.325C49.0374 142.193 49.0044 142.051 49.0045 141.907C49.0045 141.618 49.1392 141.34 49.379 141.135C49.6188 140.93 49.944 140.815 50.2831 140.815C50.6222 140.815 50.9474 140.93 51.1872 141.135C51.4269 141.34 51.5617 141.618 51.5617 141.907L51.5625 141.908ZM67.731 141.908C67.7309 142.051 67.6978 142.193 67.6334 142.326C67.5691 142.458 67.4748 142.579 67.356 142.68C67.2372 142.781 67.0962 142.862 66.941 142.917C66.7858 142.971 66.6195 143 66.4515 143C66.2835 143 66.1172 142.971 65.9621 142.916C65.8069 142.861 65.6659 142.781 65.5472 142.68C65.4285 142.578 65.3343 142.458 65.2701 142.325C65.2058 142.193 65.1728 142.051 65.1729 141.907C65.1729 141.618 65.3076 141.34 65.5474 141.135C65.7872 140.93 66.1124 140.815 66.4515 140.815C66.7906 140.815 67.1158 140.93 67.3556 141.135C67.5954 141.34 67.7301 141.618 67.7301 141.907L67.731 141.908ZM83.8986 141.908C83.8986 142.197 83.7639 142.475 83.5241 142.68C83.2843 142.885 82.9591 143 82.6199 143C82.2808 143 81.9556 142.885 81.7158 142.68C81.476 142.475 81.3413 142.197 81.3413 141.908C81.3413 141.618 81.476 141.341 81.7158 141.136C81.9556 140.931 82.2808 140.816 82.6199 140.816C82.9591 140.816 83.2843 140.931 83.5241 141.136C83.7639 141.341 83.8986 141.618 83.8986 141.908ZM100.067 141.908C100.067 142.197 99.9323 142.475 99.6925 142.68C99.4527 142.885 99.1275 143 98.7884 143C98.4493 143 98.1241 142.885 97.8843 142.68C97.6445 142.475 97.5098 142.197 97.5098 141.908C97.5098 141.618 97.6445 141.341 97.8843 141.136C98.1241 140.931 98.4493 140.816 98.7884 140.816C99.1275 140.816 99.4527 140.931 99.6925 141.136C99.9323 141.341 100.067 141.618 100.067 141.908ZM116.236 141.908C116.236 142.198 116.101 142.475 115.861 142.68C115.621 142.885 115.296 143 114.957 143C114.618 143 114.292 142.884 114.053 142.68C113.813 142.475 113.678 142.197 113.678 141.907C113.678 141.617 113.813 141.34 114.053 141.135C114.293 140.93 114.618 140.815 114.957 140.815C115.296 140.815 115.622 140.93 115.862 141.135C116.102 141.34 116.236 141.618 116.236 141.908ZM132.405 141.908C132.405 142.198 132.27 142.475 132.03 142.68C131.79 142.885 131.464 143 131.125 143C130.786 143 130.461 142.884 130.221 142.68C129.981 142.475 129.847 142.197 129.847 141.907C129.847 141.618 129.981 141.34 130.221 141.135C130.461 140.93 130.786 140.815 131.125 140.815C131.464 140.815 131.79 140.93 132.029 141.135C132.269 141.34 132.404 141.618 132.404 141.907L132.405 141.908ZM148.573 141.908C148.573 142.198 148.438 142.475 148.198 142.68C147.958 142.885 147.633 143 147.293 143C146.954 143 146.629 142.885 146.389 142.68C146.149 142.475 146.014 142.197 146.014 141.907C146.014 141.617 146.149 141.34 146.389 141.135C146.629 140.93 146.954 140.815 147.293 140.815C147.633 140.815 147.958 140.93 148.198 141.135C148.438 141.34 148.572 141.617 148.572 141.907L148.573 141.908ZM164.741 141.908C164.741 142.051 164.708 142.193 164.643 142.326C164.579 142.458 164.485 142.578 164.366 142.68C164.247 142.781 164.106 142.861 163.951 142.916C163.796 142.971 163.63 142.999 163.462 142.999C163.294 142.999 163.128 142.971 162.972 142.916C162.817 142.861 162.676 142.781 162.558 142.679C162.439 142.578 162.345 142.457 162.281 142.325C162.216 142.192 162.184 142.051 162.184 141.907C162.184 141.618 162.318 141.34 162.558 141.135C162.798 140.93 163.123 140.815 163.462 140.815C163.801 140.815 164.126 140.93 164.366 141.135C164.606 141.34 164.741 141.618 164.741 141.908ZM180.909 141.908C180.909 142.198 180.774 142.475 180.534 142.68C180.294 142.885 179.969 143 179.63 143C179.291 143 178.965 142.884 178.725 142.68C178.486 142.475 178.351 142.197 178.351 141.907C178.351 141.617 178.486 141.34 178.726 141.135C178.966 140.93 179.291 140.815 179.63 140.815C179.969 140.815 180.295 140.93 180.535 141.135C180.774 141.34 180.909 141.618 180.909 141.908Z" fill="#3102A8"/>
</svg>
