<svg width="181" height="143" viewBox="0 0 181 143" fill="none" xmlns="http://www.w3.org/2000/svg">
<path d="M2.55722 1.09251C2.55722 1.38207 2.42251 1.65977 2.18272 1.86452C1.94294 2.06927 1.61772 2.18429 1.27861 2.18429C0.939501 2.18429 0.614281 2.06927 0.374495 1.86452C0.134709 1.65977 0 1.38207 0 1.09251C0 0.802952 0.134709 0.525253 0.374495 0.320504C0.614281 0.115755 0.939501 0.000727852 1.27861 0.000727852C1.61772 0.000727852 1.94294 0.115755 2.18272 0.320504C2.42251 0.525253 2.55722 0.802952 2.55722 1.09251ZM18.7257 1.09251C18.7257 1.38207 18.591 1.65977 18.3512 1.86452C18.1114 2.06927 17.7862 2.18429 17.4471 2.18429C17.1079 2.18429 16.7827 2.06927 16.5429 1.86452C16.3032 1.65977 16.1684 1.38207 16.1684 1.09251C16.1684 0.802952 16.3032 0.525253 16.5429 0.320504C16.7827 0.115755 17.1079 0.000727852 17.4471 0.000727852C17.7862 0.000727852 18.1114 0.115755 18.3512 0.320504C18.591 0.525253 18.7257 0.802952 18.7257 1.09251ZM34.8941 1.09251C34.8941 1.38217 34.7594 1.65996 34.5195 1.86478C34.2796 2.06959 33.9543 2.18466 33.6151 2.18466C33.2759 2.18466 32.9505 2.06959 32.7107 1.86478C32.4708 1.65996 32.336 1.38217 32.336 1.09251C32.336 0.802856 32.4708 0.525064 32.7107 0.320246C32.9505 0.115429 33.2759 0.000363923 33.6151 0.000363923C33.9543 0.000363923 34.2796 0.115429 34.5195 0.320246C34.7594 0.525064 34.8941 0.802856 34.8941 1.09251ZM51.0626 1.09251C51.0626 1.38217 50.9278 1.65996 50.6879 1.86478C50.4481 2.06959 50.1227 2.18466 49.7835 2.18466C49.4443 2.18466 49.119 2.06959 48.8791 1.86478C48.6392 1.65996 48.5045 1.38217 48.5045 1.09251C48.5045 0.802952 48.6392 0.525253 48.879 0.320504C49.1188 0.115755 49.444 0.000727852 49.7831 0.000727852C50.1222 0.000727852 50.4474 0.115755 50.6872 0.320504C50.927 0.525253 51.0617 0.802952 51.0617 1.09251H51.0626ZM67.231 1.09251C67.231 1.38217 67.0962 1.65996 66.8564 1.86478C66.6165 2.06959 66.2912 2.18466 65.952 2.18466C65.6127 2.18466 65.2874 2.06959 65.0475 1.86478C64.8077 1.65996 64.6729 1.38217 64.6729 1.09251C64.6729 0.802952 64.8076 0.525253 65.0474 0.320504C65.2872 0.115755 65.6124 0.000727852 65.9515 0.000727852C66.2906 0.000727852 66.6159 0.115755 66.8556 0.320504C67.0954 0.525253 67.2301 0.802952 67.2301 1.09251H67.231ZM83.3986 1.09251C83.3986 1.38207 83.2639 1.65977 83.0241 1.86452C82.7843 2.06927 82.4591 2.18429 82.12 2.18429C81.7809 2.18429 81.4557 2.06927 81.2159 1.86452C80.9761 1.65977 80.8414 1.38207 80.8414 1.09251C80.8414 0.802952 80.9761 0.525253 81.2159 0.320504C81.4557 0.115755 81.7809 0.000727852 82.12 0.000727852C82.4591 0.000727852 82.7843 0.115755 83.0241 0.320504C83.2639 0.525253 83.3986 0.802952 83.3986 1.09251ZM99.567 1.09251C99.567 1.38207 99.4323 1.65977 99.1925 1.86452C98.9528 2.06927 98.6275 2.18429 98.2884 2.18429C97.9493 2.18429 97.6241 2.06927 97.3843 1.86452C97.1445 1.65977 97.0098 1.38207 97.0098 1.09251C97.0098 0.802952 97.1445 0.525253 97.3843 0.320504C97.6241 0.115755 97.9493 0.000727852 98.2884 0.000727852C98.6275 0.000727852 98.9528 0.115755 99.1925 0.320504C99.4323 0.525253 99.567 0.802952 99.567 1.09251ZM115.736 1.09251C115.736 1.38217 115.602 1.65996 115.362 1.86478C115.122 2.06959 114.797 2.18466 114.457 2.18466C114.118 2.18466 113.793 2.06959 113.553 1.86478C113.313 1.65996 113.178 1.38217 113.178 1.09251C113.178 0.802856 113.313 0.525064 113.553 0.320246C113.793 0.115429 114.118 0.000363923 114.457 0.000363923C114.797 0.000363923 115.122 0.115429 115.362 0.320246C115.602 0.525064 115.736 0.802856 115.736 1.09251ZM131.905 1.09251C131.905 1.38217 131.77 1.65996 131.53 1.86478C131.29 2.06959 130.965 2.18466 130.626 2.18466C130.287 2.18466 129.961 2.06959 129.721 1.86478C129.481 1.65996 129.347 1.38217 129.347 1.09251C129.347 0.802952 129.481 0.525253 129.721 0.320504C129.961 0.115755 130.286 0.000727852 130.625 0.000727852C130.964 0.000727852 131.29 0.115755 131.529 0.320504C131.769 0.525253 131.904 0.802952 131.904 1.09251H131.905ZM148.073 1.09251C148.073 1.38226 147.938 1.66015 147.698 1.86503C147.459 2.06992 147.133 2.18502 146.794 2.18502C146.454 2.18502 146.129 2.06992 145.889 1.86503C145.649 1.66015 145.514 1.38226 145.514 1.09251C145.514 0.802759 145.649 0.524875 145.889 0.319989C146.129 0.115104 146.454 0 146.794 0C147.133 0 147.459 0.115104 147.698 0.319989C147.938 0.524875 148.073 0.802759 148.073 1.09251ZM164.241 1.09251C164.241 1.38207 164.106 1.65977 163.866 1.86452C163.627 2.06927 163.301 2.18429 162.962 2.18429C162.623 2.18429 162.298 2.06927 162.058 1.86452C161.818 1.65977 161.684 1.38207 161.684 1.09251C161.684 0.802952 161.818 0.525253 162.058 0.320504C162.298 0.115755 162.623 0.000727852 162.962 0.000727852C163.301 0.000727852 163.627 0.115755 163.866 0.320504C164.106 0.525253 164.241 0.802952 164.241 1.09251ZM180.409 1.09251C180.409 1.38217 180.274 1.65996 180.035 1.86478C179.795 2.06959 179.469 2.18466 179.13 2.18466C178.791 2.18466 178.466 2.06959 178.226 1.86478C177.986 1.65996 177.851 1.38217 177.851 1.09251C177.851 0.802856 177.986 0.525064 178.226 0.320246C178.466 0.115429 178.791 0.000363923 179.13 0.000363923C179.469 0.000363923 179.795 0.115429 180.035 0.320246C180.274 0.525064 180.409 0.802856 180.409 1.09251ZM2.55722 15.0848C2.55722 15.3744 2.42251 15.6521 2.18272 15.8568C1.94294 16.0616 1.61772 16.1766 1.27861 16.1766C0.939501 16.1766 0.614281 16.0616 0.374495 15.8568C0.134709 15.6521 0 15.3744 0 15.0848C0 14.7952 0.134709 14.5175 0.374495 14.3128C0.614281 14.108 0.939501 13.993 1.27861 13.993C1.61772 13.993 1.94294 14.108 2.18272 14.3128C2.42251 14.5175 2.55722 14.7952 2.55722 15.0848ZM18.7257 15.0848C18.7256 15.2282 18.6925 15.3701 18.6282 15.5026C18.5639 15.635 18.4696 15.7554 18.3509 15.8567C18.2321 15.9581 18.0911 16.0384 17.936 16.0933C17.7808 16.1481 17.6145 16.1763 17.4466 16.1762C17.2787 16.1762 17.1125 16.1479 16.9574 16.093C16.8022 16.0381 16.6613 15.9576 16.5426 15.8562C16.4239 15.7548 16.3298 15.6344 16.2656 15.5019C16.2014 15.3694 16.1684 15.2275 16.1684 15.0841C16.1684 14.7945 16.3032 14.5168 16.5429 14.3121C16.7827 14.1073 17.1079 13.9923 17.4471 13.9923C17.7862 13.9923 18.1114 14.1073 18.3512 14.3121C18.591 14.5168 18.7257 14.7945 18.7257 15.0841V15.0848ZM34.8941 15.0848C34.8941 15.2282 34.8609 15.3702 34.7966 15.5027C34.7323 15.6352 34.638 15.7556 34.5192 15.857C34.4004 15.9583 34.2593 16.0388 34.1041 16.0936C33.9489 16.1484 33.7826 16.1766 33.6146 16.1766C33.4467 16.1765 33.2804 16.1482 33.1252 16.0933C32.9701 16.0384 32.8291 15.9579 32.7104 15.8565C32.5916 15.755 32.4975 15.6346 32.4332 15.5021C32.369 15.3695 32.336 15.2275 32.336 15.0841C32.336 14.7944 32.4708 14.5166 32.7107 14.3118C32.9505 14.107 33.2759 13.9919 33.6151 13.9919C33.9543 13.9919 34.2796 14.107 34.5195 14.3118C34.7594 14.5166 34.8941 14.7944 34.8941 15.0841V15.0848ZM51.0626 15.0848C51.0624 15.3745 50.9276 15.6522 50.6876 15.857C50.4477 16.0617 50.1223 16.1767 49.7831 16.1766C49.4439 16.1765 49.1186 16.0613 48.8788 15.8565C48.639 15.6516 48.5044 15.3737 48.5045 15.0841C48.5045 14.7945 48.6392 14.5168 48.879 14.3121C49.1188 14.1073 49.444 13.9923 49.7831 13.9923C50.1222 13.9923 50.4474 14.1073 50.6872 14.3121C50.927 14.5168 51.0617 14.7945 51.0617 15.0841L51.0626 15.0848ZM67.231 15.0848C67.2309 15.2282 67.1978 15.3702 67.1335 15.5027C67.0692 15.6352 66.9749 15.7556 66.8561 15.857C66.7373 15.9583 66.5962 16.0388 66.441 16.0936C66.2858 16.1484 66.1195 16.1766 65.9515 16.1766C65.7836 16.1765 65.6173 16.1482 65.4621 16.0933C65.3069 16.0384 65.166 15.9579 65.0472 15.8565C64.9285 15.755 64.8344 15.6346 64.7701 15.5021C64.7059 15.3695 64.6729 15.2275 64.6729 15.0841C64.6729 14.7945 64.8076 14.5168 65.0474 14.3121C65.2872 14.1073 65.6124 13.9923 65.9515 13.9923C66.2906 13.9923 66.6159 14.1073 66.8556 14.3121C67.0954 14.5168 67.2301 14.7945 67.2301 15.0841L67.231 15.0848ZM83.3986 15.0848C83.3986 15.3744 83.2639 15.6521 83.0241 15.8568C82.7843 16.0616 82.4591 16.1766 82.12 16.1766C81.7809 16.1766 81.4557 16.0616 81.2159 15.8568C80.9761 15.6521 80.8414 15.3744 80.8414 15.0848C80.8414 14.7952 80.9761 14.5175 81.2159 14.3128C81.4557 14.108 81.7809 13.993 82.12 13.993C82.4591 13.993 82.7843 14.108 83.0241 14.3128C83.2639 14.5175 83.3986 14.7952 83.3986 15.0848ZM99.567 15.0848C99.567 15.3744 99.4323 15.6521 99.1925 15.8568C98.9528 16.0616 98.6275 16.1766 98.2884 16.1766C97.9493 16.1766 97.6241 16.0616 97.3843 15.8568C97.1445 15.6521 97.0098 15.3744 97.0098 15.0848C97.0098 14.7952 97.1445 14.5175 97.3843 14.3128C97.6241 14.108 97.9493 13.993 98.2884 13.993C98.6275 13.993 98.9528 14.108 99.1925 14.3128C99.4323 14.5175 99.567 14.7952 99.567 15.0848ZM115.736 15.0848C115.736 15.3745 115.601 15.6522 115.361 15.857C115.121 16.0617 114.796 16.1767 114.457 16.1766C114.118 16.1765 113.792 16.0613 113.553 15.8565C113.313 15.6516 113.178 15.3737 113.178 15.0841C113.178 14.7944 113.313 14.5166 113.553 14.3118C113.793 14.107 114.118 13.9919 114.457 13.9919C114.797 13.9919 115.122 14.107 115.362 14.3118C115.602 14.5166 115.736 14.7944 115.736 15.0841V15.0848ZM131.905 15.0848C131.905 15.3745 131.77 15.6522 131.53 15.857C131.29 16.0617 130.965 16.1767 130.625 16.1766C130.286 16.1765 129.961 16.0613 129.721 15.8565C129.481 15.6516 129.347 15.3737 129.347 15.0841C129.347 14.7945 129.481 14.5168 129.721 14.3121C129.961 14.1073 130.286 13.9923 130.625 13.9923C130.964 13.9923 131.29 14.1073 131.529 14.3121C131.769 14.5168 131.904 14.7945 131.904 15.0841L131.905 15.0848ZM148.073 15.0848C148.073 15.3746 147.938 15.6524 147.698 15.8572C147.458 16.062 147.133 16.177 146.793 16.177C146.454 16.1769 146.129 16.0617 145.889 15.8567C145.649 15.6518 145.514 15.3738 145.514 15.0841C145.514 14.7943 145.649 14.5164 145.889 14.3116C146.129 14.1067 146.454 13.9916 146.794 13.9916C147.133 13.9916 147.459 14.1067 147.698 14.3116C147.938 14.5164 148.073 14.7943 148.073 15.0841V15.0848ZM164.241 15.0848C164.241 15.2282 164.208 15.3701 164.143 15.5026C164.079 15.635 163.985 15.7554 163.866 15.8567C163.747 15.9581 163.606 16.0384 163.451 16.0933C163.296 16.1481 163.13 16.1763 162.962 16.1762C162.794 16.1762 162.628 16.1479 162.473 16.093C162.317 16.0381 162.176 15.9576 162.058 15.8562C161.939 15.7548 161.845 15.6344 161.781 15.5019C161.717 15.3694 161.684 15.2275 161.684 15.0841C161.684 14.7945 161.818 14.5168 162.058 14.3121C162.298 14.1073 162.623 13.9923 162.962 13.9923C163.301 13.9923 163.627 14.1073 163.866 14.3121C164.106 14.5168 164.241 14.7945 164.241 15.0841V15.0848ZM180.409 15.0848C180.409 15.3745 180.274 15.6522 180.034 15.857C179.794 16.0617 179.469 16.1767 179.13 16.1766C178.791 16.1765 178.465 16.0613 178.225 15.8565C177.986 15.6516 177.851 15.3737 177.851 15.0841C177.851 14.7944 177.986 14.5166 178.226 14.3118C178.466 14.107 178.791 13.9919 179.13 13.9919C179.469 13.9919 179.795 14.107 180.035 14.3118C180.274 14.5166 180.409 14.7944 180.409 15.0841V15.0848ZM2.55722 29.0756C2.56361 29.2223 2.53532 29.3685 2.47403 29.5056C2.41275 29.6427 2.31974 29.7678 2.20056 29.8735C2.08137 29.9792 1.93845 30.0633 1.78034 30.1208C1.62224 30.1782 1.45218 30.2079 1.28035 30.208C1.10851 30.2081 0.938409 30.1786 0.780213 30.1213C0.622017 30.064 0.478974 29.9801 0.359622 29.8745C0.24027 29.769 0.14706 29.644 0.0855645 29.5069C0.0240692 29.3699 -0.00445412 29.2237 0.00170388 29.0771C0.0135666 28.7946 0.153271 28.5271 0.391423 28.3308C0.629575 28.1344 0.947615 28.0246 1.27864 28.0244C1.60967 28.0243 1.92788 28.1337 2.16634 28.3298C2.4048 28.5258 2.54492 28.7932 2.55722 29.0756ZM18.7257 29.0756C18.7257 29.3652 18.591 29.6429 18.3512 29.8477C18.1114 30.0524 17.7862 30.1674 17.4471 30.1674C17.1079 30.1674 16.7827 30.0524 16.5429 29.8477C16.3032 29.6429 16.1684 29.3652 16.1684 29.0756C16.1684 28.7861 16.3032 28.5084 16.5429 28.3036C16.7827 28.0989 17.1079 27.9839 17.4471 27.9839C17.7862 27.9839 18.1114 28.0989 18.3512 28.3036C18.591 28.5084 18.7257 28.7861 18.7257 29.0756ZM34.8941 29.0756C34.8941 29.3652 34.7594 29.6429 34.5196 29.8477C34.2798 30.0524 33.9546 30.1674 33.6155 30.1674C33.2764 30.1674 32.9512 30.0524 32.7114 29.8477C32.4716 29.6429 32.3369 29.3652 32.3369 29.0756C32.3369 28.7861 32.4716 28.5084 32.7114 28.3036C32.9512 28.0989 33.2764 27.9839 33.6155 27.9839C33.9546 27.9839 34.2798 28.0989 34.5196 28.3036C34.7594 28.5084 34.8941 28.7861 34.8941 29.0756ZM51.0626 29.0756C51.0626 29.3652 50.9278 29.6429 50.6881 29.8477C50.4483 30.0524 50.1231 30.1674 49.7839 30.1674C49.4448 30.1674 49.1196 30.0524 48.8798 29.8477C48.64 29.6429 48.5053 29.3652 48.5053 29.0756C48.5053 28.7861 48.64 28.5084 48.8798 28.3036C49.1196 28.0989 49.4448 27.9839 49.7839 27.9839C50.1231 27.9839 50.4483 28.0989 50.6881 28.3036C50.9278 28.5084 51.0626 28.7861 51.0626 29.0756ZM67.231 29.0756C67.231 29.3652 67.0963 29.6429 66.8565 29.8477C66.6167 30.0524 66.2915 30.1674 65.9524 30.1674C65.6133 30.1674 65.2881 30.0524 65.0483 29.8477C64.8085 29.6429 64.6738 29.3652 64.6738 29.0756C64.6738 28.7861 64.8085 28.5084 65.0483 28.3036C65.2881 28.0989 65.6133 27.9839 65.9524 27.9839C66.2915 27.9839 66.6167 28.0989 66.8565 28.3036C67.0963 28.5084 67.231 28.7861 67.231 29.0756ZM83.3986 29.0756C83.405 29.2223 83.3767 29.3685 83.3154 29.5056C83.2541 29.6427 83.1611 29.7678 83.0419 29.8735C82.9227 29.9792 82.7798 30.0633 82.6217 30.1208C82.4636 30.1782 82.2935 30.2079 82.1217 30.208C81.9499 30.2081 81.7798 30.1786 81.6216 30.1213C81.4634 30.064 81.3204 29.9801 81.201 29.8745C81.0816 29.769 80.9884 29.644 80.9269 29.5069C80.8654 29.3699 80.8369 29.2237 80.8431 29.0771C80.8549 28.7946 80.9946 28.5271 81.2328 28.3308C81.4709 28.1344 81.789 28.0246 82.12 28.0244C82.451 28.0243 82.7692 28.1337 83.0077 28.3298C83.2462 28.5258 83.3863 28.7932 83.3986 29.0756ZM99.567 29.0756C99.5734 29.2223 99.5451 29.3685 99.4838 29.5056C99.4226 29.6427 99.3296 29.7678 99.2104 29.8735C99.0912 29.9792 98.9483 30.0633 98.7902 30.1208C98.6321 30.1782 98.462 30.2079 98.2902 30.208C98.1183 30.2081 97.9482 30.1786 97.79 30.1213C97.6318 30.064 97.4888 29.9801 97.3694 29.8745C97.2501 29.769 97.1569 29.644 97.0954 29.5069C97.0339 29.3699 97.0054 29.2237 97.0115 29.0771C97.0234 28.7946 97.1631 28.5271 97.4012 28.3308C97.6394 28.1344 97.9574 28.0246 98.2885 28.0244C98.6195 28.0243 98.9377 28.1337 99.1761 28.3298C99.4146 28.5258 99.5547 28.7932 99.567 29.0756ZM115.736 29.0756C115.736 29.3652 115.602 29.6429 115.362 29.8477C115.122 30.0524 114.797 30.1674 114.458 30.1674C114.119 30.1674 113.793 30.0524 113.554 29.8477C113.314 29.6429 113.179 29.3652 113.179 29.0756C113.179 28.7861 113.314 28.5084 113.554 28.3036C113.793 28.0989 114.119 27.9839 114.458 27.9839C114.797 27.9839 115.122 28.0989 115.362 28.3036C115.602 28.5084 115.736 28.7861 115.736 29.0756ZM131.905 29.0756C131.905 29.3652 131.77 29.6429 131.53 29.8477C131.29 30.0524 130.965 30.1674 130.626 30.1674C130.287 30.1674 129.962 30.0524 129.722 29.8477C129.482 29.6429 129.348 29.3652 129.348 29.0756C129.348 28.7861 129.482 28.5084 129.722 28.3036C129.962 28.0989 130.287 27.9839 130.626 27.9839C130.965 27.9839 131.29 28.0989 131.53 28.3036C131.77 28.5084 131.905 28.7861 131.905 29.0756ZM148.073 29.0756C148.073 29.3652 147.939 29.6429 147.699 29.8477C147.459 30.0524 147.134 30.1674 146.795 30.1674C146.455 30.1674 146.13 30.0524 145.891 29.8477C145.651 29.6429 145.516 29.3652 145.516 29.0756C145.516 28.7861 145.651 28.5084 145.891 28.3036C146.13 28.0989 146.455 27.9839 146.795 27.9839C147.134 27.9839 147.459 28.0989 147.699 28.3036C147.939 28.5084 148.073 28.7861 148.073 29.0756ZM164.241 29.0756C164.241 29.3652 164.106 29.6429 163.866 29.8477C163.627 30.0524 163.301 30.1674 162.962 30.1674C162.623 30.1674 162.298 30.0524 162.058 29.8477C161.818 29.6429 161.684 29.3652 161.684 29.0756C161.684 28.7861 161.818 28.5084 162.058 28.3036C162.298 28.0989 162.623 27.9839 162.962 27.9839C163.301 27.9839 163.627 28.0989 163.866 28.3036C164.106 28.5084 164.241 28.7861 164.241 29.0756ZM180.409 29.0756C180.409 29.3652 180.275 29.6429 180.035 29.8477C179.795 30.0524 179.47 30.1674 179.131 30.1674C178.792 30.1674 178.466 30.0524 178.227 29.8477C177.987 29.6429 177.852 29.3652 177.852 29.0756C177.852 28.7861 177.987 28.5084 178.227 28.3036C178.466 28.0989 178.792 27.9839 179.131 27.9839C179.47 27.9839 179.795 28.0989 180.035 28.3036C180.275 28.5084 180.409 28.7861 180.409 29.0756ZM2.55722 43.0679C2.56355 43.2146 2.5352 43.3608 2.47387 43.4979C2.41253 43.6349 2.31947 43.76 2.20024 43.8657C2.08102 43.9714 1.93807 44.0554 1.77994 44.1128C1.62181 44.1703 1.45174 44.1999 1.2799 44.1999C1.10807 44.2 0.937977 44.1705 0.779803 44.1131C0.621629 44.0558 0.478614 43.9718 0.359303 43.8662C0.239992 43.7606 0.146837 43.6356 0.0853954 43.4985C0.023954 43.3615 -0.0045122 43.2153 0.00170388 43.0687C0.0136784 42.7862 0.153487 42.5187 0.391716 42.3224C0.629945 42.1262 0.948026 42.0165 1.27905 42.0164C1.61008 42.0163 1.92825 42.1258 2.16663 42.3219C2.40501 42.5181 2.54502 42.7855 2.55722 43.0679ZM18.7257 43.0679C18.7257 43.3575 18.591 43.6352 18.3512 43.84C18.1114 44.0447 17.7862 44.1597 17.4471 44.1597C17.1079 44.1597 16.7827 44.0447 16.5429 43.84C16.3032 43.6352 16.1684 43.3575 16.1684 43.0679C16.1684 42.7784 16.3032 42.5007 16.5429 42.2959C16.7827 42.0912 17.1079 41.9762 17.4471 41.9762C17.7862 41.9762 18.1114 42.0912 18.3512 42.2959C18.591 42.5007 18.7257 42.7784 18.7257 43.0679ZM34.8941 43.0679C34.8941 43.3575 34.7594 43.6352 34.5196 43.84C34.2798 44.0447 33.9546 44.1597 33.6155 44.1597C33.2764 44.1597 32.9512 44.0447 32.7114 43.84C32.4716 43.6352 32.3369 43.3575 32.3369 43.0679C32.3369 42.7784 32.4716 42.5007 32.7114 42.2959C32.9512 42.0912 33.2764 41.9762 33.6155 41.9762C33.9546 41.9762 34.2798 42.0912 34.5196 42.2959C34.7594 42.5007 34.8941 42.7784 34.8941 43.0679ZM51.0626 43.0679C51.0626 43.3575 50.9278 43.6352 50.6881 43.84C50.4483 44.0447 50.1231 44.1597 49.7839 44.1597C49.4448 44.1597 49.1196 44.0447 48.8798 43.84C48.64 43.6352 48.5053 43.3575 48.5053 43.0679C48.5053 42.7784 48.64 42.5007 48.8798 42.2959C49.1196 42.0912 49.4448 41.9762 49.7839 41.9762C50.1231 41.9762 50.4483 42.0912 50.6881 42.2959C50.9278 42.5007 51.0626 42.7784 51.0626 43.0679ZM67.231 43.0679C67.231 43.3575 67.0963 43.6352 66.8565 43.84C66.6167 44.0447 66.2915 44.1597 65.9524 44.1597C65.6133 44.1597 65.2881 44.0447 65.0483 43.84C64.8085 43.6352 64.6738 43.3575 64.6738 43.0679C64.6738 42.7784 64.8085 42.5007 65.0483 42.2959C65.2881 42.0912 65.6133 41.9762 65.9524 41.9762C66.2915 41.9762 66.6167 42.0912 66.8565 42.2959C67.0963 42.5007 67.231 42.7784 67.231 43.0679ZM83.3986 43.0679C83.4049 43.2146 83.3766 43.3608 83.3152 43.4979C83.2539 43.6349 83.1608 43.76 83.0416 43.8657C82.9224 43.9714 82.7794 44.0554 82.6213 44.1128C82.4632 44.1703 82.2931 44.1999 82.1213 44.1999C81.9494 44.2 81.7794 44.1705 81.6212 44.1131C81.463 44.0558 81.32 43.9718 81.2007 43.8662C81.0814 43.7606 80.9882 43.6356 80.9268 43.4985C80.8653 43.3615 80.8369 43.2153 80.8431 43.0687C80.855 42.7862 80.9949 42.5187 81.2331 42.3224C81.4713 42.1262 81.7894 42.0165 82.1204 42.0164C82.4515 42.0163 82.7696 42.1258 83.008 42.3219C83.2464 42.5181 83.3864 42.7855 83.3986 43.0679ZM99.567 43.0679C99.5734 43.2146 99.545 43.3608 99.4837 43.4979C99.4223 43.6349 99.3293 43.76 99.2101 43.8657C99.0908 43.9714 98.9479 44.0554 98.7897 44.1128C98.6316 44.1703 98.4616 44.1999 98.2897 44.1999C98.1179 44.2 97.9478 44.1705 97.7896 44.1131C97.6314 44.0558 97.4884 43.9718 97.3691 43.8662C97.2498 43.7606 97.1566 43.6356 97.0952 43.4985C97.0338 43.3615 97.0053 43.2153 97.0115 43.0687C97.0235 42.7862 97.1633 42.5187 97.4015 42.3224C97.6398 42.1262 97.9578 42.0165 98.2889 42.0164C98.6199 42.0163 98.9381 42.1258 99.1764 42.3219C99.4148 42.5181 99.5548 42.7855 99.567 43.0679ZM115.736 43.0679C115.736 43.3575 115.602 43.6352 115.362 43.84C115.122 44.0447 114.797 44.1597 114.458 44.1597C114.119 44.1597 113.793 44.0447 113.554 43.84C113.314 43.6352 113.179 43.3575 113.179 43.0679C113.179 42.7784 113.314 42.5007 113.554 42.2959C113.793 42.0912 114.119 41.9762 114.458 41.9762C114.797 41.9762 115.122 42.0912 115.362 42.2959C115.602 42.5007 115.736 42.7784 115.736 43.0679ZM131.905 43.0679C131.905 43.3575 131.77 43.6352 131.53 43.84C131.29 44.0447 130.965 44.1597 130.626 44.1597C130.287 44.1597 129.962 44.0447 129.722 43.84C129.482 43.6352 129.348 43.3575 129.348 43.0679C129.348 42.7784 129.482 42.5007 129.722 42.2959C129.962 42.0912 130.287 41.9762 130.626 41.9762C130.965 41.9762 131.29 42.0912 131.53 42.2959C131.77 42.5007 131.905 42.7784 131.905 43.0679ZM148.073 43.0679C148.073 43.3575 147.939 43.6352 147.699 43.84C147.459 44.0447 147.134 44.1597 146.795 44.1597C146.455 44.1597 146.13 44.0447 145.891 43.84C145.651 43.6352 145.516 43.3575 145.516 43.0679C145.516 42.7784 145.651 42.5007 145.891 42.2959C146.13 42.0912 146.455 41.9762 146.795 41.9762C147.134 41.9762 147.459 42.0912 147.699 42.2959C147.939 42.5007 148.073 42.7784 148.073 43.0679ZM164.241 43.0679C164.241 43.3575 164.106 43.6352 163.866 43.84C163.627 44.0447 163.301 44.1597 162.962 44.1597C162.623 44.1597 162.298 44.0447 162.058 43.84C161.818 43.6352 161.684 43.3575 161.684 43.0679C161.684 42.7784 161.818 42.5007 162.058 42.2959C162.298 42.0912 162.623 41.9762 162.962 41.9762C163.301 41.9762 163.627 42.0912 163.866 42.2959C164.106 42.5007 164.241 42.7784 164.241 43.0679ZM180.409 43.0679C180.409 43.3575 180.275 43.6352 180.035 43.84C179.795 44.0447 179.47 44.1597 179.131 44.1597C178.792 44.1597 178.466 44.0447 178.227 43.84C177.987 43.6352 177.852 43.3575 177.852 43.0679C177.852 42.7784 177.987 42.5007 178.227 42.2959C178.466 42.0912 178.792 41.9762 179.131 41.9762C179.47 41.9762 179.795 42.0912 180.035 42.2959C180.275 42.5007 180.409 42.7784 180.409 43.0679ZM2.55722 57.0595C2.56355 57.2061 2.5352 57.3524 2.47387 57.4894C2.41253 57.6265 2.31947 57.7516 2.20024 57.8573C2.08102 57.9629 1.93807 58.047 1.77994 58.1044C1.62181 58.1618 1.45174 58.1915 1.2799 58.1915C1.10807 58.1916 0.937977 58.162 0.779803 58.1047C0.621629 58.0474 0.478614 57.9634 0.359303 57.8578C0.239992 57.7522 0.146837 57.6271 0.0853954 57.4901C0.023954 57.3531 -0.0045122 57.2069 0.00170388 57.0602C0.0136784 56.7778 0.153487 56.5103 0.391716 56.314C0.629945 56.1178 0.948026 56.008 1.27905 56.0079C1.61008 56.0079 1.92825 56.1174 2.16663 56.3135C2.40501 56.5096 2.54502 56.777 2.55722 57.0595ZM18.7257 57.0595C18.7257 57.3491 18.591 57.6268 18.3512 57.8315C18.1114 58.0363 17.7862 58.1513 17.4471 58.1513C17.1079 58.1513 16.7827 58.0363 16.5429 57.8315C16.3032 57.6268 16.1684 57.3491 16.1684 57.0595C16.1684 56.7699 16.3032 56.4922 16.5429 56.2875C16.7827 56.0827 17.1079 55.9677 17.4471 55.9677C17.7862 55.9677 18.1114 56.0827 18.3512 56.2875C18.591 56.4922 18.7257 56.7699 18.7257 57.0595ZM34.8941 57.0595C34.8941 57.3491 34.7594 57.6268 34.5196 57.8315C34.2798 58.0363 33.9546 58.1513 33.6155 58.1513C33.2764 58.1513 32.9512 58.0363 32.7114 57.8315C32.4716 57.6268 32.3369 57.3491 32.3369 57.0595C32.3369 56.7699 32.4716 56.4922 32.7114 56.2875C32.9512 56.0827 33.2764 55.9677 33.6155 55.9677C33.9546 55.9677 34.2798 56.0827 34.5196 56.2875C34.7594 56.4922 34.8941 56.7699 34.8941 57.0595ZM51.0626 57.0595C51.0626 57.3491 50.9278 57.6268 50.6881 57.8315C50.4483 58.0363 50.1231 58.1513 49.7839 58.1513C49.4448 58.1513 49.1196 58.0363 48.8798 57.8315C48.64 57.6268 48.5053 57.3491 48.5053 57.0595C48.5053 56.7699 48.64 56.4922 48.8798 56.2875C49.1196 56.0827 49.4448 55.9677 49.7839 55.9677C50.1231 55.9677 50.4483 56.0827 50.6881 56.2875C50.9278 56.4922 51.0626 56.7699 51.0626 57.0595ZM67.231 57.0595C67.231 57.3491 67.0963 57.6268 66.8565 57.8315C66.6167 58.0363 66.2915 58.1513 65.9524 58.1513C65.6133 58.1513 65.2881 58.0363 65.0483 57.8315C64.8085 57.6268 64.6738 57.3491 64.6738 57.0595C64.6738 56.7699 64.8085 56.4922 65.0483 56.2875C65.2881 56.0827 65.6133 55.9677 65.9524 55.9677C66.2915 55.9677 66.6167 56.0827 66.8565 56.2875C67.0963 56.4922 67.231 56.7699 67.231 57.0595ZM83.3986 57.0595C83.4049 57.2061 83.3766 57.3524 83.3152 57.4894C83.2539 57.6265 83.1608 57.7516 83.0416 57.8573C82.9224 57.9629 82.7794 58.047 82.6213 58.1044C82.4632 58.1618 82.2931 58.1915 82.1213 58.1915C81.9494 58.1916 81.7794 58.162 81.6212 58.1047C81.463 58.0474 81.32 57.9634 81.2007 57.8578C81.0814 57.7522 80.9882 57.6271 80.9268 57.4901C80.8653 57.3531 80.8369 57.2069 80.8431 57.0602C80.855 56.7778 80.9949 56.5103 81.2331 56.314C81.4713 56.1178 81.7894 56.008 82.1204 56.0079C82.4515 56.0079 82.7696 56.1174 83.008 56.3135C83.2464 56.5096 83.3864 56.777 83.3986 57.0595ZM99.567 57.0595C99.5734 57.2061 99.545 57.3524 99.4837 57.4894C99.4223 57.6265 99.3293 57.7516 99.2101 57.8573C99.0908 57.9629 98.9479 58.047 98.7897 58.1044C98.6316 58.1618 98.4616 58.1915 98.2897 58.1915C98.1179 58.1916 97.9478 58.162 97.7896 58.1047C97.6314 58.0474 97.4884 57.9634 97.3691 57.8578C97.2498 57.7522 97.1566 57.6271 97.0952 57.4901C97.0338 57.3531 97.0053 57.2069 97.0115 57.0602C97.0235 56.7778 97.1633 56.5103 97.4015 56.314C97.6398 56.1178 97.9578 56.008 98.2889 56.0079C98.6199 56.0079 98.9381 56.1174 99.1764 56.3135C99.4148 56.5096 99.5548 56.777 99.567 57.0595ZM115.736 57.0595C115.736 57.3491 115.602 57.6268 115.362 57.8315C115.122 58.0363 114.797 58.1513 114.458 58.1513C114.119 58.1513 113.793 58.0363 113.554 57.8315C113.314 57.6268 113.179 57.3491 113.179 57.0595C113.179 56.7699 113.314 56.4922 113.554 56.2875C113.793 56.0827 114.119 55.9677 114.458 55.9677C114.797 55.9677 115.122 56.0827 115.362 56.2875C115.602 56.4922 115.736 56.7699 115.736 57.0595ZM131.905 57.0595C131.905 57.3491 131.77 57.6268 131.53 57.8315C131.29 58.0363 130.965 58.1513 130.626 58.1513C130.287 58.1513 129.962 58.0363 129.722 57.8315C129.482 57.6268 129.348 57.3491 129.348 57.0595C129.348 56.7699 129.482 56.4922 129.722 56.2875C129.962 56.0827 130.287 55.9677 130.626 55.9677C130.965 55.9677 131.29 56.0827 131.53 56.2875C131.77 56.4922 131.905 56.7699 131.905 57.0595ZM148.073 57.0595C148.073 57.3491 147.939 57.6268 147.699 57.8315C147.459 58.0363 147.134 58.1513 146.795 58.1513C146.455 58.1513 146.13 58.0363 145.891 57.8315C145.651 57.6268 145.516 57.3491 145.516 57.0595C145.516 56.7699 145.651 56.4922 145.891 56.2875C146.13 56.0827 146.455 55.9677 146.795 55.9677C147.134 55.9677 147.459 56.0827 147.699 56.2875C147.939 56.4922 148.073 56.7699 148.073 57.0595ZM164.241 57.0595C164.241 57.3491 164.106 57.6268 163.866 57.8315C163.627 58.0363 163.301 58.1513 162.962 58.1513C162.623 58.1513 162.298 58.0363 162.058 57.8315C161.818 57.6268 161.684 57.3491 161.684 57.0595C161.684 56.7699 161.818 56.4922 162.058 56.2875C162.298 56.0827 162.623 55.9677 162.962 55.9677C163.301 55.9677 163.627 56.0827 163.866 56.2875C164.106 56.4922 164.241 56.7699 164.241 57.0595ZM180.409 57.0595C180.409 57.3491 180.275 57.6268 180.035 57.8315C179.795 58.0363 179.47 58.1513 179.131 58.1513C178.792 58.1513 178.466 58.0363 178.227 57.8315C177.987 57.6268 177.852 57.3491 177.852 57.0595C177.852 56.7699 177.987 56.4922 178.227 56.2875C178.466 56.0827 178.792 55.9677 179.131 55.9677C179.47 55.9677 179.795 56.0827 180.035 56.2875C180.275 56.4922 180.409 56.7699 180.409 57.0595ZM2.55722 71.0511C2.56355 71.1977 2.5352 71.3439 2.47387 71.481C2.41253 71.618 2.31947 71.7432 2.20024 71.8488C2.08102 71.9545 1.93807 72.0385 1.77994 72.096C1.62181 72.1534 1.45174 72.183 1.2799 72.1831C1.10807 72.1831 0.937977 72.1536 0.779803 72.0963C0.621629 72.0389 0.478614 71.9549 0.359303 71.8493C0.239992 71.7437 0.146837 71.6187 0.0853954 71.4817C0.023954 71.3446 -0.0045122 71.1984 0.00170388 71.0518C0.0136784 70.7693 0.153487 70.5018 0.391716 70.3056C0.629945 70.1093 0.948026 69.9996 1.27905 69.9995C1.61008 69.9994 1.92825 70.109 2.16663 70.3051C2.40501 70.5012 2.54502 70.7686 2.55722 71.0511ZM18.7257 71.0511C18.7257 71.3406 18.591 71.6183 18.3512 71.8231C18.1114 72.0278 17.7862 72.1429 17.4471 72.1429C17.1079 72.1429 16.7827 72.0278 16.5429 71.8231C16.3032 71.6183 16.1684 71.3406 16.1684 71.0511C16.1684 70.7615 16.3032 70.4838 16.5429 70.2791C16.7827 70.0743 17.1079 69.9593 17.4471 69.9593C17.7862 69.9593 18.1114 70.0743 18.3512 70.2791C18.591 70.4838 18.7257 70.7615 18.7257 71.0511ZM34.8941 71.0511C34.8941 71.3406 34.7594 71.6183 34.5196 71.8231C34.2798 72.0278 33.9546 72.1429 33.6155 72.1429C33.2764 72.1429 32.9512 72.0278 32.7114 71.8231C32.4716 71.6183 32.3369 71.3406 32.3369 71.0511C32.3369 70.7615 32.4716 70.4838 32.7114 70.2791C32.9512 70.0743 33.2764 69.9593 33.6155 69.9593C33.9546 69.9593 34.2798 70.0743 34.5196 70.2791C34.7594 70.4838 34.8941 70.7615 34.8941 71.0511ZM51.0626 71.0511C51.0626 71.3406 50.9278 71.6183 50.6881 71.8231C50.4483 72.0278 50.1231 72.1429 49.7839 72.1429C49.4448 72.1429 49.1196 72.0278 48.8798 71.8231C48.64 71.6183 48.5053 71.3406 48.5053 71.0511C48.5053 70.7615 48.64 70.4838 48.8798 70.2791C49.1196 70.0743 49.4448 69.9593 49.7839 69.9593C50.1231 69.9593 50.4483 70.0743 50.6881 70.2791C50.9278 70.4838 51.0626 70.7615 51.0626 71.0511ZM67.231 71.0511C67.231 71.3406 67.0963 71.6183 66.8565 71.8231C66.6167 72.0278 66.2915 72.1429 65.9524 72.1429C65.6133 72.1429 65.2881 72.0278 65.0483 71.8231C64.8085 71.6183 64.6738 71.3406 64.6738 71.0511C64.6738 70.7615 64.8085 70.4838 65.0483 70.2791C65.2881 70.0743 65.6133 69.9593 65.9524 69.9593C66.2915 69.9593 66.6167 70.0743 66.8565 70.2791C67.0963 70.4838 67.231 70.7615 67.231 71.0511ZM83.3986 71.0511C83.4049 71.1977 83.3766 71.3439 83.3152 71.481C83.2539 71.618 83.1608 71.7432 83.0416 71.8488C82.9224 71.9545 82.7794 72.0385 82.6213 72.096C82.4632 72.1534 82.2931 72.183 82.1213 72.1831C81.9494 72.1831 81.7794 72.1536 81.6212 72.0963C81.463 72.0389 81.32 71.9549 81.2007 71.8493C81.0814 71.7437 80.9882 71.6187 80.9268 71.4817C80.8653 71.3446 80.8369 71.1984 80.8431 71.0518C80.855 70.7693 80.9949 70.5018 81.2331 70.3056C81.4713 70.1093 81.7894 69.9996 82.1204 69.9995C82.4515 69.9994 82.7696 70.109 83.008 70.3051C83.2464 70.5012 83.3864 70.7686 83.3986 71.0511ZM99.567 71.0511C99.5734 71.1977 99.545 71.3439 99.4837 71.481C99.4223 71.618 99.3293 71.7432 99.2101 71.8488C99.0908 71.9545 98.9479 72.0385 98.7897 72.096C98.6316 72.1534 98.4616 72.183 98.2897 72.1831C98.1179 72.1831 97.9478 72.1536 97.7896 72.0963C97.6314 72.0389 97.4884 71.9549 97.3691 71.8493C97.2498 71.7437 97.1566 71.6187 97.0952 71.4817C97.0338 71.3446 97.0053 71.1984 97.0115 71.0518C97.0235 70.7693 97.1633 70.5018 97.4015 70.3056C97.6398 70.1093 97.9578 69.9996 98.2889 69.9995C98.6199 69.9994 98.9381 70.109 99.1764 70.3051C99.4148 70.5012 99.5548 70.7686 99.567 71.0511ZM115.736 71.0511C115.736 71.3406 115.602 71.6183 115.362 71.8231C115.122 72.0278 114.797 72.1429 114.458 72.1429C114.119 72.1429 113.793 72.0278 113.554 71.8231C113.314 71.6183 113.179 71.3406 113.179 71.0511C113.179 70.7615 113.314 70.4838 113.554 70.2791C113.793 70.0743 114.119 69.9593 114.458 69.9593C114.797 69.9593 115.122 70.0743 115.362 70.2791C115.602 70.4838 115.736 70.7615 115.736 71.0511ZM131.905 71.0511C131.905 71.3406 131.77 71.6183 131.53 71.8231C131.29 72.0278 130.965 72.1429 130.626 72.1429C130.287 72.1429 129.962 72.0278 129.722 71.8231C129.482 71.6183 129.348 71.3406 129.348 71.0511C129.348 70.7615 129.482 70.4838 129.722 70.2791C129.962 70.0743 130.287 69.9593 130.626 69.9593C130.965 69.9593 131.29 70.0743 131.53 70.2791C131.77 70.4838 131.905 70.7615 131.905 71.0511ZM148.073 71.0511C148.073 71.3406 147.939 71.6183 147.699 71.8231C147.459 72.0278 147.134 72.1429 146.795 72.1429C146.455 72.1429 146.13 72.0278 145.891 71.8231C145.651 71.6183 145.516 71.3406 145.516 71.0511C145.516 70.7615 145.651 70.4838 145.891 70.2791C146.13 70.0743 146.455 69.9593 146.795 69.9593C147.134 69.9593 147.459 70.0743 147.699 70.2791C147.939 70.4838 148.073 70.7615 148.073 71.0511ZM164.241 71.0511C164.241 71.3406 164.106 71.6183 163.866 71.8231C163.627 72.0278 163.301 72.1429 162.962 72.1429C162.623 72.1429 162.298 72.0278 162.058 71.8231C161.818 71.6183 161.684 71.3406 161.684 71.0511C161.684 70.7615 161.818 70.4838 162.058 70.2791C162.298 70.0743 162.623 69.9593 162.962 69.9593C163.301 69.9593 163.627 70.0743 163.866 70.2791C164.106 70.4838 164.241 70.7615 164.241 71.0511ZM180.409 71.0511C180.409 71.3406 180.275 71.6183 180.035 71.8231C179.795 72.0278 179.47 72.1429 179.131 72.1429C178.792 72.1429 178.466 72.0278 178.227 71.8231C177.987 71.6183 177.852 71.3406 177.852 71.0511C177.852 70.7615 177.987 70.4838 178.227 70.2791C178.466 70.0743 178.792 69.9593 179.131 69.9593C179.47 69.9593 179.795 70.0743 180.035 70.2791C180.275 70.4838 180.409 70.7615 180.409 71.0511ZM2.55722 85.0434C2.55722 85.3329 2.42251 85.6106 2.18272 85.8154C1.94294 86.0201 1.61772 86.1352 1.27861 86.1352C0.939501 86.1352 0.614281 86.0201 0.374495 85.8154C0.134709 85.6106 0 85.3329 0 85.0434C0 84.7538 0.134709 84.4761 0.374495 84.2714C0.614281 84.0666 0.939501 83.9516 1.27861 83.9516C1.61772 83.9516 1.94294 84.0666 2.18272 84.2714C2.42251 84.4761 2.55722 84.7538 2.55722 85.0434ZM18.7257 85.0434C18.7256 85.1867 18.6924 85.3287 18.628 85.4611C18.5637 85.5935 18.4694 85.7139 18.3506 85.8152C18.2318 85.9165 18.0907 85.9968 17.9356 86.0516C17.7804 86.1064 17.6141 86.1345 17.4462 86.1344C17.2783 86.1343 17.112 86.106 16.957 86.051C16.8019 85.9961 16.661 85.9156 16.5423 85.8141C16.4237 85.7127 16.3296 85.5923 16.2654 85.4598C16.2013 85.3273 16.1683 85.1853 16.1684 85.0419C16.1686 84.7524 16.3034 84.4747 16.5432 84.27C16.7831 84.0653 17.1084 83.9504 17.4475 83.9505C17.7866 83.9506 18.1118 84.0657 18.3515 84.2705C18.5912 84.4753 18.7258 84.7531 18.7257 85.0426V85.0434ZM34.8941 85.0434C34.894 85.1868 34.8608 85.3288 34.7964 85.4613C34.732 85.5937 34.6377 85.7141 34.5189 85.8154C34.2789 86.0201 33.9534 86.135 33.6142 86.1348C33.275 86.1346 32.9498 86.0193 32.7101 85.8144C32.4703 85.6094 32.3358 85.3316 32.336 85.0419C32.3361 84.7523 32.471 84.4745 32.711 84.2698C32.9509 84.065 33.2763 83.95 33.6155 83.9501C33.9547 83.9502 34.28 84.0654 34.5198 84.2703C34.7596 84.4752 34.8942 84.753 34.8941 85.0426V85.0434ZM51.0626 85.0434C51.0624 85.1868 51.0292 85.3288 50.9649 85.4613C50.9005 85.5937 50.8062 85.7141 50.6873 85.8154C50.4473 86.0201 50.1219 86.135 49.7827 86.1348C49.4434 86.1346 49.1182 86.0193 48.8785 85.8144C48.6388 85.6094 48.5043 85.3316 48.5045 85.0419C48.5046 84.7524 48.6394 84.4747 48.8793 84.27C49.1191 84.0653 49.4444 83.9504 49.7835 83.9505C50.1226 83.9506 50.4478 84.0657 50.6875 84.2705C50.9272 84.4753 51.0618 84.7531 51.0617 85.0426L51.0626 85.0434ZM67.231 85.0434C67.2309 85.1868 67.1977 85.3288 67.1333 85.4613C67.0689 85.5937 66.9746 85.7141 66.8558 85.8154C66.7369 85.9168 66.5959 85.9971 66.4406 86.0519C66.2854 86.1067 66.1191 86.1349 65.9511 86.1348C65.7831 86.1347 65.6168 86.1064 65.4617 86.0514C65.3066 85.9964 65.1656 85.9159 65.0469 85.8144C64.9283 85.7129 64.8341 85.5925 64.77 85.4599C64.7058 85.3274 64.6728 85.1853 64.6729 85.0419C64.673 84.7524 64.8079 84.4747 65.0477 84.27C65.2876 84.0653 65.6129 83.9504 65.952 83.9505C66.2911 83.9506 66.6162 84.0657 66.856 84.2705C67.0957 84.4753 67.2303 84.7531 67.2301 85.0426L67.231 85.0434ZM83.3986 85.0434C83.3986 85.3329 83.2639 85.6106 83.0241 85.8154C82.7843 86.0201 82.4591 86.1352 82.12 86.1352C81.7809 86.1352 81.4557 86.0201 81.2159 85.8154C80.9761 85.6106 80.8414 85.3329 80.8414 85.0434C80.8414 84.7538 80.9761 84.4761 81.2159 84.2714C81.4557 84.0666 81.7809 83.9516 82.12 83.9516C82.4591 83.9516 82.7843 84.0666 83.0241 84.2714C83.2639 84.4761 83.3986 84.7538 83.3986 85.0434ZM99.567 85.0434C99.567 85.3329 99.4323 85.6106 99.1925 85.8154C98.9528 86.0201 98.6275 86.1352 98.2884 86.1352C97.9493 86.1352 97.6241 86.0201 97.3843 85.8154C97.1445 85.6106 97.0098 85.3329 97.0098 85.0434C97.0098 84.7538 97.1445 84.4761 97.3843 84.2714C97.6241 84.0666 97.9493 83.9516 98.2884 83.9516C98.6275 83.9516 98.9528 84.0666 99.1925 84.2714C99.4323 84.4761 99.567 84.7538 99.567 85.0434ZM115.736 85.0434C115.736 85.1868 115.703 85.3288 115.639 85.4613C115.574 85.5937 115.48 85.7141 115.361 85.8154C115.242 85.9168 115.101 85.9971 114.946 86.0519C114.791 86.1067 114.624 86.1349 114.456 86.1348C114.288 86.1347 114.122 86.1064 113.967 86.0514C113.812 85.9964 113.671 85.9159 113.552 85.8144C113.434 85.7129 113.339 85.5925 113.275 85.4599C113.211 85.3274 113.178 85.1853 113.178 85.0419C113.178 84.7523 113.313 84.4745 113.553 84.2698C113.793 84.065 114.118 83.95 114.458 83.9501C114.797 83.9502 115.122 84.0654 115.362 84.2703C115.602 84.4752 115.736 84.753 115.736 85.0426V85.0434ZM131.905 85.0434C131.905 85.1868 131.871 85.3288 131.807 85.4613C131.743 85.5937 131.648 85.7141 131.53 85.8154C131.411 85.9168 131.27 85.9971 131.114 86.0519C130.959 86.1067 130.793 86.1349 130.625 86.1348C130.457 86.1347 130.291 86.1064 130.135 86.0514C129.98 85.9964 129.839 85.9159 129.721 85.8144C129.602 85.7129 129.508 85.5925 129.444 85.4599C129.38 85.3274 129.347 85.1853 129.347 85.0419C129.347 84.7524 129.482 84.4747 129.721 84.27C129.961 84.0653 130.287 83.9504 130.626 83.9505C130.965 83.9506 131.29 84.0657 131.53 84.2705C131.769 84.4753 131.904 84.7531 131.904 85.0426L131.905 85.0434ZM148.073 85.0434C148.073 85.3331 147.938 85.6109 147.698 85.8157C147.458 86.0204 147.132 86.1353 146.793 86.1352C146.454 86.135 146.128 86.0197 145.888 85.8147C145.649 85.6096 145.514 85.3317 145.514 85.0419C145.514 84.8984 145.548 84.7564 145.612 84.6239C145.676 84.4913 145.77 84.3709 145.889 84.2695C146.008 84.1681 146.149 84.0876 146.305 84.0328C146.46 83.9779 146.626 83.9497 146.794 83.9498C146.962 83.9498 147.129 83.9781 147.284 84.0331C147.439 84.088 147.58 84.1685 147.699 84.27C147.818 84.3715 147.912 84.492 147.976 84.6245C148.04 84.7571 148.073 84.8992 148.073 85.0426V85.0434ZM164.241 85.0434C164.241 85.3329 164.106 85.6105 163.866 85.8152C163.626 86.0198 163.3 86.1346 162.961 86.1344C162.622 86.1342 162.297 86.019 162.057 85.8141C161.818 85.6092 161.683 85.3315 161.684 85.0419C161.684 84.7524 161.819 84.4747 162.058 84.27C162.298 84.0653 162.624 83.9504 162.963 83.9505C163.302 83.9506 163.627 84.0657 163.867 84.2705C164.106 84.4753 164.241 84.7531 164.241 85.0426V85.0434ZM180.409 85.0434C180.409 85.1868 180.376 85.3288 180.312 85.4613C180.247 85.5937 180.153 85.7141 180.034 85.8154C179.915 85.9168 179.774 85.9971 179.619 86.0519C179.464 86.1067 179.297 86.1349 179.129 86.1348C178.961 86.1347 178.795 86.1064 178.64 86.0514C178.485 85.9964 178.344 85.9159 178.225 85.8144C178.107 85.7129 178.012 85.5925 177.948 85.4599C177.884 85.3274 177.851 85.1853 177.851 85.0419C177.851 84.8985 177.884 84.7565 177.949 84.624C178.013 84.4915 178.107 84.3711 178.226 84.2698C178.345 84.1684 178.486 84.088 178.641 84.0331C178.796 83.9783 178.963 83.9501 179.131 83.9501C179.299 83.9502 179.465 83.9785 179.62 84.0334C179.775 84.0883 179.916 84.1688 180.035 84.2703C180.154 84.3717 180.248 84.4921 180.312 84.6247C180.376 84.7572 180.409 84.8992 180.409 85.0426V85.0434ZM2.55722 99.0342C2.55722 99.3238 2.42251 99.6015 2.18272 99.8062C1.94294 100.011 1.61772 100.126 1.27861 100.126C0.939501 100.126 0.614281 100.011 0.374495 99.8062C0.134709 99.6015 0 99.3238 0 99.0342C0 98.7447 0.134709 98.467 0.374495 98.2622C0.614281 98.0575 0.939501 97.9424 1.27861 97.9424C1.61772 97.9424 1.94294 98.0575 2.18272 98.2622C2.42251 98.467 2.55722 98.7447 2.55722 99.0342ZM18.7257 99.0342C18.7257 99.3238 18.591 99.6015 18.3512 99.8062C18.1114 100.011 17.7862 100.126 17.4471 100.126C17.1079 100.126 16.7827 100.011 16.5429 99.8062C16.3032 99.6015 16.1684 99.3238 16.1684 99.0342C16.1684 98.7447 16.3032 98.467 16.5429 98.2622C16.7827 98.0575 17.1079 97.9424 17.4471 97.9424C17.7862 97.9424 18.1114 98.0575 18.3512 98.2622C18.591 98.467 18.7257 98.7447 18.7257 99.0342ZM34.8941 99.0342C34.8941 99.3239 34.7594 99.6017 34.5195 99.8065C34.2796 100.011 33.9543 100.126 33.6151 100.126C33.2759 100.126 32.9505 100.011 32.7107 99.8065C32.4708 99.6017 32.336 99.3239 32.336 99.0342C32.336 98.7446 32.4708 98.4668 32.7107 98.262C32.9505 98.0571 33.2759 97.9421 33.6151 97.9421C33.9543 97.9421 34.2796 98.0571 34.5195 98.262C34.7594 98.4668 34.8941 98.7446 34.8941 99.0342ZM51.0626 99.0342C51.0626 99.3239 50.9278 99.6017 50.6879 99.8065C50.4481 100.011 50.1227 100.126 49.7835 100.126C49.4443 100.126 49.119 100.011 48.8791 99.8065C48.6392 99.6017 48.5045 99.3239 48.5045 99.0342C48.5045 98.7447 48.6392 98.467 48.879 98.2622C49.1188 98.0575 49.444 97.9424 49.7831 97.9424C50.1222 97.9424 50.4474 98.0575 50.6872 98.2622C50.927 98.467 51.0617 98.7447 51.0617 99.0342H51.0626ZM67.231 99.0342C67.231 99.3239 67.0962 99.6017 66.8564 99.8065C66.6165 100.011 66.2912 100.126 65.952 100.126C65.6127 100.126 65.2874 100.011 65.0475 99.8065C64.8077 99.6017 64.6729 99.3239 64.6729 99.0342C64.6729 98.7447 64.8076 98.467 65.0474 98.2622C65.2872 98.0575 65.6124 97.9424 65.9515 97.9424C66.2906 97.9424 66.6159 98.0575 66.8556 98.2622C67.0954 98.467 67.2301 98.7447 67.2301 99.0342H67.231ZM83.3986 99.0342C83.3986 99.3238 83.2639 99.6015 83.0241 99.8062C82.7843 100.011 82.4591 100.126 82.12 100.126C81.7809 100.126 81.4557 100.011 81.2159 99.8062C80.9761 99.6015 80.8414 99.3238 80.8414 99.0342C80.8414 98.7447 80.9761 98.467 81.2159 98.2622C81.4557 98.0575 81.7809 97.9424 82.12 97.9424C82.4591 97.9424 82.7843 98.0575 83.0241 98.2622C83.2639 98.467 83.3986 98.7447 83.3986 99.0342ZM99.567 99.0342C99.567 99.3238 99.4323 99.6015 99.1925 99.8062C98.9528 100.011 98.6275 100.126 98.2884 100.126C97.9493 100.126 97.6241 100.011 97.3843 99.8062C97.1445 99.6015 97.0098 99.3238 97.0098 99.0342C97.0098 98.7447 97.1445 98.467 97.3843 98.2622C97.6241 98.0575 97.9493 97.9424 98.2884 97.9424C98.6275 97.9424 98.9528 98.0575 99.1925 98.2622C99.4323 98.467 99.567 98.7447 99.567 99.0342ZM115.736 99.0342C115.736 99.3239 115.602 99.6017 115.362 99.8065C115.122 100.011 114.797 100.126 114.457 100.126C114.118 100.126 113.793 100.011 113.553 99.8065C113.313 99.6017 113.178 99.3239 113.178 99.0342C113.178 98.7446 113.313 98.4668 113.553 98.262C113.793 98.0571 114.118 97.9421 114.457 97.9421C114.797 97.9421 115.122 98.0571 115.362 98.262C115.602 98.4668 115.736 98.7446 115.736 99.0342ZM131.905 99.0342C131.905 99.3239 131.77 99.6017 131.53 99.8065C131.29 100.011 130.965 100.126 130.626 100.126C130.287 100.126 129.961 100.011 129.721 99.8065C129.481 99.6017 129.347 99.3239 129.347 99.0342C129.347 98.7447 129.481 98.467 129.721 98.2622C129.961 98.0575 130.286 97.9424 130.625 97.9424C130.964 97.9424 131.29 98.0575 131.529 98.2622C131.769 98.467 131.904 98.7447 131.904 99.0342H131.905ZM148.073 99.0342C148.073 99.324 147.938 99.6019 147.698 99.8067C147.459 100.012 147.133 100.127 146.794 100.127C146.454 100.127 146.129 100.012 145.889 99.8067C145.649 99.6019 145.514 99.324 145.514 99.0342C145.514 98.7445 145.649 98.4666 145.889 98.2617C146.129 98.0568 146.454 97.9417 146.794 97.9417C147.133 97.9417 147.459 98.0568 147.698 98.2617C147.938 98.4666 148.073 98.7445 148.073 99.0342ZM164.241 99.0342C164.241 99.3238 164.106 99.6015 163.866 99.8062C163.627 100.011 163.301 100.126 162.962 100.126C162.623 100.126 162.298 100.011 162.058 99.8062C161.818 99.6015 161.684 99.3238 161.684 99.0342C161.684 98.7447 161.818 98.467 162.058 98.2622C162.298 98.0575 162.623 97.9424 162.962 97.9424C163.301 97.9424 163.627 98.0575 163.866 98.2622C164.106 98.467 164.241 98.7447 164.241 99.0342ZM180.409 99.0342C180.409 99.3239 180.274 99.6017 180.035 99.8065C179.795 100.011 179.469 100.126 179.13 100.126C178.791 100.126 178.466 100.011 178.226 99.8065C177.986 99.6017 177.851 99.3239 177.851 99.0342C177.851 98.7446 177.986 98.4668 178.226 98.262C178.466 98.0571 178.791 97.9421 179.13 97.9421C179.469 97.9421 179.795 98.0571 180.035 98.262C180.274 98.4668 180.409 98.7446 180.409 99.0342ZM2.55722 113.026C2.56355 113.172 2.5352 113.319 2.47387 113.456C2.41253 113.593 2.31947 113.718 2.20024 113.824C2.08102 113.929 1.93807 114.013 1.77994 114.071C1.62181 114.128 1.45174 114.158 1.2799 114.158C1.10807 114.158 0.937977 114.128 0.779803 114.071C0.621629 114.014 0.478614 113.93 0.359303 113.824C0.239992 113.718 0.146837 113.593 0.0853954 113.456C0.023954 113.319 -0.0045122 113.173 0.00170388 113.027C0.0136784 112.744 0.153487 112.477 0.391716 112.28C0.629945 112.084 0.948026 111.974 1.27905 111.974C1.61008 111.974 1.92825 112.084 2.16663 112.28C2.40501 112.476 2.54502 112.743 2.55722 113.026ZM18.7257 113.026C18.7257 113.315 18.591 113.593 18.3512 113.798C18.1114 114.003 17.7862 114.118 17.4471 114.118C17.1079 114.118 16.7827 114.003 16.5429 113.798C16.3032 113.593 16.1684 113.315 16.1684 113.026C16.1684 112.736 16.3032 112.459 16.5429 112.254C16.7827 112.049 17.1079 111.934 17.4471 111.934C17.7862 111.934 18.1114 112.049 18.3512 112.254C18.591 112.459 18.7257 112.736 18.7257 113.026ZM34.8941 113.026C34.8941 113.315 34.7594 113.593 34.5196 113.798C34.2798 114.003 33.9546 114.118 33.6155 114.118C33.2764 114.118 32.9512 114.003 32.7114 113.798C32.4716 113.593 32.3369 113.315 32.3369 113.026C32.3369 112.736 32.4716 112.459 32.7114 112.254C32.9512 112.049 33.2764 111.934 33.6155 111.934C33.9546 111.934 34.2798 112.049 34.5196 112.254C34.7594 112.459 34.8941 112.736 34.8941 113.026ZM51.0626 113.026C51.0626 113.315 50.9278 113.593 50.6881 113.798C50.4483 114.003 50.1231 114.118 49.7839 114.118C49.4448 114.118 49.1196 114.003 48.8798 113.798C48.64 113.593 48.5053 113.315 48.5053 113.026C48.5053 112.736 48.64 112.459 48.8798 112.254C49.1196 112.049 49.4448 111.934 49.7839 111.934C50.1231 111.934 50.4483 112.049 50.6881 112.254C50.9278 112.459 51.0626 112.736 51.0626 113.026ZM67.231 113.026C67.231 113.315 67.0963 113.593 66.8565 113.798C66.6167 114.003 66.2915 114.118 65.9524 114.118C65.6133 114.118 65.2881 114.003 65.0483 113.798C64.8085 113.593 64.6738 113.315 64.6738 113.026C64.6738 112.736 64.8085 112.459 65.0483 112.254C65.2881 112.049 65.6133 111.934 65.9524 111.934C66.2915 111.934 66.6167 112.049 66.8565 112.254C67.0963 112.459 67.231 112.736 67.231 113.026ZM83.3986 113.026C83.4049 113.172 83.3766 113.319 83.3152 113.456C83.2539 113.593 83.1608 113.718 83.0416 113.824C82.9224 113.929 82.7794 114.013 82.6213 114.071C82.4632 114.128 82.2931 114.158 82.1213 114.158C81.9494 114.158 81.7794 114.128 81.6212 114.071C81.463 114.014 81.32 113.93 81.2007 113.824C81.0814 113.718 80.9882 113.593 80.9268 113.456C80.8653 113.319 80.8369 113.173 80.8431 113.027C80.855 112.744 80.9949 112.477 81.2331 112.28C81.4713 112.084 81.7894 111.974 82.1204 111.974C82.4515 111.974 82.7696 112.084 83.008 112.28C83.2464 112.476 83.3864 112.743 83.3986 113.026ZM99.567 113.026C99.5734 113.172 99.545 113.319 99.4837 113.456C99.4223 113.593 99.3293 113.718 99.2101 113.824C99.0908 113.929 98.9479 114.013 98.7897 114.071C98.6316 114.128 98.4616 114.158 98.2897 114.158C98.1179 114.158 97.9478 114.128 97.7896 114.071C97.6314 114.014 97.4884 113.93 97.3691 113.824C97.2498 113.718 97.1566 113.593 97.0952 113.456C97.0338 113.319 97.0053 113.173 97.0115 113.027C97.0235 112.744 97.1633 112.477 97.4015 112.28C97.6398 112.084 97.9578 111.974 98.2889 111.974C98.6199 111.974 98.9381 112.084 99.1764 112.28C99.4148 112.476 99.5548 112.743 99.567 113.026ZM115.736 113.026C115.736 113.315 115.602 113.593 115.362 113.798C115.122 114.003 114.797 114.118 114.458 114.118C114.119 114.118 113.793 114.003 113.554 113.798C113.314 113.593 113.179 113.315 113.179 113.026C113.179 112.736 113.314 112.459 113.554 112.254C113.793 112.049 114.119 111.934 114.458 111.934C114.797 111.934 115.122 112.049 115.362 112.254C115.602 112.459 115.736 112.736 115.736 113.026ZM131.905 113.026C131.905 113.315 131.77 113.593 131.53 113.798C131.29 114.003 130.965 114.118 130.626 114.118C130.287 114.118 129.962 114.003 129.722 113.798C129.482 113.593 129.348 113.315 129.348 113.026C129.348 112.736 129.482 112.459 129.722 112.254C129.962 112.049 130.287 111.934 130.626 111.934C130.965 111.934 131.29 112.049 131.53 112.254C131.77 112.459 131.905 112.736 131.905 113.026ZM148.073 113.026C148.073 113.315 147.939 113.593 147.699 113.798C147.459 114.003 147.134 114.118 146.795 114.118C146.455 114.118 146.13 114.003 145.891 113.798C145.651 113.593 145.516 113.315 145.516 113.026C145.516 112.736 145.651 112.459 145.891 112.254C146.13 112.049 146.455 111.934 146.795 111.934C147.134 111.934 147.459 112.049 147.699 112.254C147.939 112.459 148.073 112.736 148.073 113.026ZM164.241 113.026C164.241 113.315 164.106 113.593 163.866 113.798C163.627 114.003 163.301 114.118 162.962 114.118C162.623 114.118 162.298 114.003 162.058 113.798C161.818 113.593 161.684 113.315 161.684 113.026C161.684 112.736 161.818 112.459 162.058 112.254C162.298 112.049 162.623 111.934 162.962 111.934C163.301 111.934 163.627 112.049 163.866 112.254C164.106 112.459 164.241 112.736 164.241 113.026ZM180.409 113.026C180.409 113.315 180.275 113.593 180.035 113.798C179.795 114.003 179.47 114.118 179.131 114.118C178.792 114.118 178.466 114.003 178.227 113.798C177.987 113.593 177.852 113.315 177.852 113.026C177.852 112.736 177.987 112.459 178.227 112.254C178.466 112.049 178.792 111.934 179.131 111.934C179.47 111.934 179.795 112.049 180.035 112.254C180.275 112.459 180.409 112.736 180.409 113.026ZM2.55722 127.017C2.56361 127.164 2.53532 127.31 2.47403 127.447C2.41275 127.584 2.31974 127.709 2.20056 127.815C2.08137 127.921 1.93845 128.005 1.78034 128.062C1.62224 128.12 1.45218 128.15 1.28035 128.15C1.10851 128.15 0.938409 128.12 0.780213 128.063C0.622017 128.006 0.478974 127.922 0.359622 127.816C0.24027 127.711 0.14706 127.586 0.0855645 127.449C0.0240692 127.312 -0.00445412 127.165 0.00170388 127.019C0.0135666 126.736 0.153271 126.469 0.391423 126.272C0.629575 126.076 0.947615 125.966 1.27864 125.966C1.60967 125.966 1.92788 126.075 2.16634 126.271C2.4048 126.468 2.54492 126.735 2.55722 127.017ZM18.7257 127.017C18.7257 127.307 18.591 127.585 18.3512 127.789C18.1114 127.994 17.7862 128.109 17.4471 128.109C17.1079 128.109 16.7827 127.994 16.5429 127.789C16.3032 127.585 16.1684 127.307 16.1684 127.017C16.1684 126.728 16.3032 126.45 16.5429 126.245C16.7827 126.041 17.1079 125.926 17.4471 125.926C17.7862 125.926 18.1114 126.041 18.3512 126.245C18.591 126.45 18.7257 126.728 18.7257 127.017ZM34.8941 127.017C34.8941 127.307 34.7594 127.585 34.5196 127.789C34.2798 127.994 33.9546 128.109 33.6155 128.109C33.2764 128.109 32.9512 127.994 32.7114 127.789C32.4716 127.585 32.3369 127.307 32.3369 127.017C32.3369 126.728 32.4716 126.45 32.7114 126.245C32.9512 126.041 33.2764 125.926 33.6155 125.926C33.9546 125.926 34.2798 126.041 34.5196 126.245C34.7594 126.45 34.8941 126.728 34.8941 127.017ZM51.0626 127.017C51.0626 127.307 50.9278 127.585 50.6881 127.789C50.4483 127.994 50.1231 128.109 49.7839 128.109C49.4448 128.109 49.1196 127.994 48.8798 127.789C48.64 127.585 48.5053 127.307 48.5053 127.017C48.5053 126.728 48.64 126.45 48.8798 126.245C49.1196 126.041 49.4448 125.926 49.7839 125.926C50.1231 125.926 50.4483 126.041 50.6881 126.245C50.9278 126.45 51.0626 126.728 51.0626 127.017ZM67.231 127.017C67.231 127.307 67.0963 127.585 66.8565 127.789C66.6167 127.994 66.2915 128.109 65.9524 128.109C65.6133 128.109 65.2881 127.994 65.0483 127.789C64.8085 127.585 64.6738 127.307 64.6738 127.017C64.6738 126.728 64.8085 126.45 65.0483 126.245C65.2881 126.041 65.6133 125.926 65.9524 125.926C66.2915 125.926 66.6167 126.041 66.8565 126.245C67.0963 126.45 67.231 126.728 67.231 127.017ZM83.3986 127.017C83.405 127.164 83.3767 127.31 83.3154 127.447C83.2541 127.584 83.1611 127.709 83.0419 127.815C82.9227 127.921 82.7798 128.005 82.6217 128.062C82.4636 128.12 82.2935 128.15 82.1217 128.15C81.9499 128.15 81.7798 128.12 81.6216 128.063C81.4634 128.006 81.3204 127.922 81.201 127.816C81.0816 127.711 80.9884 127.586 80.9269 127.449C80.8654 127.312 80.8369 127.165 80.8431 127.019C80.8549 126.736 80.9946 126.469 81.2328 126.272C81.4709 126.076 81.789 125.966 82.12 125.966C82.451 125.966 82.7692 126.075 83.0077 126.271C83.2462 126.468 83.3863 126.735 83.3986 127.017ZM99.567 127.017C99.5734 127.164 99.5451 127.31 99.4838 127.447C99.4226 127.584 99.3296 127.709 99.2104 127.815C99.0912 127.921 98.9483 128.005 98.7902 128.062C98.6321 128.12 98.462 128.15 98.2902 128.15C98.1183 128.15 97.9482 128.12 97.79 128.063C97.6318 128.006 97.4888 127.922 97.3694 127.816C97.2501 127.711 97.1569 127.586 97.0954 127.449C97.0339 127.312 97.0054 127.165 97.0115 127.019C97.0234 126.736 97.1631 126.469 97.4012 126.272C97.6394 126.076 97.9574 125.966 98.2885 125.966C98.6195 125.966 98.9377 126.075 99.1761 126.271C99.4146 126.468 99.5547 126.735 99.567 127.017ZM115.736 127.017C115.736 127.307 115.602 127.585 115.362 127.789C115.122 127.994 114.797 128.109 114.458 128.109C114.119 128.109 113.793 127.994 113.554 127.789C113.314 127.585 113.179 127.307 113.179 127.017C113.179 126.728 113.314 126.45 113.554 126.245C113.793 126.041 114.119 125.926 114.458 125.926C114.797 125.926 115.122 126.041 115.362 126.245C115.602 126.45 115.736 126.728 115.736 127.017ZM131.905 127.017C131.905 127.307 131.77 127.585 131.53 127.789C131.29 127.994 130.965 128.109 130.626 128.109C130.287 128.109 129.962 127.994 129.722 127.789C129.482 127.585 129.348 127.307 129.348 127.017C129.348 126.728 129.482 126.45 129.722 126.245C129.962 126.041 130.287 125.926 130.626 125.926C130.965 125.926 131.29 126.041 131.53 126.245C131.77 126.45 131.905 126.728 131.905 127.017ZM148.073 127.017C148.073 127.307 147.939 127.585 147.699 127.789C147.459 127.994 147.134 128.109 146.795 128.109C146.455 128.109 146.13 127.994 145.891 127.789C145.651 127.585 145.516 127.307 145.516 127.017C145.516 126.728 145.651 126.45 145.891 126.245C146.13 126.041 146.455 125.926 146.795 125.926C147.134 125.926 147.459 126.041 147.699 126.245C147.939 126.45 148.073 126.728 148.073 127.017ZM164.241 127.017C164.241 127.307 164.106 127.585 163.866 127.789C163.627 127.994 163.301 128.109 162.962 128.109C162.623 128.109 162.298 127.994 162.058 127.789C161.818 127.585 161.684 127.307 161.684 127.017C161.684 126.728 161.818 126.45 162.058 126.245C162.298 126.041 162.623 125.926 162.962 125.926C163.301 125.926 163.627 126.041 163.866 126.245C164.106 126.45 164.241 126.728 164.241 127.017ZM180.409 127.017C180.409 127.307 180.275 127.585 180.035 127.789C179.795 127.994 179.47 128.109 179.131 128.109C178.792 128.109 178.466 127.994 178.227 127.789C177.987 127.585 177.852 127.307 177.852 127.017C177.852 126.728 177.987 126.45 178.227 126.245C178.466 126.041 178.792 125.926 179.131 125.926C179.47 125.926 179.795 126.041 180.035 126.245C180.275 126.45 180.409 126.728 180.409 127.017ZM2.55722 141.009C2.56361 141.156 2.53532 141.302 2.47403 141.439C2.41275 141.576 2.31974 141.701 2.20056 141.807C2.08137 141.912 1.93845 141.997 1.78034 142.054C1.62224 142.112 1.45218 142.141 1.28035 142.141C1.10851 142.141 0.938409 142.112 0.780213 142.055C0.622017 141.997 0.478974 141.913 0.359622 141.808C0.24027 141.702 0.14706 141.577 0.0855645 141.44C0.0240692 141.303 -0.00445412 141.157 0.00170388 141.01C0.0135666 140.728 0.153271 140.46 0.391423 140.264C0.629575 140.068 0.947615 139.958 1.27864 139.958C1.60967 139.958 1.92788 140.067 2.16634 140.263C2.4048 140.459 2.54492 140.726 2.55722 141.009ZM18.7257 141.009C18.7257 141.298 18.591 141.576 18.3512 141.781C18.1114 141.986 17.7862 142.101 17.4471 142.101C17.1079 142.101 16.7827 141.986 16.5429 141.781C16.3032 141.576 16.1684 141.298 16.1684 141.009C16.1684 140.719 16.3032 140.442 16.5429 140.237C16.7827 140.032 17.1079 139.917 17.4471 139.917C17.7862 139.917 18.1114 140.032 18.3512 140.237C18.591 140.442 18.7257 140.719 18.7257 141.009ZM34.8941 141.009C34.8941 141.298 34.7594 141.576 34.5196 141.781C34.2798 141.986 33.9546 142.101 33.6155 142.101C33.2764 142.101 32.9512 141.986 32.7114 141.781C32.4716 141.576 32.3369 141.298 32.3369 141.009C32.3369 140.719 32.4716 140.442 32.7114 140.237C32.9512 140.032 33.2764 139.917 33.6155 139.917C33.9546 139.917 34.2798 140.032 34.5196 140.237C34.7594 140.442 34.8941 140.719 34.8941 141.009ZM51.0626 141.009C51.0626 141.298 50.9278 141.576 50.6881 141.781C50.4483 141.986 50.1231 142.101 49.7839 142.101C49.4448 142.101 49.1196 141.986 48.8798 141.781C48.64 141.576 48.5053 141.298 48.5053 141.009C48.5053 140.719 48.64 140.442 48.8798 140.237C49.1196 140.032 49.4448 139.917 49.7839 139.917C50.1231 139.917 50.4483 140.032 50.6881 140.237C50.9278 140.442 51.0626 140.719 51.0626 141.009ZM67.231 141.009C67.231 141.298 67.0963 141.576 66.8565 141.781C66.6167 141.986 66.2915 142.101 65.9524 142.101C65.6133 142.101 65.2881 141.986 65.0483 141.781C64.8085 141.576 64.6738 141.298 64.6738 141.009C64.6738 140.719 64.8085 140.442 65.0483 140.237C65.2881 140.032 65.6133 139.917 65.9524 139.917C66.2915 139.917 66.6167 140.032 66.8565 140.237C67.0963 140.442 67.231 140.719 67.231 141.009ZM83.3986 141.009C83.405 141.156 83.3767 141.302 83.3154 141.439C83.2541 141.576 83.1611 141.701 83.0419 141.807C82.9227 141.912 82.7798 141.997 82.6217 142.054C82.4636 142.112 82.2935 142.141 82.1217 142.141C81.9499 142.141 81.7798 142.112 81.6216 142.055C81.4634 141.997 81.3204 141.913 81.201 141.808C81.0816 141.702 80.9884 141.577 80.9269 141.44C80.8654 141.303 80.8369 141.157 80.8431 141.01C80.8549 140.728 80.9946 140.46 81.2328 140.264C81.4709 140.068 81.789 139.958 82.12 139.958C82.451 139.958 82.7692 140.067 83.0077 140.263C83.2462 140.459 83.3863 140.726 83.3986 141.009ZM99.567 141.009C99.5734 141.156 99.5451 141.302 99.4838 141.439C99.4226 141.576 99.3296 141.701 99.2104 141.807C99.0912 141.912 98.9483 141.997 98.7902 142.054C98.6321 142.112 98.462 142.141 98.2902 142.141C98.1183 142.141 97.9482 142.112 97.79 142.055C97.6318 141.997 97.4888 141.913 97.3694 141.808C97.2501 141.702 97.1569 141.577 97.0954 141.44C97.0339 141.303 97.0054 141.157 97.0115 141.01C97.0234 140.728 97.1631 140.46 97.4012 140.264C97.6394 140.068 97.9574 139.958 98.2885 139.958C98.6195 139.958 98.9377 140.067 99.1761 140.263C99.4146 140.459 99.5547 140.726 99.567 141.009ZM115.736 141.009C115.736 141.298 115.602 141.576 115.362 141.781C115.122 141.986 114.797 142.101 114.458 142.101C114.119 142.101 113.793 141.986 113.554 141.781C113.314 141.576 113.179 141.298 113.179 141.009C113.179 140.719 113.314 140.442 113.554 140.237C113.793 140.032 114.119 139.917 114.458 139.917C114.797 139.917 115.122 140.032 115.362 140.237C115.602 140.442 115.736 140.719 115.736 141.009ZM131.905 141.009C131.905 141.298 131.77 141.576 131.53 141.781C131.29 141.986 130.965 142.101 130.626 142.101C130.287 142.101 129.962 141.986 129.722 141.781C129.482 141.576 129.348 141.298 129.348 141.009C129.348 140.719 129.482 140.442 129.722 140.237C129.962 140.032 130.287 139.917 130.626 139.917C130.965 139.917 131.29 140.032 131.53 140.237C131.77 140.442 131.905 140.719 131.905 141.009ZM148.073 141.009C148.073 141.298 147.939 141.576 147.699 141.781C147.459 141.986 147.134 142.101 146.795 142.101C146.455 142.101 146.13 141.986 145.891 141.781C145.651 141.576 145.516 141.298 145.516 141.009C145.516 140.719 145.651 140.442 145.891 140.237C146.13 140.032 146.455 139.917 146.795 139.917C147.134 139.917 147.459 140.032 147.699 140.237C147.939 140.442 148.073 140.719 148.073 141.009ZM164.241 141.009C164.241 141.298 164.106 141.576 163.866 141.781C163.627 141.986 163.301 142.101 162.962 142.101C162.623 142.101 162.298 141.986 162.058 141.781C161.818 141.576 161.684 141.298 161.684 141.009C161.684 140.719 161.818 140.442 162.058 140.237C162.298 140.032 162.623 139.917 162.962 139.917C163.301 139.917 163.627 140.032 163.866 140.237C164.106 140.442 164.241 140.719 164.241 141.009ZM180.409 141.009C180.409 141.298 180.275 141.576 180.035 141.781C179.795 141.986 179.47 142.101 179.131 142.101C178.792 142.101 178.466 141.986 178.227 141.781C177.987 141.576 177.852 141.298 177.852 141.009C177.852 140.719 177.987 140.442 178.227 140.237C178.466 140.032 178.792 139.917 179.131 139.917C179.47 139.917 179.795 140.032 180.035 140.237C180.275 140.442 180.409 140.719 180.409 141.009Z" fill="#F5E205"/>
</svg>
